999
dxfrw 0.5.10
0
SECTION
2
HEADER
9
$ACADVER
1
AC1021
9
$HANDSEED
5
20000
9
$DWGCODEPAGE
3
ANSI_1252
9
$INSBASE
10
0
20
0
30
0
9
$EXTMIN
10
-14.8302348127
20
-207.336116056
30
0
9
$EXTMAX
10
37.0006535161
20
-187.811110202
30
0
9
$LIMMIN
10
0
20
0
9
$LIMMAX
10
1000
20
1000
9
$ORTHOMODE
70
1
9
$LTSCALE
40
0.5
9
$TEXTSTYLE
7
Standard
9
$CLAYER
8
0
9
$DIMASZ
40
0.1
9
$DIMLFAC
40
1
9
$DIMSCALE
40
1
9
$DIMEXO
40
0.1
9
$DIMEXE
40
0.1
9
$DIMTXT
40
0.15
9
$DIMTSZ
40
0
9
$DIMAUNIT
70
0
9
$DIMADEC
70
0
9
$DIMLUNIT
70
2
9
$DIMSTYLE
2
DAVID-100
9
$DIMGAP
40
0.08
9
$DIMTIH
70
0
9
$LUNITS
70
2
9
$LUPREC
70
4
9
$AUNITS
70
0
9
$AUPREC
70
0
9
$SPLINESEGS
70
8
9
$GRIDMODE
70
0
9
$SNAPSTYLE
70
0
9
$GRIDUNIT
10
0
20
0
9
$PINSBASE
10
0
20
0
30
0
9
$PLIMMIN
10
0
20
0
9
$PLIMMAX
10
0.297
20
0.21
9
$INSUNITS
70
6
9
$PSVPSCALE
40
0
0
ENDSEC
0
SECTION
2
CLASSES
0
ENDSEC
0
SECTION
2
TABLES
0
TABLE
2
VPORT
5
8
330
0
100
AcDbSymbolTable
70
1
0
VPORT
5
31
330
2
100
AcDbSymbolTableRecord
100
AcDbViewportTableRecord
2
*ACTIVE
70
0
10
0
20
0
11
1
21
1
12
22.1165939154
22
-90.2226934137
13
0
23
0
14
10
24
10
15
10
25
10
16
0
26
0
36
1
17
0
27
0
37
0
40
30.9632314816
41
2.12044817927
42
50
43
0
44
0
50
0
51
0
71
0
72
100
73
1
74
3
75
0
76
0
77
0
78
1
281
0
65
1
110
0
120
0
130
0
111
1
121
0
131
0
112
0
122
1
132
0
79
0
146
0
348
10020
60
7
61
5
292
1
282
1
141
0
142
0
63
250
421
3358443
0
ENDTAB
0
TABLE
2
LTYPE
5
5
330
0
100
AcDbSymbolTable
70
4
0
LTYPE
5
14
330
5
100
AcDbSymbolTableRecord
100
AcDbLinetypeTableRecord
2
ByBlock
70
0
3

72
65
73
0
40
0
0
LTYPE
5
15
330
5
100
AcDbSymbolTableRecord
100
AcDbLinetypeTableRecord
2
ByLayer
70
0
3

72
65
73
0
40
0
0
LTYPE
5
16
330
5
100
AcDbSymbolTableRecord
100
AcDbLinetypeTableRecord
2
Continuous
70
0
3
Solid line
72
65
73
0
40
0
0
LTYPE
5
32
330
5
100
AcDbSymbolTableRecord
100
AcDbLinetypeTableRecord
2
DOT
70
0
3
Dot . . . . . . . . . . . . . . . . . . . . . .
72
65
73
2
40
6.35
49
0
74
0
49
-6.35
74
0
0
LTYPE
5
33
330
5
100
AcDbSymbolTableRecord
100
AcDbLinetypeTableRecord
2
DOT2
70
0
3
Dot (.5x) .....................................
72
65
73
2
40
3.175
49
0
74
0
49
-3.175
74
0
0
LTYPE
5
34
330
5
100
AcDbSymbolTableRecord
100
AcDbLinetypeTableRecord
2
DOTX2
70
0
3
Dot (2x) .  .  .  .  .  .  .  .  .  .  .  .  .
72
65
73
2
40
12.7
49
0
74
0
49
-12.7
74
0
0
LTYPE
5
35
330
5
100
AcDbSymbolTableRecord
100
AcDbLinetypeTableRecord
2
DASHED
70
0
3
Dot . . . . . . . . . . . . . . . . . . . . . .
72
65
73
2
40
19.05
49
12.7
74
0
49
-6.35
74
0
0
LTYPE
5
36
330
5
100
AcDbSymbolTableRecord
100
AcDbLinetypeTableRecord
2
DASHED2
70
0
3
Dashed (.5x) _ _ _ _ _ _ _ _ _ _ _ _ _ _ _ _ _
72
65
73
2
40
9.525
49
6.35
74
0
49
-3.175
74
0
0
LTYPE
5
37
330
5
100
AcDbSymbolTableRecord
100
AcDbLinetypeTableRecord
2
DASHEDX2
70
0
3
Dashed (2x) ____  ____  ____  ____  ____  ___
72
65
73
2
40
38.1
49
25.4
74
0
49
-12.7
74
0
0
LTYPE
5
38
330
5
100
AcDbSymbolTableRecord
100
AcDbLinetypeTableRecord
2
DASHDOT
70
0
3
Dash dot __ . __ . __ . __ . __ . __ . __ . __
72
65
73
4
40
25.4
49
12.7
74
0
49
-6.35
74
0
49
0
74
0
49
-6.35
74
0
0
LTYPE
5
39
330
5
100
AcDbSymbolTableRecord
100
AcDbLinetypeTableRecord
2
DASHDOT2
70
0
3
Dash dot (.5x) _._._._._._._._._._._._._._._.
72
65
73
4
40
12.7
49
6.35
74
0
49
-3.175
74
0
49
0
74
0
49
-3.175
74
0
0
LTYPE
5
3A
330
5
100
AcDbSymbolTableRecord
100
AcDbLinetypeTableRecord
2
DASHDOTX2
70
0
3
Dash dot (2x) ____  .  ____  .  ____  .  ___
72
65
73
4
40
50.8
49
25.4
74
0
49
-12.7
74
0
49
0
74
0
49
-12.7
74
0
0
LTYPE
5
3B
330
5
100
AcDbSymbolTableRecord
100
AcDbLinetypeTableRecord
2
DIVIDE
70
0
3
Divide ____ . . ____ . . ____ . . ____ . . ____
72
65
73
6
40
31.75
49
12.7
74
0
49
-6.35
74
0
49
0
74
0
49
-6.35
74
0
49
0
74
0
49
-6.35
74
0
0
LTYPE
5
3C
330
5
100
AcDbSymbolTableRecord
100
AcDbLinetypeTableRecord
2
DIVIDE2
70
0
3
Divide (.5x) __..__..__..__..__..__..__..__.._
72
65
73
6
40
15.875
49
6.35
74
0
49
-3.175
74
0
49
0
74
0
49
-3.175
74
0
49
0
74
0
49
-3.175
74
0
0
LTYPE
5
3D
330
5
100
AcDbSymbolTableRecord
100
AcDbLinetypeTableRecord
2
DIVIDEX2
70
0
3
Divide (2x) ________  .  .  ________  .  .  _
72
65
73
6
40
63.5
49
25.4
74
0
49
-12.7
74
0
49
0
74
0
49
-12.7
74
0
49
0
74
0
49
-12.7
74
0
0
LTYPE
5
3E
330
5
100
AcDbSymbolTableRecord
100
AcDbLinetypeTableRecord
2
BORDER
70
0
3
Border __ __ . __ __ . __ __ . __ __ . __ __ .
72
65
73
6
40
44.45
49
12.7
74
0
49
-6.35
74
0
49
12.7
74
0
49
-6.35
74
0
49
0
74
0
49
-6.35
74
0
0
LTYPE
5
3F
330
5
100
AcDbSymbolTableRecord
100
AcDbLinetypeTableRecord
2
BORDER2
70
0
3
Border (.5x) __.__.__.__.__.__.__.__.__.__.__.
72
65
73
6
40
22.225
49
6.35
74
0
49
-3.175
74
0
49
6.35
74
0
49
-3.175
74
0
49
0
74
0
49
-3.175
74
0
0
LTYPE
5
40
330
5
100
AcDbSymbolTableRecord
100
AcDbLinetypeTableRecord
2
BORDERX2
70
0
3
Border (2x) ____  ____  .  ____  ____  .  ___
72
65
73
6
40
88.9
49
25.4
74
0
49
-12.7
74
0
49
25.4
74
0
49
-12.7
74
0
49
0
74
0
49
-12.7
74
0
0
LTYPE
5
41
330
5
100
AcDbSymbolTableRecord
100
AcDbLinetypeTableRecord
2
CENTER
70
0
3
Center ____ _ ____ _ ____ _ ____ _ ____ _ ____
72
65
73
4
40
50.8
49
31.75
74
0
49
-6.35
74
0
49
6.35
74
0
49
-6.35
74
0
0
LTYPE
5
42
330
5
100
AcDbSymbolTableRecord
100
AcDbLinetypeTableRecord
2
CENTER2
70
0
3
Center (.5x) ___ _ ___ _ ___ _ ___ _ ___ _ ___
72
65
73
4
40
28.575
49
19.05
74
0
49
-3.175
74
0
49
3.175
74
0
49
-3.175
74
0
0
LTYPE
5
43
330
5
100
AcDbSymbolTableRecord
100
AcDbLinetypeTableRecord
2
CENTERX2
70
0
3
Center (2x) ________  __  ________  __  _____
72
65
73
4
40
101.6
49
63.5
74
0
49
-12.7
74
0
49
12.7
74
0
49
-12.7
74
0
0
ENDTAB
0
TABLE
2
LAYER
5
2
330
0
100
AcDbSymbolTable
70
1
0
LAYER
5
10
330
2
100
AcDbSymbolTableRecord
100
AcDbLayerTableRecord
2
0
70
1
62
7
6
CONTINUOUS
370
-3
390
F
0
LAYER
5
44
330
2
100
AcDbSymbolTableRecord
100
AcDbLayerTableRecord
2
SIG0015PB_AMPLIACION
70
0
62
7
6
CONTINUOUS
370
-3
390
F
0
ENDTAB
0
TABLE
2
STYLE
5
3
330
0
100
AcDbSymbolTable
70
3
0
STYLE
5
45
330
2
100
AcDbSymbolTableRecord
100
AcDbTextStyleTableRecord
2
Standard
70
0
40
0
41
1
50
0
71
0
42
1
3
txt
4

0
ENDTAB
0
TABLE
2
VIEW
5
6
330
0
100
AcDbSymbolTable
70
0
0
ENDTAB
0
TABLE
2
UCS
5
7
330
0
100
AcDbSymbolTable
70
0
0
ENDTAB
0
TABLE
2
APPID
5
9
330
0
100
AcDbSymbolTable
70
1
0
APPID
5
12
330
9
100
AcDbSymbolTableRecord
100
AcDbRegAppTableRecord
2
ACAD
70
0
0
ENDTAB
0
TABLE
2
DIMSTYLE
5
A
330
0
100
AcDbSymbolTable
70
1
100
AcDbDimStyleTable
71
1
0
DIMSTYLE
105
46
330
A
100
AcDbSymbolTableRecord
100
AcDbDimStyleTableRecord
2
Standard
70
0
40
1
41
0.1
42
0.1
43
0.38
44
0.1
45
0
46
0
47
0
48
0
140
0.15
141
0.09
142
0
143
25.4
144
1
145
0
146
1
147
0.08
148
0
71
0
72
0
73
0
74
1
75
0
76
0
77
0
78
0
79
0
170
0
171
2
172
0
173
0
174
0
175
0
176
0
177
0
178
0
179
0
271
4
272
4
273
2
274
2
275
0
276
0
277
2
278
46
279
0
280
0
281
0
282
0
283
1
284
0
285
0
286
0
288
0
289
3
340
Standard
341

371
-2
372
-2
0
ENDTAB
0
TABLE
2
BLOCK_RECORD
5
1
330
0
100
AcDbSymbolTable
70
2
0
BLOCK_RECORD
5
1F
330
1
100
AcDbSymbolTableRecord
100
AcDbBlockTableRecord
2
*Model_Space
70
0
280
1
281
0
0
BLOCK_RECORD
5
1E
330
1
100
AcDbSymbolTableRecord
100
AcDbBlockTableRecord
2
*Paper_Space
70
0
280
1
281
0
0
ENDTAB
0
ENDSEC
0
SECTION
2
BLOCKS
0
BLOCK
5
20
330
1F
100
AcDbEntity
8
0
100
AcDbBlockBegin
2
*Model_Space
70
0
10
0
20
0
30
0
3
*Model_Space
1

0
ENDBLK
5
21
330
1F
100
AcDbEntity
8
0
100
AcDbBlockEnd
0
BLOCK
5
1C
330
1B
100
AcDbEntity
8
0
100
AcDbBlockBegin
2
*Paper_Space
70
0
10
0
20
0
30
0
3
*Paper_Space
1

0
ENDBLK
5
1D
330
1F
100
AcDbEntity
8
0
100
AcDbBlockEnd
0
ENDSEC
0
SECTION
2
ENTITIES
0
LINE
5
47
100
AcDbEntity
8
SIG0015PB_AMPLIACION
6
ByLayer
62
256
370
-1
100
AcDbLine
10
-14.2797308403
20
-188.661110544
11
-13.5340300438
21
-188.661110202
0
LINE
5
48
100
AcDbEntity
8
SIG0015PB_AMPLIACION
6
ByLayer
62
256
370
-1
100
AcDbLine
10
33.5248947557
20
-202.561127651
11
32.1491438621
21
-202.561127651
0
LINE
5
49
100
AcDbEntity
8
SIG0015PB_AMPLIACION
6
ByLayer
62
256
370
-1
100
AcDbLine
10
33.5248947557
20
-202.261127651
11
32.1491438621
21
-202.261127651
0
LINE
5
4A
100
AcDbEntity
8
SIG0015PB_AMPLIACION
6
ByLayer
62
256
370
-1
100
AcDbLine
10
14.0225429709
20
-188.961110386
11
14.0549316704
21
-188.961111016
0
LINE
5
4B
100
AcDbEntity
8
SIG0015PB_AMPLIACION
6
ByLayer
62
256
370
-1
100
AcDbLine
10
26.4460216701
20
-188.961110724
11
26.5960519526
21
-188.961110724
0
LINE
5
4C
100
AcDbEntity
8
SIG0015PB_AMPLIACION
6
ByLayer
62
256
370
-1
100
AcDbLine
10
28.3460216701
20
-188.961110724
11
28.4460216701
21
-188.961110724
0
LINE
5
4D
100
AcDbEntity
8
SIG0015PB_AMPLIACION
6
ByLayer
62
256
370
-1
100
AcDbLine
10
28.446021809
20
-199.202714191
11
28.4460220872
21
-192.97906141
0
LINE
5
4E
100
AcDbEntity
8
SIG0015PB_AMPLIACION
6
ByLayer
62
256
370
-1
100
AcDbLine
10
28.4460221509
20
-191.55406141
11
28.446022269
21
-188.961110724
0
LINE
5
4F
100
AcDbEntity
8
SIG0015PB_AMPLIACION
6
ByLayer
62
256
370
-1
100
AcDbLine
10
28.5960216701
20
-201.961116054
11
28.5960216701
21
-200.952683909
0
LINE
5
50
100
AcDbEntity
8
SIG0015PB_AMPLIACION
6
ByLayer
62
256
370
-1
100
AcDbLine
10
28.5960216701
20
-199.202714191
11
28.5960216701
21
-193.18863444
0
LINE
5
51
100
AcDbEntity
8
SIG0015PB_AMPLIACION
6
ByLayer
62
256
370
-1
100
AcDbLine
10
28.5960218855
20
-191.55406141
11
28.596022269
21
-188.961110724
0
LINE
5
52
100
AcDbEntity
8
SIG0015PB_AMPLIACION
6
ByLayer
62
256
370
-1
100
AcDbLine
10
36.6506456492
20
-193.03863444
11
31.5453065357
21
-193.03863444
0
LINE
5
53
100
AcDbEntity
8
SIG0015PB_AMPLIACION
6
ByLayer
62
256
370
-1
100
AcDbLine
10
30.1203065357
20
-193.03863444
11
28.5960216701
21
-193.03863444
0
LINE
5
54
100
AcDbEntity
8
SIG0015PB_AMPLIACION
6
ByLayer
62
256
370
-1
100
AcDbLine
10
36.4504176461
20
-193.18863444
11
32.1491438621
21
-193.18863444
0
LINE
5
55
100
AcDbEntity
8
SIG0015PB_AMPLIACION
6
ByLayer
62
256
370
-1
100
AcDbLine
10
31.6491438621
20
-193.18863444
11
31.5453065357
21
-193.18863444
0
LINE
5
56
100
AcDbEntity
8
SIG0015PB_AMPLIACION
6
ByLayer
62
256
370
-1
100
AcDbLine
10
30.1203065357
20
-193.18863444
11
28.5960216701
21
-193.18863444
0
LINE
5
57
100
AcDbEntity
8
SIG0015PB_AMPLIACION
6
ByLayer
62
256
370
-1
100
AcDbLine
10
26.5960519526
20
-188.661110724
11
26.5960519526
21
-188.961110724
0
LINE
5
58
100
AcDbEntity
8
SIG0015PB_AMPLIACION
6
ByLayer
62
256
370
-1
100
AcDbLine
10
28.3460216701
20
-188.661110724
11
28.3460216701
21
-188.961110724
0
LINE
5
59
100
AcDbEntity
8
SIG0015PB_AMPLIACION
6
ByLayer
62
256
370
-1
100
AcDbLine
10
29.6491438621
20
-188.661111767
11
29.6491438621
21
-188.961111767
0
LINE
5
5A
100
AcDbEntity
8
SIG0015PB_AMPLIACION
6
ByLayer
62
256
370
-1
100
AcDbLine
10
26.4460216701
20
-190.822946181
11
26.4460216701
21
-188.961110724
0
LINE
5
5B
100
AcDbEntity
8
SIG0015PB_AMPLIACION
6
ByLayer
62
256
370
-1
100
AcDbLine
10
26.2960216701
20
-194.134780602
11
26.2960216701
21
-191.847946183
0
LINE
5
5C
100
AcDbEntity
8
SIG0015PB_AMPLIACION
6
ByLayer
62
256
370
-1
100
AcDbLine
10
16.8076468195
20
-196.634781626
11
15.5076467544
21
-196.634781642
0
LINE
5
5D
100
AcDbEntity
8
SIG0015PB_AMPLIACION
6
ByLayer
62
256
370
-1
100
AcDbLine
10
15.3576467544
20
-196.634781642
11
15.1995860385
21
-196.634781642
0
LINE
5
5E
100
AcDbEntity
8
SIG0015PB_AMPLIACION
6
ByLayer
62
256
370
-1
100
AcDbLine
10
13.7745860385
20
-196.634781642
11
13.4245860385
21
-196.634781642
0
LINE
5
5F
100
AcDbEntity
8
SIG0015PB_AMPLIACION
6
ByLayer
62
256
370
-1
100
AcDbLine
10
11.9995860385
20
-196.634781642
11
11.0225455354
21
-196.634781642
0
LINE
5
60
100
AcDbEntity
8
SIG0015PB_AMPLIACION
6
ByLayer
62
256
370
-1
100
AcDbLine
10
26.4460216701
20
-194.634781642
11
19.8674316704
21
-194.634781642
0
LINE
5
61
100
AcDbEntity
8
SIG0015PB_AMPLIACION
6
ByLayer
62
256
370
-1
100
AcDbLine
10
18.4424316704
20
-194.634781642
11
15.5076467544
21
-194.634781642
0
LINE
5
62
100
AcDbEntity
8
SIG0015PB_AMPLIACION
6
ByLayer
62
256
370
-1
100
AcDbLine
10
12.1758150145
20
-194.634781642
11
11.0225455354
21
-194.634781642
0
LINE
5
63
100
AcDbEntity
8
SIG0015PB_AMPLIACION
6
ByLayer
62
256
370
-1
100
AcDbLine
10
24.2549316704
20
-194.484781642
11
23.105883635
21
-194.484781642
0
LINE
5
64
100
AcDbEntity
8
SIG0015PB_AMPLIACION
6
ByLayer
62
256
370
-1
100
AcDbLine
10
20.005883635
20
-194.484781642
11
19.8674316704
21
-194.484781642
0
LINE
5
65
100
AcDbEntity
8
SIG0015PB_AMPLIACION
6
ByLayer
62
256
370
-1
100
AcDbLine
10
18.4424316704
20
-194.484781642
11
18.2687426467
21
-194.484781642
0
LINE
5
66
100
AcDbEntity
8
SIG0015PB_AMPLIACION
6
ByLayer
62
256
370
-1
100
AcDbLine
10
15.2995860385
20
-196.784781642
11
15.1995860385
21
-196.784781642
0
LINE
5
67
100
AcDbEntity
8
SIG0015PB_AMPLIACION
6
ByLayer
62
256
370
-1
100
AcDbLine
10
13.7745860385
20
-196.784781642
11
13.6745860385
21
-196.784781642
0
LINE
5
68
100
AcDbEntity
8
SIG0015PB_AMPLIACION
6
ByLayer
62
256
370
-1
100
AcDbLine
10
13.5245860385
20
-196.784781642
11
13.4245860385
21
-196.784781642
0
LINE
5
69
100
AcDbEntity
8
SIG0015PB_AMPLIACION
6
ByLayer
62
256
370
-1
100
AcDbLine
10
11.9995860385
20
-196.784781642
11
11.9025455354
21
-196.784780598
0
LINE
5
6A
100
AcDbEntity
8
SIG0015PB_AMPLIACION
6
ByLayer
62
256
370
-1
100
AcDbLine
10
15.5076467544
20
-196.634781642
11
15.5076467544
21
-196.509781642
0
LINE
5
6B
100
AcDbEntity
8
SIG0015PB_AMPLIACION
6
ByLayer
62
256
370
-1
100
AcDbLine
10
15.5076467544
20
-194.759811924
11
15.5076467544
21
-194.634781642
0
LINE
5
6C
100
AcDbEntity
8
SIG0015PB_AMPLIACION
6
ByLayer
62
256
370
-1
100
AcDbLine
10
15.3576467544
20
-196.634781642
11
15.3576467544
21
-196.509781642
0
LINE
5
6D
100
AcDbEntity
8
SIG0015PB_AMPLIACION
6
ByLayer
62
256
370
-1
100
AcDbLine
10
15.3576467544
20
-194.759811924
11
15.3576467544
21
-194.634781642
0
LINE
5
6E
100
AcDbEntity
8
SIG0015PB_AMPLIACION
6
ByLayer
62
256
370
-1
100
AcDbLine
10
15.5076467544
20
-196.509781642
11
15.3576467544
21
-196.509781642
0
LINE
5
6F
100
AcDbEntity
8
SIG0015PB_AMPLIACION
6
ByLayer
62
256
370
-1
100
AcDbLine
10
15.5076467544
20
-194.759811924
11
15.3576467544
21
-194.759811924
0
LINE
5
70
100
AcDbEntity
8
SIG0015PB_AMPLIACION
6
ByLayer
62
256
370
-1
100
AcDbLine
10
16.5076467544
20
-202.06075769
11
16.5076467544
21
-197.134780598
0
LINE
5
71
100
AcDbEntity
8
SIG0015PB_AMPLIACION
6
ByLayer
62
256
370
-1
100
AcDbLine
10
13.6745860385
20
-202.261127629
11
13.6745860385
21
-196.784781642
0
LINE
5
72
100
AcDbEntity
8
SIG0015PB_AMPLIACION
6
ByLayer
62
256
370
-1
100
AcDbLine
10
13.5245860385
20
-202.261126154
11
13.5245860385
21
-196.784781642
0
LINE
5
73
100
AcDbEntity
8
SIG0015PB_AMPLIACION
6
ByLayer
62
256
370
-1
100
AcDbLine
10
19.8674316704
20
-194.484781642
11
19.8674316704
21
-194.634781642
0
LINE
5
74
100
AcDbEntity
8
SIG0015PB_AMPLIACION
6
ByLayer
62
256
370
-1
100
AcDbLine
10
18.4424316704
20
-194.484781642
11
18.4424316704
21
-194.634781642
0
LINE
5
75
100
AcDbEntity
8
SIG0015PB_AMPLIACION
6
ByLayer
62
256
370
-1
100
AcDbLine
10
15.1995860385
20
-196.784781642
11
15.1995860385
21
-196.634781642
0
LINE
5
76
100
AcDbEntity
8
SIG0015PB_AMPLIACION
6
ByLayer
62
256
370
-1
100
AcDbLine
10
13.7745860385
20
-196.784781642
11
13.7745860385
21
-196.634781642
0
LINE
5
77
100
AcDbEntity
8
SIG0015PB_AMPLIACION
6
ByLayer
62
256
370
-1
100
AcDbLine
10
13.8725454719
20
-194.634781642
11
13.8725454719
21
-193.811110202
0
LINE
5
78
100
AcDbEntity
8
SIG0015PB_AMPLIACION
6
ByLayer
62
256
370
-1
100
AcDbLine
10
14.0225429709
20
-194.134780629
11
14.0225429709
21
-188.961110206
0
LINE
5
79
100
AcDbEntity
8
SIG0015PB_AMPLIACION
6
ByLayer
62
256
370
-1
100
AcDbLine
10
11.1725455354
20
-200.47247561
11
11.1725455354
21
-202.061127648
0
LINE
5
7A
100
AcDbEntity
8
SIG0015PB_AMPLIACION
6
ByLayer
62
256
370
-1
100
AcDbLine
10
11.9995860385
20
-196.784781642
11
11.9995860385
21
-196.634781642
0
LINE
5
7B
100
AcDbEntity
8
SIG0015PB_AMPLIACION
6
ByLayer
62
256
370
-1
100
AcDbLine
10
13.4245860385
20
-196.784781642
11
13.4245860385
21
-196.634781642
0
LINE
5
7C
100
AcDbEntity
8
SIG0015PB_AMPLIACION
6
ByLayer
62
256
370
-1
100
AcDbLine
10
18.2326468195
20
-196.784781626
11
18.2326468195
21
-196.634781626
0
LINE
5
7D
100
AcDbEntity
8
SIG0015PB_AMPLIACION
6
ByLayer
62
256
370
-1
100
AcDbLine
10
16.8076468195
20
-196.784781626
11
16.8076468195
21
-196.634781626
0
LINE
5
7E
100
AcDbEntity
8
SIG0015PB_AMPLIACION
6
ByLayer
62
256
370
-1
100
AcDbLine
10
8.37584279565
20
-188.661110202
11
8.37584279565
21
-188.961110202
0
LINE
5
7F
100
AcDbEntity
8
SIG0015PB_AMPLIACION
6
ByLayer
62
256
370
-1
100
AcDbLine
10
10.1758125131
20
-188.661110202
11
10.1758125131
21
-188.961110202
0
LINE
5
80
100
AcDbEntity
8
SIG0015PB_AMPLIACION
6
ByLayer
62
256
370
-1
100
AcDbLine
10
-13.5340300438
20
-188.911110202
11
-13.5340300438
21
-188.661110202
0
LINE
5
81
100
AcDbEntity
8
SIG0015PB_AMPLIACION
6
ByLayer
62
256
370
-1
100
AcDbLine
10
-13.5340300438
20
-188.961110202
11
-13.5340300438
21
-188.661110202
0
LINE
5
82
100
AcDbEntity
8
SIG0015PB_AMPLIACION
6
ByLayer
62
256
370
-1
100
AcDbLine
10
-8.5340300438
20
-188.661110202
11
-2.94769955904
21
-188.661110207
0
LINE
5
83
100
AcDbEntity
8
SIG0015PB_AMPLIACION
6
ByLayer
62
256
370
-1
100
AcDbLine
10
5.30230044096
20
-188.661111765
11
8.37584279565
21
-188.661110202
0
LINE
5
84
100
AcDbEntity
8
SIG0015PB_AMPLIACION
6
ByLayer
62
256
370
-1
100
AcDbLine
10
-8.90829580597
20
-202.561125107
11
-7.87269955904
21
-202.56112524
0
LINE
5
85
100
AcDbEntity
8
SIG0015PB_AMPLIACION
6
ByLayer
62
256
370
-1
100
AcDbLine
10
-7.12269955904
20
-202.561125336
11
-6.37269955904
21
-202.561125432
0
LINE
5
86
100
AcDbEntity
8
SIG0015PB_AMPLIACION
6
ByLayer
62
256
370
-1
100
AcDbLine
10
-5.62269955904
20
-202.561125527
11
-4.87269955904
21
-202.561125623
0
LINE
5
87
100
AcDbEntity
8
SIG0015PB_AMPLIACION
6
ByLayer
62
256
370
-1
100
AcDbLine
10
-4.12269955904
20
-202.561125719
11
-3.37269955904
21
-202.561125815
0
LINE
5
88
100
AcDbEntity
8
SIG0015PB_AMPLIACION
6
ByLayer
62
256
370
-1
100
AcDbLine
10
-2.62269955904
20
-202.561125911
11
-1.87269955904
21
-202.561126007
0
LINE
5
89
100
AcDbEntity
8
SIG0015PB_AMPLIACION
6
ByLayer
62
256
370
-1
100
AcDbLine
10
-1.12269955904
20
-202.561126103
11
-0.372699559043
21
-202.561126199
0
LINE
5
8A
100
AcDbEntity
8
SIG0015PB_AMPLIACION
6
ByLayer
62
256
370
-1
100
AcDbLine
10
0.377300440957
20
-202.561126295
11
2.12730044096
21
-202.561126512
0
LINE
5
8B
100
AcDbEntity
8
SIG0015PB_AMPLIACION
6
ByLayer
62
256
370
-1
100
AcDbLine
10
2.87730044096
20
-202.561126608
11
3.62730044096
21
-202.561126704
0
LINE
5
8C
100
AcDbEntity
8
SIG0015PB_AMPLIACION
6
ByLayer
62
256
370
-1
100
AcDbLine
10
4.37730044096
20
-202.5611268
11
5.12730044096
21
-202.561126896
0
LINE
5
8D
100
AcDbEntity
8
SIG0015PB_AMPLIACION
6
ByLayer
62
256
370
-1
100
AcDbLine
10
5.87730044096
20
-202.561126992
11
6.62730044096
21
-202.561127088
0
LINE
5
8E
100
AcDbEntity
8
SIG0015PB_AMPLIACION
6
ByLayer
62
256
370
-1
100
AcDbLine
10
7.37730044096
20
-202.561127184
11
8.12730044096
21
-202.561127279
0
LINE
5
8F
100
AcDbEntity
8
SIG0015PB_AMPLIACION
6
ByLayer
62
256
370
-1
100
AcDbLine
10
8.87730044096
20
-202.561127375
11
9.62730044096
21
-202.561127471
0
LINE
5
90
100
AcDbEntity
8
SIG0015PB_AMPLIACION
6
ByLayer
62
256
370
-1
100
AcDbLine
10
26.2960216701
20
-202.261126607
11
26.2960216701
21
-202.025518763
0
LINE
5
91
100
AcDbEntity
8
SIG0015PB_AMPLIACION
6
ByLayer
62
256
370
-1
100
AcDbLine
10
26.4460216704
20
-196.634780598
11
26.1960216701
21
-196.634780598
0
LINE
5
92
100
AcDbEntity
8
SIG0015PB_AMPLIACION
6
ByLayer
62
256
370
-1
100
AcDbLine
10
26.2971169604
20
-202.561122754
11
25.5530877895
21
-202.561126578
0
LINE
5
93
100
AcDbEntity
8
SIG0015PB_AMPLIACION
6
ByLayer
62
256
370
-1
100
AcDbLine
10
24.8030877895
20
-202.561126579
11
24.0530877895
21
-202.561126579
0
LINE
5
94
100
AcDbEntity
8
SIG0015PB_AMPLIACION
6
ByLayer
62
256
370
-1
100
AcDbLine
10
23.7214269173
20
-202.261126604
11
23.097959911
21
-202.261126604
0
LINE
5
95
100
AcDbEntity
8
SIG0015PB_AMPLIACION
6
ByLayer
62
256
370
-1
100
AcDbLine
10
24.8030877895
20
-202.561126579
11
24.0530877895
21
-202.561126579
0
LINE
5
96
100
AcDbEntity
8
SIG0015PB_AMPLIACION
6
ByLayer
62
256
370
-1
100
AcDbLine
10
26.2960216701
20
-202.261126604
11
25.5530877895
21
-202.261126604
0
LINE
5
97
100
AcDbEntity
8
SIG0015PB_AMPLIACION
6
ByLayer
62
256
370
-1
100
AcDbLine
10
23.3030877895
20
-202.261126604
11
23.0979598819
21
-202.261126604
0
LINE
5
98
100
AcDbEntity
8
SIG0015PB_AMPLIACION
6
ByLayer
62
256
370
-1
100
AcDbLine
10
24.7479598519
20
-202.261126605
11
24.7479598579
21
-202.086126603
0
LINE
5
99
100
AcDbEntity
8
SIG0015PB_AMPLIACION
6
ByLayer
62
256
370
-1
100
AcDbLine
10
24.6479598829
20
-202.086126605
11
24.7479598829
21
-202.086126603
0
LINE
5
9A
100
AcDbEntity
8
SIG0015PB_AMPLIACION
6
ByLayer
62
256
370
-1
100
AcDbLine
10
24.6479598829
20
-202.086126605
11
24.6479598814
21
-202.261126605
0
LINE
5
9B
100
AcDbEntity
8
SIG0015PB_AMPLIACION
6
ByLayer
62
256
370
-1
100
AcDbLine
10
25.5530877895
20
-202.261126604
11
25.5530877895
21
-202.561126604
0
LINE
5
9C
100
AcDbEntity
8
SIG0015PB_AMPLIACION
6
ByLayer
62
256
370
-1
100
AcDbLine
10
24.8030877895
20
-202.261126604
11
24.8030877895
21
-202.561126604
0
LINE
5
9D
100
AcDbEntity
8
SIG0015PB_AMPLIACION
6
ByLayer
62
256
370
-1
100
AcDbLine
10
24.0530877895
20
-202.261126604
11
24.0530877895
21
-202.561126604
0
LINE
5
9E
100
AcDbEntity
8
SIG0015PB_AMPLIACION
6
ByLayer
62
256
370
-1
100
AcDbLine
10
23.3030877895
20
-202.261126604
11
23.3030877895
21
-202.561126604
0
LINE
5
9F
100
AcDbEntity
8
SIG0015PB_AMPLIACION
6
ByLayer
62
256
370
-1
100
AcDbLine
10
24.0530877895
20
-202.261126604
11
24.6479598814
21
-202.261126605
0
LINE
5
A0
100
AcDbEntity
8
SIG0015PB_AMPLIACION
6
ByLayer
62
256
370
-1
100
AcDbLine
10
24.6479598871
20
-201.111126605
11
23.097959917
21
-201.111126604
0
LINE
5
A1
100
AcDbEntity
8
SIG0015PB_AMPLIACION
6
ByLayer
62
256
370
-1
100
AcDbLine
10
24.647959884
20
-201.211126605
11
23.097959914
21
-201.211126604
0
LINE
5
A2
100
AcDbEntity
8
SIG0015PB_AMPLIACION
6
ByLayer
62
256
370
-1
100
AcDbLine
10
26.4460216394
20
-196.634780598
11
24.49089474
21
-196.634780598
0
LINE
5
A3
100
AcDbEntity
8
SIG0015PB_AMPLIACION
6
ByLayer
62
256
370
-1
100
AcDbLine
10
24.5979600919
20
-196.784780597
11
24.49089474
21
-196.784780598
0
LINE
5
A4
100
AcDbEntity
8
SIG0015PB_AMPLIACION
6
ByLayer
62
256
370
-1
100
AcDbLine
10
24.6479599116
20
-200.23612662
11
24.6479599069
21
-199.592514261
0
LINE
5
A5
100
AcDbEntity
8
SIG0015PB_AMPLIACION
6
ByLayer
62
256
370
-1
100
AcDbLine
10
24.7479598829
20
-201.261126603
11
24.7479598835
21
-201.061126606
0
LINE
5
A6
100
AcDbEntity
8
SIG0015PB_AMPLIACION
6
ByLayer
62
256
370
-1
100
AcDbLine
10
23.66589474
20
-196.634780599
11
23.66589474
21
-196.784780599
0
LINE
5
A7
100
AcDbEntity
8
SIG0015PB_AMPLIACION
6
ByLayer
62
256
370
-1
100
AcDbLine
10
23.0979599369
20
-199.59251426
11
24.6479599069
21
-199.592514261
0
LINE
5
A8
100
AcDbEntity
8
SIG0015PB_AMPLIACION
6
ByLayer
62
256
370
-1
100
AcDbLine
10
24.6479598829
20
-201.261126605
11
24.7479598829
21
-201.261126603
0
LINE
5
A9
100
AcDbEntity
8
SIG0015PB_AMPLIACION
6
ByLayer
62
256
370
-1
100
AcDbLine
10
24.6979600919
20
-199.49251426
11
26.2960216701
21
-199.49251426
0
LINE
5
AA
100
AcDbEntity
8
SIG0015PB_AMPLIACION
6
ByLayer
62
256
370
-1
100
AcDbLine
10
24.7479600049
20
-199.592514261
11
26.2960216701
21
-199.59251426
0
LINE
5
AB
100
AcDbEntity
8
SIG0015PB_AMPLIACION
6
ByLayer
62
256
370
-1
100
AcDbLine
10
24.6479598848
20
-200.236126605
11
24.7479598848
21
-200.236126606
0
LINE
5
AC
100
AcDbEntity
8
SIG0015PB_AMPLIACION
6
ByLayer
62
256
370
-1
100
AcDbLine
10
24.6479598848
20
-201.061126605
11
24.7479598835
21
-201.061126606
0
LINE
5
AD
100
AcDbEntity
8
SIG0015PB_AMPLIACION
6
ByLayer
62
256
370
-1
100
AcDbLine
10
23.66589474
20
-196.784780599
11
23.66589474
21
-196.634780599
0
LINE
5
AE
100
AcDbEntity
8
SIG0015PB_AMPLIACION
6
ByLayer
62
256
370
-1
100
AcDbLine
10
26.2960216701
20
-201.100518763
11
26.4460216701
21
-201.100518763
0
LINE
5
AF
100
AcDbEntity
8
SIG0015PB_AMPLIACION
6
ByLayer
62
256
370
-1
100
AcDbLine
10
26.2960216701
20
-202.025518763
11
26.446021724
21
-202.025518763
0
LINE
5
B0
100
AcDbEntity
8
SIG0015PB_AMPLIACION
6
ByLayer
62
256
370
-1
100
AcDbLine
10
24.6979600919
20
-199.49251426
11
24.6979600919
21
-196.784780598
0
LINE
5
B1
100
AcDbEntity
8
SIG0015PB_AMPLIACION
6
ByLayer
62
256
370
-1
100
AcDbLine
10
24.5979600919
20
-199.492514208
11
24.5979600919
21
-196.784780597
0
LINE
5
B2
100
AcDbEntity
8
SIG0015PB_AMPLIACION
6
ByLayer
62
256
370
-1
100
AcDbLine
10
23.097959917
20
-201.111126604
11
23.097959946
21
-199.59251426
0
LINE
5
B3
100
AcDbEntity
8
SIG0015PB_AMPLIACION
6
ByLayer
62
256
370
-1
100
AcDbLine
10
23.097959914
20
-201.211126604
11
23.097959911
21
-202.261126604
0
LINE
5
B4
100
AcDbEntity
8
SIG0015PB_AMPLIACION
6
ByLayer
62
256
370
-1
100
AcDbLine
10
24.647959884
20
-201.211126605
11
24.6479598828
21
-201.261126605
0
LINE
5
B5
100
AcDbEntity
8
SIG0015PB_AMPLIACION
6
ByLayer
62
256
370
-1
100
AcDbLine
10
24.6479598871
20
-201.111126605
11
24.6479598848
21
-201.061126605
0
LINE
5
B6
100
AcDbEntity
8
SIG0015PB_AMPLIACION
6
ByLayer
62
256
370
-1
100
AcDbLine
10
24.7479598816
20
-200.236126622
11
24.7479600049
21
-199.592514261
0
LINE
5
B7
100
AcDbEntity
8
SIG0015PB_AMPLIACION
6
ByLayer
62
256
370
-1
100
AcDbLine
10
24.5979599655
20
-199.49251426
11
23.0979599829
21
-199.49251426
0
LINE
5
B8
100
AcDbEntity
8
SIG0015PB_AMPLIACION
6
ByLayer
62
256
370
-1
100
AcDbLine
10
26.2960216701
20
-199.49251426
11
26.2960216701
21
-198.48251426
0
LINE
5
B9
100
AcDbEntity
8
SIG0015PB_AMPLIACION
6
ByLayer
62
256
370
-1
100
AcDbLine
10
23.66589474
20
-196.784780598
11
23.6658947416
21
-196.634780598
0
LINE
5
BA
100
AcDbEntity
8
SIG0015PB_AMPLIACION
6
ByLayer
62
256
370
-1
100
AcDbLine
10
24.49089474
20
-196.784780598
11
24.4908947416
21
-196.634780598
0
LINE
5
BB
100
AcDbEntity
8
SIG0015PB_AMPLIACION
6
ByLayer
62
256
370
-1
100
AcDbLine
10
32.1491438621
20
-207.311116054
11
28.5676446392
21
-207.311116054
0
LINE
5
BC
100
AcDbEntity
8
SIG0015PB_AMPLIACION
6
ByLayer
62
256
370
-1
100
AcDbLine
10
31.8491458661
20
-202.560333521
11
31.8491459769
21
-204.211116054
0
LINE
5
BD
100
AcDbEntity
8
SIG0015PB_AMPLIACION
6
ByLayer
62
256
370
-1
100
AcDbLine
10
32.1491438621
20
-207.311116054
11
32.1491438621
21
-205.211116054
0
LINE
5
BE
100
AcDbEntity
8
SIG0015PB_AMPLIACION
6
ByLayer
62
256
370
-1
100
AcDbLine
10
32.1491438621
20
-204.211116054
11
32.1491438621
21
-202.561127651
0
LINE
5
BF
100
AcDbEntity
8
SIG0015PB_AMPLIACION
6
ByLayer
62
256
370
-1
100
AcDbLine
10
26.2971169604
20
-202.561122754
11
26.2971170762
21
-202.743712037
0
LINE
5
C0
100
AcDbEntity
8
SIG0015PB_AMPLIACION
6
ByLayer
62
256
370
-1
100
AcDbLine
10
26.2971170762
20
-206.143712037
11
26.2971170956
21
-207.311116054
0
LINE
5
C1
100
AcDbEntity
8
SIG0015PB_AMPLIACION
6
ByLayer
62
256
370
-1
100
AcDbLine
10
23.3030877895
20
-202.561126604
11
21.2049316704
21
-202.561127052
0
LINE
5
C2
100
AcDbEntity
8
SIG0015PB_AMPLIACION
6
ByLayer
62
256
370
-1
100
AcDbLine
10
19.4049316704
20
-202.561127441
11
18.6549316704
21
-202.561127627
0
LINE
5
C3
100
AcDbEntity
8
SIG0015PB_AMPLIACION
6
ByLayer
62
256
370
-1
100
AcDbLine
10
16.8549316704
20
-202.561127629
11
15.8549316704
21
-202.561127629
0
LINE
5
C4
100
AcDbEntity
8
SIG0015PB_AMPLIACION
6
ByLayer
62
256
370
-1
100
AcDbLine
10
16.8549316704
20
-202.261127648
11
16.8549316704
21
-202.561127194
0
LINE
5
C5
100
AcDbEntity
8
SIG0015PB_AMPLIACION
6
ByLayer
62
256
370
-1
100
AcDbLine
10
18.6549316704
20
-202.261127648
11
18.6549316704
21
-202.561127194
0
LINE
5
C6
100
AcDbEntity
8
SIG0015PB_AMPLIACION
6
ByLayer
62
256
370
-1
100
AcDbLine
10
11.5025455354
20
-202.261127648
11
11.5025455354
21
-202.061127648
0
LINE
5
C7
100
AcDbEntity
8
SIG0015PB_AMPLIACION
6
ByLayer
62
256
370
-1
100
AcDbLine
10
13.3049316704
20
-202.261126148
11
13.5245860385
21
-202.261126154
0
LINE
5
C8
100
AcDbEntity
8
SIG0015PB_AMPLIACION
6
ByLayer
62
256
370
-1
100
AcDbLine
10
13.3049316704
20
-202.56112615
11
14.0549316704
21
-202.56112615
0
LINE
5
C9
100
AcDbEntity
8
SIG0015PB_AMPLIACION
6
ByLayer
62
256
370
-1
100
AcDbLine
10
11.5025455354
20
-202.061127648
11
11.1725455354
21
-202.061127648
0
LINE
5
CA
100
AcDbEntity
8
SIG0015PB_AMPLIACION
6
ByLayer
62
256
370
-1
100
AcDbLine
10
11.5049316704
20
-202.561127218
11
11.0225455354
21
-202.561127651
0
LINE
5
CB
100
AcDbEntity
8
SIG0015PB_AMPLIACION
6
ByLayer
62
256
370
-1
100
AcDbLine
10
36.9506456492
20
-194.551165904
11
36.9506456492
21
-195.261165904
0
LINE
5
CC
100
AcDbEntity
8
SIG0015PB_AMPLIACION
6
ByLayer
62
256
370
-1
100
AcDbLine
10
36.9506456492
20
-195.961165904
11
36.9506456492
21
-196.671165904
0
LINE
5
CD
100
AcDbEntity
8
SIG0015PB_AMPLIACION
6
ByLayer
62
256
370
-1
100
AcDbLine
10
36.6506653197
20
-194.551165904
11
36.9506653197
21
-194.551165904
0
LINE
5
CE
100
AcDbEntity
8
SIG0015PB_AMPLIACION
6
ByLayer
62
256
370
-1
100
AcDbLine
10
36.6506653197
20
-195.261165904
11
36.9506456492
21
-195.261165904
0
LINE
5
CF
100
AcDbEntity
8
SIG0015PB_AMPLIACION
6
ByLayer
62
256
370
-1
100
AcDbLine
10
36.6506653197
20
-195.961165904
11
36.9506456492
21
-195.961165904
0
LINE
5
D0
100
AcDbEntity
8
SIG0015PB_AMPLIACION
6
ByLayer
62
256
370
-1
100
AcDbLine
10
36.6506653197
20
-196.671165904
11
36.9506653197
21
-196.671165904
0
LINE
5
D1
100
AcDbEntity
8
SIG0015PB_AMPLIACION
6
ByLayer
62
256
370
-1
100
AcDbLine
10
36.6506653197
20
-197.371165904
11
36.9506653197
21
-197.371165904
0
LINE
5
D2
100
AcDbEntity
8
SIG0015PB_AMPLIACION
6
ByLayer
62
256
370
-1
100
AcDbLine
10
36.6506456492
20
-193.03863444
11
36.6506456492
21
-192.050269125
0
LINE
5
D3
100
AcDbEntity
8
SIG0015PB_AMPLIACION
6
ByLayer
62
256
370
-1
100
AcDbLine
10
36.9506456492
20
-199.172062684
11
36.9506456492
21
-197.371165904
0
LINE
5
D4
100
AcDbEntity
8
SIG0015PB_AMPLIACION
6
ByLayer
62
256
370
-1
100
AcDbLine
10
36.9506517003
20
-193.849626777
11
36.9506517003
21
-192.050269125
0
LINE
5
D5
100
AcDbEntity
8
SIG0015PB_AMPLIACION
6
ByLayer
62
256
370
-1
100
AcDbLine
10
21.4549316704
20
-188.661110724
11
22.114972721
21
-188.661110724
0
LINE
5
D6
100
AcDbEntity
8
SIG0015PB_AMPLIACION
6
ByLayer
62
256
370
-1
100
AcDbLine
10
22.005883635
20
-188.661110724
11
22.4549316704
21
-188.661110724
0
LINE
5
D7
100
AcDbEntity
8
SIG0015PB_AMPLIACION
6
ByLayer
62
256
370
-1
100
AcDbLine
10
19.6549316704
20
-188.961110724
11
19.6549316704
21
-188.661110724
0
LINE
5
D8
100
AcDbEntity
8
SIG0015PB_AMPLIACION
6
ByLayer
62
256
370
-1
100
AcDbLine
10
21.4549316704
20
-188.961110724
11
21.4549316704
21
-188.661110724
0
LINE
5
D9
100
AcDbEntity
8
SIG0015PB_AMPLIACION
6
ByLayer
62
256
370
-1
100
AcDbLine
10
22.055883635
20
-188.961112289
11
22.4549316704
21
-188.961110724
0
LINE
5
DA
100
AcDbEntity
8
SIG0015PB_AMPLIACION
6
ByLayer
62
256
370
-1
100
AcDbLine
10
15.8549316704
20
-188.661111767
11
16.8549316704
21
-188.661111767
0
LINE
5
DB
100
AcDbEntity
8
SIG0015PB_AMPLIACION
6
ByLayer
62
256
370
-1
100
AcDbLine
10
18.6549316704
20
-188.661111767
11
19.6549316704
21
-188.661111767
0
LINE
5
DC
100
AcDbEntity
8
SIG0015PB_AMPLIACION
6
ByLayer
62
256
370
-1
100
AcDbLine
10
18.6549316704
20
-188.961111767
11
19.6549316704
21
-188.961111767
0
LINE
5
DD
100
AcDbEntity
8
SIG0015PB_AMPLIACION
6
ByLayer
62
256
370
-1
100
AcDbLine
10
24.2549316704
20
-188.661110724
11
26.5960519526
21
-188.661110724
0
LINE
5
DE
100
AcDbEntity
8
SIG0015PB_AMPLIACION
6
ByLayer
62
256
370
-1
100
AcDbLine
10
14.0549316704
20
-188.661111184
11
13.0225221657
21
-188.661113651
0
LINE
5
DF
100
AcDbEntity
8
SIG0015PB_AMPLIACION
6
ByLayer
62
256
370
-1
100
AcDbLine
10
12.0225221657
20
-188.661114033
11
11.0225455354
21
-188.661110202
0
LINE
5
E0
100
AcDbEntity
8
SIG0015PB_AMPLIACION
6
ByLayer
62
256
370
-1
100
AcDbLine
10
13.0225221657
20
-188.961113727
11
13.8725454719
21
-188.961110206
0
LINE
5
E1
100
AcDbEntity
8
SIG0015PB_AMPLIACION
6
ByLayer
62
256
370
-1
100
AcDbLine
10
31.4491438621
20
-188.661111767
11
32.4491438621
21
-188.661111767
0
LINE
5
E2
100
AcDbEntity
8
SIG0015PB_AMPLIACION
6
ByLayer
62
256
370
-1
100
AcDbLine
10
28.5960216701
20
-188.961110724
11
29.6491438621
21
-188.961111678
0
LINE
5
E3
100
AcDbEntity
8
SIG0015PB_AMPLIACION
6
ByLayer
62
256
370
-1
100
AcDbLine
10
28.3460216701
20
-188.661110724
11
29.6491438621
21
-188.661110048
0
LINE
5
E4
100
AcDbEntity
8
SIG0015PB_AMPLIACION
6
ByLayer
62
256
370
-1
100
AcDbLine
10
34.2491438621
20
-188.66111247
11
36.9506517003
21
-188.661111767
0
LINE
5
E5
100
AcDbEntity
8
SIG0015PB_AMPLIACION
6
ByLayer
62
256
370
-1
100
AcDbLine
10
-8.90830165813
20
-202.561127644
11
-11.4930982377
21
-196.598226717
0
LINE
5
E6
100
AcDbEntity
8
SIG0015PB_AMPLIACION
6
ByLayer
62
256
370
-1
100
AcDbLine
10
-12.28853925
20
-194.763213476
11
-14.8302348127
21
-188.899742847
0
LINE
5
E7
100
AcDbEntity
8
SIG0015PB_AMPLIACION
6
ByLayer
62
256
370
-1
100
AcDbLine
10
28.5960219695
20
-199.202714191
11
28.446021809
21
-199.202714191
0
LINE
5
E8
100
AcDbEntity
8
SIG0015PB_AMPLIACION
6
ByLayer
62
256
370
-1
100
AcDbLine
10
28.5960219695
20
-200.952683909
11
28.4460219695
21
-200.952683909
0
LINE
5
E9
100
AcDbEntity
8
SIG0015PB_AMPLIACION
6
ByLayer
62
256
370
-1
100
AcDbLine
10
31.5453065357
20
-193.03863444
11
31.5453065357
21
-193.18863444
0
LINE
5
EA
100
AcDbEntity
8
SIG0015PB_AMPLIACION
6
ByLayer
62
256
370
-1
100
AcDbLine
10
30.1203065357
20
-193.03863444
11
30.1203065357
21
-193.18863444
0
LINE
5
EB
100
AcDbEntity
8
SIG0015PB_AMPLIACION
6
ByLayer
62
256
370
-1
100
AcDbLine
10
28.5960216701
20
-192.97906141
11
28.4460216701
21
-192.97906141
0
LINE
5
EC
100
AcDbEntity
8
SIG0015PB_AMPLIACION
6
ByLayer
62
256
370
-1
100
AcDbLine
10
28.5960218855
20
-191.55406141
11
28.4460221509
21
-191.55406141
0
LINE
5
ED
100
AcDbEntity
8
SIG0015PB_AMPLIACION
6
ByLayer
62
256
370
-1
100
AcDbLine
10
28.5960216701
20
-193.03863444
11
28.5960216701
21
-192.97906141
0
LINE
5
EE
100
AcDbEntity
8
SIG0015PB_AMPLIACION
6
ByLayer
62
256
370
-1
100
AcDbLine
10
21.4549316704
20
-188.961110724
11
21.555883635
21
-188.961110762
0
LINE
5
EF
100
AcDbEntity
8
SIG0015PB_AMPLIACION
6
ByLayer
62
256
370
-1
100
AcDbLine
10
23.66589474
20
-196.634780599
11
18.2326468195
21
-196.634781626
0
LINE
5
F0
100
AcDbEntity
8
SIG0015PB_AMPLIACION
6
ByLayer
62
256
370
-1
100
AcDbLine
10
11.1725455354
20
-200.47247561
11
11.0225455354
21
-200.47247561
0
LINE
5
F1
100
AcDbEntity
8
SIG0015PB_AMPLIACION
6
ByLayer
62
256
370
-1
100
AcDbLine
10
11.1725454719
20
-198.47247561
11
11.0225454719
21
-198.47247561
0
LINE
5
F2
100
AcDbEntity
8
SIG0015PB_AMPLIACION
6
ByLayer
62
256
370
-1
100
AcDbLine
10
11.1725455354
20
-197.134410636
11
11.1725455354
21
-198.47247561
0
LINE
5
F3
100
AcDbEntity
8
SIG0015PB_AMPLIACION
6
ByLayer
62
256
370
-1
100
AcDbLine
10
18.2326468195
20
-196.634781626
11
18.2326468195
21
-196.784781626
0
LINE
5
F4
100
AcDbEntity
8
SIG0015PB_AMPLIACION
6
ByLayer
62
256
370
-1
100
AcDbLine
10
18.6549316704
20
-188.961110724
11
18.6549316704
21
-188.661110724
0
LINE
5
F5
100
AcDbEntity
8
SIG0015PB_AMPLIACION
6
ByLayer
62
256
370
-1
100
AcDbLine
10
16.8549316704
20
-188.961111767
11
16.8549316704
21
-188.661111767
0
LINE
5
F6
100
AcDbEntity
8
SIG0015PB_AMPLIACION
6
ByLayer
62
256
370
-1
100
AcDbLine
10
15.8549316704
20
-188.961111767
11
15.8549316704
21
-188.661111767
0
LINE
5
F7
100
AcDbEntity
8
SIG0015PB_AMPLIACION
6
ByLayer
62
256
370
-1
100
AcDbLine
10
18.6549316704
20
-188.961111767
11
18.6549316704
21
-188.661111767
0
LINE
5
F8
100
AcDbEntity
8
SIG0015PB_AMPLIACION
6
ByLayer
62
256
370
-1
100
AcDbLine
10
15.8549316704
20
-188.961109503
11
15.8549316704
21
-188.661109503
0
LINE
5
F9
100
AcDbEntity
8
SIG0015PB_AMPLIACION
6
ByLayer
62
256
370
-1
100
AcDbLine
10
14.0549316704
20
-188.961111016
11
14.0549316704
21
-188.661111184
0
LINE
5
FA
100
AcDbEntity
8
SIG0015PB_AMPLIACION
6
ByLayer
62
256
370
-1
100
AcDbLine
10
15.8549316704
20
-188.961110547
11
15.8549316704
21
-188.661111245
0
LINE
5
FB
100
AcDbEntity
8
SIG0015PB_AMPLIACION
6
ByLayer
62
256
370
-1
100
AcDbLine
10
29.6491438621
20
-188.961111678
11
29.6491438621
21
-188.661110048
0
LINE
5
FC
100
AcDbEntity
8
SIG0015PB_AMPLIACION
6
ByLayer
62
256
370
-1
100
AcDbLine
10
31.4491438621
20
-188.961111767
11
31.4491438621
21
-188.661111767
0
LINE
5
FD
100
AcDbEntity
8
SIG0015PB_AMPLIACION
6
ByLayer
62
256
370
-1
100
AcDbLine
10
32.4491438621
20
-188.961112539
11
32.4491438621
21
-188.661112539
0
LINE
5
FE
100
AcDbEntity
8
SIG0015PB_AMPLIACION
6
ByLayer
62
256
370
-1
100
AcDbLine
10
32.4491438621
20
-188.661110724
11
32.4491438621
21
-188.961110724
0
LINE
5
FF
100
AcDbEntity
8
SIG0015PB_AMPLIACION
6
ByLayer
62
256
370
-1
100
AcDbLine
10
32.4491438621
20
-188.961111986
11
32.4491438621
21
-188.661111767
0
LINE
5
100
100
AcDbEntity
8
SIG0015PB_AMPLIACION
6
ByLayer
62
256
370
-1
100
AcDbLine
10
34.2491438621
20
-188.961111986
11
34.2491438621
21
-188.661111767
0
LINE
5
101
100
AcDbEntity
8
SIG0015PB_AMPLIACION
6
ByLayer
62
256
370
-1
100
AcDbLine
10
33.5248947557
20
-202.261125835
11
33.5248947557
21
-202.561125835
0
LINE
5
102
100
AcDbEntity
8
SIG0015PB_AMPLIACION
6
ByLayer
62
256
370
-1
100
AcDbLine
10
33.5248947557
20
-202.561127651
11
33.5248947557
21
-202.261127651
0
LINE
5
103
100
AcDbEntity
8
SIG0015PB_AMPLIACION
6
ByLayer
62
256
370
-1
100
AcDbLine
10
33.5248947557
20
-202.261127651
11
33.5248947557
21
-202.561127651
0
LINE
5
104
100
AcDbEntity
8
SIG0015PB_AMPLIACION
6
ByLayer
62
256
370
-1
100
AcDbLine
10
35.3248947557
20
-202.261126607
11
35.3248947557
21
-202.561126607
0
LINE
5
105
100
AcDbEntity
8
SIG0015PB_AMPLIACION
6
ByLayer
62
256
370
-1
100
AcDbLine
10
35.3248947557
20
-202.561126607
11
36.9506456492
21
-202.561126607
0
LINE
5
106
100
AcDbEntity
8
SIG0015PB_AMPLIACION
6
ByLayer
62
256
370
-1
100
AcDbLine
10
35.3248947557
20
-202.261126607
11
36.4506456493
21
-202.261122791
0
LINE
5
107
100
AcDbEntity
8
SIG0015PB_AMPLIACION
6
ByLayer
62
256
370
-1
100
AcDbLine
10
36.6506517003
20
-190.250269125
11
36.9506517003
21
-190.250269125
0
LINE
5
108
100
AcDbEntity
8
SIG0015PB_AMPLIACION
6
ByLayer
62
256
370
-1
100
AcDbLine
10
36.9506535161
20
-190.250269125
11
36.6506535161
21
-190.250269125
0
LINE
5
109
100
AcDbEntity
8
SIG0015PB_AMPLIACION
6
ByLayer
62
256
370
-1
100
AcDbLine
10
36.6506520157
20
-190.250269125
11
36.9506524722
21
-190.250269125
0
LINE
5
10A
100
AcDbEntity
8
SIG0015PB_AMPLIACION
6
ByLayer
62
256
370
-1
100
AcDbLine
10
36.6506456492
20
-192.050269125
11
36.9506517003
21
-192.050269125
0
LINE
5
10B
100
AcDbEntity
8
SIG0015PB_AMPLIACION
6
ByLayer
62
256
370
-1
100
AcDbLine
10
36.6506456492
20
-190.250269125
11
36.9506517003
21
-190.250269125
0
LINE
5
10C
100
AcDbEntity
8
SIG0015PB_AMPLIACION
6
ByLayer
62
256
370
-1
100
AcDbLine
10
36.9506535161
20
-190.250269125
11
36.9506474651
21
-188.661111767
0
LINE
5
10D
100
AcDbEntity
8
SIG0015PB_AMPLIACION
6
ByLayer
62
256
370
-1
100
AcDbLine
10
36.6506438334
20
-200.972062684
11
36.9506438334
21
-200.972062684
0
LINE
5
10E
100
AcDbEntity
8
SIG0015PB_AMPLIACION
6
ByLayer
62
256
370
-1
100
AcDbLine
10
36.9506456492
20
-200.972062684
11
36.6506456492
21
-200.972062684
0
LINE
5
10F
100
AcDbEntity
8
SIG0015PB_AMPLIACION
6
ByLayer
62
256
370
-1
100
AcDbLine
10
36.6506441488
20
-200.972062684
11
36.9506446053
21
-200.972062684
0
LINE
5
110
100
AcDbEntity
8
SIG0015PB_AMPLIACION
6
ByLayer
62
256
370
-1
100
AcDbLine
10
36.6506456492
20
-199.172062684
11
36.9506456492
21
-199.172062684
0
LINE
5
111
100
AcDbEntity
8
SIG0015PB_AMPLIACION
6
ByLayer
62
256
370
-1
100
AcDbLine
10
36.6506456492
20
-200.972062684
11
36.9506456492
21
-200.972062684
0
LINE
5
112
100
AcDbEntity
8
SIG0015PB_AMPLIACION
6
ByLayer
62
256
370
-1
100
AcDbLine
10
36.6506455695
20
-202.061122789
11
36.6506438334
21
-200.972062684
0
LINE
5
113
100
AcDbEntity
8
SIG0015PB_AMPLIACION
6
ByLayer
62
256
370
-1
100
AcDbLine
10
36.9506456492
20
-202.561126607
11
36.9506438334
21
-200.972062684
0
LINE
5
114
100
AcDbEntity
8
SIG0015PB_AMPLIACION
6
ByLayer
62
256
370
-1
100
AcDbLine
10
14.0549316704
20
-202.261127629
11
14.0549316704
21
-202.56112615
0
LINE
5
115
100
AcDbEntity
8
SIG0015PB_AMPLIACION
6
ByLayer
62
256
370
-1
100
AcDbLine
10
13.3049316704
20
-202.26112678
11
13.3049316704
21
-202.56112615
0
LINE
5
116
100
AcDbEntity
8
SIG0015PB_AMPLIACION
6
ByLayer
62
256
370
-1
100
AcDbLine
10
15.8549316704
20
-202.261120925
11
15.8549316704
21
-202.561127629
0
LINE
5
117
100
AcDbEntity
8
SIG0015PB_AMPLIACION
6
ByLayer
62
256
370
-1
100
AcDbLine
10
11.5049316704
20
-202.261133484
11
11.5049316704
21
-202.561127218
0
LINE
5
118
100
AcDbEntity
8
SIG0015PB_AMPLIACION
6
ByLayer
62
256
370
-1
100
AcDbLine
10
13.3049316704
20
-202.261126148
11
13.3049316704
21
-202.56112615
0
LINE
5
119
100
AcDbEntity
8
SIG0015PB_AMPLIACION
6
ByLayer
62
256
370
-1
100
AcDbLine
10
11.5025455354
20
-202.261127648
11
11.5049322977
21
-202.261133484
0
LINE
5
11A
100
AcDbEntity
8
SIG0015PB_AMPLIACION
6
ByLayer
62
256
370
-1
100
AcDbLine
10
22.4549316704
20
-188.661110724
11
22.4549316704
21
-188.961110724
0
LINE
5
11B
100
AcDbEntity
8
SIG0015PB_AMPLIACION
6
ByLayer
62
256
370
-1
100
AcDbLine
10
22.4549316704
20
-188.961110634
11
22.4549316704
21
-188.661109004
0
LINE
5
11C
100
AcDbEntity
8
SIG0015PB_AMPLIACION
6
ByLayer
62
256
370
-1
100
AcDbLine
10
24.2549316704
20
-188.961110724
11
24.2549316704
21
-188.661110724
0
LINE
5
11D
100
AcDbEntity
8
SIG0015PB_AMPLIACION
6
ByLayer
62
256
370
-1
100
AcDbLine
10
24.254931672
20
-191.51858851
11
24.2549316704
21
-194.484781642
0
LINE
5
11E
100
AcDbEntity
8
SIG0015PB_AMPLIACION
6
ByLayer
62
256
370
-1
100
AcDbLine
10
24.404931672
20
-191.518588512
11
24.4049316706
21
-194.134780481
0
LINE
5
11F
100
AcDbEntity
8
SIG0015PB_AMPLIACION
6
ByLayer
62
256
370
-1
100
AcDbLine
10
25.2299316704
20
-191.697946183
11
26.2960216701
21
-191.697946183
0
LINE
5
120
100
AcDbEntity
8
SIG0015PB_AMPLIACION
6
ByLayer
62
256
370
-1
100
AcDbLine
10
25.2299316704
20
-191.847946181
11
26.2960216701
21
-191.847946183
0
LINE
5
121
100
AcDbEntity
8
SIG0015PB_AMPLIACION
6
ByLayer
62
256
370
-1
100
AcDbLine
10
24.404931672
20
-191.51858851
11
24.254931672
21
-191.51858851
0
LINE
5
122
100
AcDbEntity
8
SIG0015PB_AMPLIACION
6
ByLayer
62
256
370
-1
100
AcDbLine
10
25.2299316704
20
-191.697946181
11
25.2299316704
21
-191.847946181
0
LINE
5
123
100
AcDbEntity
8
SIG0015PB_AMPLIACION
6
ByLayer
62
256
370
-1
100
AcDbLine
10
24.404931672
20
-190.693588512
11
24.2549316704
21
-190.69358851
0
LINE
5
124
100
AcDbEntity
8
SIG0015PB_AMPLIACION
6
ByLayer
62
256
370
-1
100
AcDbLine
10
24.2549316704
20
-188.961110724
11
24.2549316704
21
-190.69358851
0
LINE
5
125
100
AcDbEntity
8
SIG0015PB_AMPLIACION
6
ByLayer
62
256
370
-1
100
AcDbLine
10
24.4049316704
20
-188.961110724
11
24.404931672
21
-190.693588512
0
LINE
5
126
100
AcDbEntity
8
SIG0015PB_AMPLIACION
6
ByLayer
62
256
370
-1
100
AcDbLine
10
-7.12269955904
20
-202.261126521
11
-6.37269955904
21
-202.261126557
0
LINE
5
127
100
AcDbEntity
8
SIG0015PB_AMPLIACION
6
ByLayer
62
256
370
-1
100
AcDbLine
10
-5.62269955904
20
-202.261126594
11
-4.87269955904
21
-202.26112663
0
LINE
5
128
100
AcDbEntity
8
SIG0015PB_AMPLIACION
6
ByLayer
62
256
370
-1
100
AcDbLine
10
-2.62269955904
20
-202.261126739
11
-1.87269955904
21
-202.261126775
0
LINE
5
129
100
AcDbEntity
8
SIG0015PB_AMPLIACION
6
ByLayer
62
256
370
-1
100
AcDbLine
10
-1.12269955904
20
-202.261126811
11
-0.372699559043
21
-202.261126848
0
LINE
5
12A
100
AcDbEntity
8
SIG0015PB_AMPLIACION
6
ByLayer
62
256
370
-1
100
AcDbLine
10
2.87730044096
20
-202.261127002
11
3.62730044096
21
-202.261127039
0
LINE
5
12B
100
AcDbEntity
8
SIG0015PB_AMPLIACION
6
ByLayer
62
256
370
-1
100
AcDbLine
10
4.37730044096
20
-202.261127075
11
5.12730044096
21
-202.261127111
0
LINE
5
12C
100
AcDbEntity
8
SIG0015PB_AMPLIACION
6
ByLayer
62
256
370
-1
100
AcDbLine
10
7.37730044096
20
-202.26112722
11
8.12730044096
21
-202.261127256
0
LINE
5
12D
100
AcDbEntity
8
SIG0015PB_AMPLIACION
6
ByLayer
62
256
370
-1
100
AcDbLine
10
8.87730044096
20
-202.261127293
11
9.62730044096
21
-202.261127329
0
LINE
5
12E
100
AcDbEntity
8
SIG0015PB_AMPLIACION
6
ByLayer
62
256
370
-1
100
AcDbLine
10
10.377300441
20
-202.261127365
11
10.5825455354
21
-202.261127377
0
LINE
5
12F
100
AcDbEntity
8
SIG0015PB_AMPLIACION
6
ByLayer
62
256
370
-1
100
AcDbLine
10
-14.2797308403
20
-188.661110544
11
-14.8302348127
21
-188.899742847
0
LINE
5
130
100
AcDbEntity
8
SIG0015PB_AMPLIACION
6
ByLayer
62
256
370
-1
100
AcDbLine
10
-11.7380352776
20
-194.524581172
11
-12.28853925
21
-194.763213476
0
LINE
5
131
100
AcDbEntity
8
SIG0015PB_AMPLIACION
6
ByLayer
62
256
370
-1
100
AcDbLine
10
-10.9425942653
20
-196.359594414
11
-11.4930982377
21
-196.598226717
0
LINE
5
132
100
AcDbEntity
8
SIG0015PB_AMPLIACION
6
ByLayer
62
256
370
-1
100
AcDbLine
10
11.5025455354
20
-188.9611102
11
11.5025455354
21
-189.161110202
0
LINE
5
133
100
AcDbEntity
8
SIG0015PB_AMPLIACION
6
ByLayer
62
256
370
-1
100
AcDbLine
10
11.5025455354
20
-189.161110202
11
11.1725455354
21
-189.161110202
0
LINE
5
134
100
AcDbEntity
8
SIG0015PB_AMPLIACION
6
ByLayer
62
256
370
-1
100
AcDbLine
10
11.1725455354
20
-189.161110202
11
11.1726054956
21
-193.661110202
0
LINE
5
135
100
AcDbEntity
8
SIG0015PB_AMPLIACION
6
ByLayer
62
256
370
-1
100
AcDbLine
10
12.0225221657
20
-188.961111612
11
11.5025455354
21
-188.9611102
0
LINE
5
136
100
AcDbEntity
8
SIG0015PB_AMPLIACION
6
ByLayer
62
256
370
-1
100
AcDbLine
10
13.8725454719
20
-193.661110202
11
13.8105269938
21
-193.661110202
0
LINE
5
137
100
AcDbEntity
8
SIG0015PB_AMPLIACION
6
ByLayer
62
256
370
-1
100
AcDbLine
10
12.8855269938
20
-193.661110202
11
11.1725455354
21
-193.661110202
0
LINE
5
138
100
AcDbEntity
8
SIG0015PB_AMPLIACION
6
ByLayer
62
256
370
-1
100
AcDbLine
10
13.8725454719
20
-193.811110202
11
13.8105269938
21
-193.811110202
0
LINE
5
139
100
AcDbEntity
8
SIG0015PB_AMPLIACION
6
ByLayer
62
256
370
-1
100
AcDbLine
10
12.8855269938
20
-193.811110202
11
12.1758749746
21
-193.811110202
0
LINE
5
13A
100
AcDbEntity
8
SIG0015PB_AMPLIACION
6
ByLayer
62
256
370
-1
100
AcDbLine
10
13.8105269938
20
-193.811110202
11
13.8105269938
21
-193.661110202
0
LINE
5
13B
100
AcDbEntity
8
SIG0015PB_AMPLIACION
6
ByLayer
62
256
370
-1
100
AcDbLine
10
12.8855269938
20
-193.811110202
11
12.8855269938
21
-193.661110202
0
LINE
5
13C
100
AcDbEntity
8
SIG0015PB_AMPLIACION
6
ByLayer
62
256
370
-1
100
AcDbLine
10
12.1758150145
20
-194.634781642
11
12.1758749746
21
-193.811110202
0
LINE
5
13D
100
AcDbEntity
8
SIG0015PB_AMPLIACION
6
ByLayer
62
256
370
-1
100
AcDbLine
10
15.3576467544
20
-194.634781642
11
13.8725454719
21
-194.634781642
0
LINE
5
13E
100
AcDbEntity
8
SIG0015PB_AMPLIACION
6
ByLayer
62
256
370
-1
100
AcDbLine
10
13.8725454719
20
-193.661110202
11
13.8725454719
21
-188.961110206
0
LINE
5
13F
100
AcDbEntity
8
SIG0015PB_AMPLIACION
6
ByLayer
62
256
370
-1
100
AcDbLine
10
14.0549316704
20
-202.261127629
11
13.6745860385
21
-202.261127629
0
LINE
5
140
100
AcDbEntity
8
SIG0015PB_AMPLIACION
6
ByLayer
62
256
370
-1
100
AcDbLine
10
15.8549322977
20
-202.261127629
11
16.2544494647
21
-202.261127629
0
LINE
5
141
100
AcDbEntity
8
SIG0015PB_AMPLIACION
6
ByLayer
62
256
370
-1
100
AcDbLine
10
16.2544494647
20
-202.261127629
11
16.2544494647
21
-202.06075769
0
LINE
5
142
100
AcDbEntity
8
SIG0015PB_AMPLIACION
6
ByLayer
62
256
370
-1
100
AcDbLine
10
16.2544494647
20
-202.06075769
11
16.5076467544
21
-202.06075769
0
LINE
5
143
100
AcDbEntity
8
SIG0015PB_AMPLIACION
6
ByLayer
62
256
370
-1
100
AcDbLine
10
16.6576467544
20
-202.06075769
11
16.7544494647
21
-202.06075769
0
LINE
5
144
100
AcDbEntity
8
SIG0015PB_AMPLIACION
6
ByLayer
62
256
370
-1
100
AcDbLine
10
16.7544494647
20
-202.06075769
11
16.7544494647
21
-202.261127648
0
LINE
5
145
100
AcDbEntity
8
SIG0015PB_AMPLIACION
6
ByLayer
62
256
370
-1
100
AcDbLine
10
16.6576467544
20
-202.06075769
11
16.6576467544
21
-197.134780598
0
LINE
5
146
100
AcDbEntity
8
SIG0015PB_AMPLIACION
6
ByLayer
62
256
370
-1
100
AcDbLine
10
18.6549316704
20
-202.261127648
11
19.4049316704
21
-202.261127648
0
LINE
5
147
100
AcDbEntity
8
SIG0015PB_AMPLIACION
6
ByLayer
62
256
370
-1
100
AcDbLine
10
21.2049316704
20
-202.261127648
11
21.555883635
21
-202.261127648
0
LINE
5
148
100
AcDbEntity
8
SIG0015PB_AMPLIACION
6
ByLayer
62
256
370
-1
100
AcDbLine
10
21.555883635
20
-202.261127648
11
21.555883635
21
-202.061126608
0
LINE
5
149
100
AcDbEntity
8
SIG0015PB_AMPLIACION
6
ByLayer
62
256
370
-1
100
AcDbLine
10
21.555883635
20
-202.061126608
11
22.055883635
21
-202.061126608
0
LINE
5
14A
100
AcDbEntity
8
SIG0015PB_AMPLIACION
6
ByLayer
62
256
370
-1
100
AcDbLine
10
22.055883635
20
-202.061126608
11
22.055883635
21
-202.261127648
0
LINE
5
14B
100
AcDbEntity
8
SIG0015PB_AMPLIACION
6
ByLayer
62
256
370
-1
100
AcDbLine
10
22.055883635
20
-202.261127648
11
22.9479598819
21
-202.261127648
0
LINE
5
14C
100
AcDbEntity
8
SIG0015PB_AMPLIACION
6
ByLayer
62
256
370
-1
100
AcDbLine
10
22.9479598819
20
-202.261127648
11
22.9479598819
21
-197.134780551
0
LINE
5
14D
100
AcDbEntity
8
SIG0015PB_AMPLIACION
6
ByLayer
62
256
370
-1
100
AcDbLine
10
16.8549316704
20
-202.261127648
11
16.7544494647
21
-202.261127648
0
LINE
5
14E
100
AcDbEntity
8
SIG0015PB_AMPLIACION
6
ByLayer
62
256
370
-1
100
AcDbLine
10
14.0225429709
20
-194.134780629
11
18.2687426467
21
-194.134780629
0
LINE
5
14F
100
AcDbEntity
8
SIG0015PB_AMPLIACION
6
ByLayer
62
256
370
-1
100
AcDbLine
10
18.2687426467
20
-194.134780629
11
18.2687426467
21
-194.484781642
0
LINE
5
150
100
AcDbEntity
8
SIG0015PB_AMPLIACION
6
ByLayer
62
256
370
-1
100
AcDbLine
10
16.8549316704
20
-188.961111767
11
16.7539797058
21
-188.961111767
0
LINE
5
151
100
AcDbEntity
8
SIG0015PB_AMPLIACION
6
ByLayer
62
256
370
-1
100
AcDbLine
10
16.7539797058
20
-188.961111767
11
16.7539797058
21
-189.161110202
0
LINE
5
152
100
AcDbEntity
8
SIG0015PB_AMPLIACION
6
ByLayer
62
256
370
-1
100
AcDbLine
10
16.7539797058
20
-189.161110202
11
16.2539797058
21
-189.161110202
0
LINE
5
153
100
AcDbEntity
8
SIG0015PB_AMPLIACION
6
ByLayer
62
256
370
-1
100
AcDbLine
10
16.2539797058
20
-189.161110202
11
16.2539797058
21
-188.96111024
0
LINE
5
154
100
AcDbEntity
8
SIG0015PB_AMPLIACION
6
ByLayer
62
256
370
-1
100
AcDbLine
10
16.2539797058
20
-188.96111024
11
15.8549316704
21
-188.961110547
0
LINE
5
155
100
AcDbEntity
8
SIG0015PB_AMPLIACION
6
ByLayer
62
256
370
-1
100
AcDbLine
10
22.055883635
20
-188.961112289
11
22.055883635
21
-189.161110724
0
LINE
5
156
100
AcDbEntity
8
SIG0015PB_AMPLIACION
6
ByLayer
62
256
370
-1
100
AcDbLine
10
22.055883635
20
-189.161110724
11
21.555883635
21
-189.161110724
0
LINE
5
157
100
AcDbEntity
8
SIG0015PB_AMPLIACION
6
ByLayer
62
256
370
-1
100
AcDbLine
10
21.555883635
20
-189.161110724
11
21.555883635
21
-188.961110762
0
LINE
5
158
100
AcDbEntity
8
SIG0015PB_AMPLIACION
6
ByLayer
62
256
370
-1
100
AcDbLine
10
24.4049316704
20
-188.961110724
11
25.9460216701
21
-188.961110724
0
LINE
5
159
100
AcDbEntity
8
SIG0015PB_AMPLIACION
6
ByLayer
62
256
370
-1
100
AcDbLine
10
25.9460216701
20
-188.961110724
11
25.9460216701
21
-189.161110724
0
LINE
5
15A
100
AcDbEntity
8
SIG0015PB_AMPLIACION
6
ByLayer
62
256
370
-1
100
AcDbLine
10
25.9460216701
20
-189.161110724
11
26.2960216701
21
-189.161110724
0
LINE
5
15B
100
AcDbEntity
8
SIG0015PB_AMPLIACION
6
ByLayer
62
256
370
-1
100
AcDbLine
10
26.2960216701
20
-189.161110724
11
26.2960216701
21
-190.822946181
0
LINE
5
15C
100
AcDbEntity
8
SIG0015PB_AMPLIACION
6
ByLayer
62
256
370
-1
100
AcDbLine
10
31.4491438621
20
-188.961111767
11
31.6490372767
21
-188.961111767
0
LINE
5
15D
100
AcDbEntity
8
SIG0015PB_AMPLIACION
6
ByLayer
62
256
370
-1
100
AcDbLine
10
31.6490372767
20
-188.961111767
11
31.6490372767
21
-189.161109127
0
LINE
5
15E
100
AcDbEntity
8
SIG0015PB_AMPLIACION
6
ByLayer
62
256
370
-1
100
AcDbLine
10
31.6490372767
20
-189.161109127
11
32.1490239552
21
-189.161109127
0
LINE
5
15F
100
AcDbEntity
8
SIG0015PB_AMPLIACION
6
ByLayer
62
256
370
-1
100
AcDbLine
10
32.1490239552
20
-189.161109127
11
32.1490772475
21
-188.96111135
0
LINE
5
160
100
AcDbEntity
8
SIG0015PB_AMPLIACION
6
ByLayer
62
256
370
-1
100
AcDbLine
10
32.1490772475
20
-188.96111135
11
32.4491438621
21
-188.961111986
0
LINE
5
161
100
AcDbEntity
8
SIG0015PB_AMPLIACION
6
ByLayer
62
256
370
-1
100
AcDbLine
10
36.4504176461
20
-193.18863444
11
36.4504176461
21
-193.53863444
0
LINE
5
162
100
AcDbEntity
8
SIG0015PB_AMPLIACION
6
ByLayer
62
256
370
-1
100
AcDbLine
10
36.4504176461
20
-193.53863444
11
36.6506653197
21
-193.53863444
0
LINE
5
163
100
AcDbEntity
8
SIG0015PB_AMPLIACION
6
ByLayer
62
256
370
-1
100
AcDbLine
10
36.6506653197
20
-193.53863444
11
36.6506653197
21
-193.849626777
0
LINE
5
164
100
AcDbEntity
8
SIG0015PB_AMPLIACION
6
ByLayer
62
256
370
-1
100
AcDbLine
10
36.6506653197
20
-193.849626777
11
36.9505390003
21
-193.849626777
0
LINE
5
165
100
AcDbEntity
8
SIG0015PB_AMPLIACION
6
ByLayer
62
256
370
-1
100
AcDbLine
10
36.6506653197
20
-196.671165904
11
36.6506653197
21
-195.961165904
0
LINE
5
166
100
AcDbEntity
8
SIG0015PB_AMPLIACION
6
ByLayer
62
256
370
-1
100
AcDbLine
10
36.6506653197
20
-195.261165904
11
36.6506653197
21
-194.551165904
0
LINE
5
167
100
AcDbEntity
8
SIG0015PB_AMPLIACION
6
ByLayer
62
256
370
-1
100
AcDbLine
10
36.6506456492
20
-197.371165904
11
36.6506456492
21
-198.230971954
0
LINE
5
168
100
AcDbEntity
8
SIG0015PB_AMPLIACION
6
ByLayer
62
256
370
-1
100
AcDbLine
10
36.6506456492
20
-198.230971954
11
36.4506456492
21
-198.230478715
0
LINE
5
169
100
AcDbEntity
8
SIG0015PB_AMPLIACION
6
ByLayer
62
256
370
-1
100
AcDbLine
10
36.4506456492
20
-198.230478715
11
36.4506456492
21
-198.730479019
0
LINE
5
16A
100
AcDbEntity
8
SIG0015PB_AMPLIACION
6
ByLayer
62
256
370
-1
100
AcDbLine
10
36.4506456492
20
-198.730479019
11
36.6506456492
21
-198.730972258
0
LINE
5
16B
100
AcDbEntity
8
SIG0015PB_AMPLIACION
6
ByLayer
62
256
370
-1
100
AcDbLine
10
36.6506456492
20
-198.730972258
11
36.6506456492
21
-199.172062684
0
LINE
5
16C
100
AcDbEntity
8
SIG0015PB_AMPLIACION
6
ByLayer
62
256
370
-1
100
AcDbLine
10
31.8491438621
20
-205.211116054
11
31.8491438621
21
-206.861116058
0
LINE
5
16D
100
AcDbEntity
8
SIG0015PB_AMPLIACION
6
ByLayer
62
256
370
-1
100
AcDbLine
10
31.8491438621
20
-206.861116058
11
31.6491438621
21
-206.861116058
0
LINE
5
16E
100
AcDbEntity
8
SIG0015PB_AMPLIACION
6
ByLayer
62
256
370
-1
100
AcDbLine
10
31.6491438621
20
-206.861116058
11
31.6491438621
21
-207.061116054
0
LINE
5
16F
100
AcDbEntity
8
SIG0015PB_AMPLIACION
6
ByLayer
62
256
370
-1
100
AcDbLine
10
26.5971170826
20
-206.143712037
11
26.5971170826
21
-206.861116054
0
LINE
5
170
100
AcDbEntity
8
SIG0015PB_AMPLIACION
6
ByLayer
62
256
370
-1
100
AcDbLine
10
26.5971170826
20
-206.861116054
11
26.7971170956
21
-206.861116054
0
LINE
5
171
100
AcDbEntity
8
SIG0015PB_AMPLIACION
6
ByLayer
62
256
370
-1
100
AcDbLine
10
26.7971170956
20
-206.861116054
11
26.7971170956
21
-207.311116054
0
LINE
5
172
100
AcDbEntity
8
SIG0015PB_AMPLIACION
6
ByLayer
62
256
370
-1
100
AcDbLine
10
28.5676446392
20
-207.061116054
11
31.6491438621
21
-207.061116054
0
LINE
5
173
100
AcDbEntity
8
SIG0015PB_AMPLIACION
6
ByLayer
62
256
370
-1
100
AcDbLine
10
23.0979600089
20
-197.134780564
11
23.0979599829
21
-199.49251426
0
LINE
5
174
100
AcDbEntity
8
SIG0015PB_AMPLIACION
6
ByLayer
62
256
370
-1
100
AcDbLine
10
26.2960216701
20
-201.100518763
11
26.2960216701
21
-199.59251426
0
LINE
5
175
100
AcDbEntity
8
SIG0015PB_AMPLIACION
6
ByLayer
62
256
370
-1
100
AcDbLine
10
20.005883635
20
-196.784781049
11
18.2326468195
21
-196.784781626
0
LINE
5
176
100
AcDbEntity
8
SIG0015PB_AMPLIACION
6
ByLayer
62
256
370
-1
100
AcDbLine
10
28.5676446392
20
-205.861110025
11
30.6491422379
21
-205.861110025
0
LINE
5
177
100
AcDbEntity
8
SIG0015PB_AMPLIACION
6
ByLayer
62
256
370
-1
100
AcDbLine
10
28.7491446392
20
-205.711110025
11
30.4991425086
21
-205.711110025
0
LINE
5
178
100
AcDbEntity
8
SIG0015PB_AMPLIACION
6
ByLayer
62
256
370
-1
100
AcDbLine
10
30.6491447824
20
-203.661110025
11
30.6491422379
21
-205.861110025
0
LINE
5
179
100
AcDbEntity
8
SIG0015PB_AMPLIACION
6
ByLayer
62
256
370
-1
100
AcDbLine
10
30.4991445118
20
-203.811110025
11
30.4991425086
21
-205.711110025
0
LINE
5
17A
100
AcDbEntity
8
SIG0015PB_AMPLIACION
6
ByLayer
62
256
370
-1
100
AcDbLine
10
28.7491446426
20
-203.811110025
11
28.7491446426
21
-203.907910025
0
LINE
5
17B
100
AcDbEntity
8
SIG0015PB_AMPLIACION
6
ByLayer
62
256
370
-1
100
AcDbLine
10
28.7491446426
20
-203.907910025
11
28.5676446426
21
-203.907910025
0
LINE
5
17C
100
AcDbEntity
8
SIG0015PB_AMPLIACION
6
ByLayer
62
256
370
-1
100
AcDbLine
10
28.7491446392
20
-205.711110025
11
28.7491446392
21
-205.650610025
0
LINE
5
17D
100
AcDbEntity
8
SIG0015PB_AMPLIACION
6
ByLayer
62
256
370
-1
100
AcDbLine
10
28.7491446392
20
-205.650610025
11
28.5676446392
21
-205.650610025
0
LINE
5
17E
100
AcDbEntity
8
SIG0015PB_AMPLIACION
6
ByLayer
62
256
370
-1
100
AcDbLine
10
28.5676444422
20
-205.650610025
11
28.7491446392
21
-205.650610025
0
LINE
5
17F
100
AcDbEntity
8
SIG0015PB_AMPLIACION
6
ByLayer
62
256
370
-1
100
AcDbLine
10
28.7491446426
20
-203.907910025
11
28.6402446426
21
-203.907910025
0
LINE
5
180
100
AcDbEntity
8
SIG0015PB_AMPLIACION
6
ByLayer
62
256
370
-1
100
AcDbLine
10
28.5676412228
20
-203.907910025
11
28.7491446426
21
-203.907910025
0
LINE
5
181
100
AcDbEntity
8
SIG0015PB_AMPLIACION
6
ByLayer
62
256
370
-1
100
AcDbLine
10
28.5676446392
20
-205.650610025
11
28.5676446392
21
-205.861110025
0
LINE
5
182
100
AcDbEntity
8
SIG0015PB_AMPLIACION
6
ByLayer
62
256
370
-1
100
AcDbLine
10
28.5676412228
20
-203.907910025
11
28.5676412228
21
-203.661110119
0
LINE
5
183
100
AcDbEntity
8
SIG0015PB_AMPLIACION
6
ByLayer
62
256
370
-1
100
AcDbLine
10
28.7491446426
20
-203.811110025
11
30.4991445118
21
-203.811110025
0
LINE
5
184
100
AcDbEntity
8
SIG0015PB_AMPLIACION
6
ByLayer
62
256
370
-1
100
AcDbLine
10
29.4491447824
20
-203.661110025
11
29.4491447824
21
-203.436116064
0
LINE
5
185
100
AcDbEntity
8
SIG0015PB_AMPLIACION
6
ByLayer
62
256
370
-1
100
AcDbLine
10
29.4491447824
20
-202.511116054
11
29.4491447824
21
-202.461116054
0
LINE
5
186
100
AcDbEntity
8
SIG0015PB_AMPLIACION
6
ByLayer
62
256
370
-1
100
AcDbLine
10
29.2991447824
20
-203.661110025
11
29.2991447824
21
-203.436116054
0
LINE
5
187
100
AcDbEntity
8
SIG0015PB_AMPLIACION
6
ByLayer
62
256
370
-1
100
AcDbLine
10
29.2991447824
20
-202.511116054
11
29.2991447824
21
-202.461116054
0
LINE
5
188
100
AcDbEntity
8
SIG0015PB_AMPLIACION
6
ByLayer
62
256
370
-1
100
AcDbLine
10
30.6491447824
20
-203.661110025
11
29.4491447824
21
-203.661110025
0
LINE
5
189
100
AcDbEntity
8
SIG0015PB_AMPLIACION
6
ByLayer
62
256
370
-1
100
AcDbLine
10
29.2991447824
20
-203.661110025
11
28.5676412228
21
-203.661110119
0
LINE
5
18A
100
AcDbEntity
8
SIG0015PB_AMPLIACION
6
ByLayer
62
256
370
-1
100
AcDbLine
10
24.4049316706
20
-194.134780481
11
26.2960216701
21
-194.134780481
0
LINE
5
18B
100
AcDbEntity
8
SIG0015PB_AMPLIACION
6
ByLayer
62
256
370
-1
100
AcDbLine
10
20.005883635
20
-196.784780303
11
20.005883635
21
-197.134780303
0
LINE
5
18C
100
AcDbEntity
8
SIG0015PB_AMPLIACION
6
ByLayer
62
256
370
-1
100
AcDbLine
10
23.0979600089
20
-197.134780564
11
23.505883635
21
-197.134780598
0
LINE
5
18D
100
AcDbEntity
8
SIG0015PB_AMPLIACION
6
ByLayer
62
256
370
-1
100
AcDbLine
10
23.505883635
20
-197.134780598
11
23.505883635
21
-196.784780598
0
LINE
5
18E
100
AcDbEntity
8
SIG0015PB_AMPLIACION
6
ByLayer
62
256
370
-1
100
AcDbLine
10
23.505883635
20
-196.784780598
11
23.6658947431
21
-196.784780598
0
LINE
5
18F
100
AcDbEntity
8
SIG0015PB_AMPLIACION
6
ByLayer
62
256
370
-1
100
AcDbLine
10
19.4049316704
20
-202.261127648
11
19.4049316704
21
-202.561127194
0
LINE
5
190
100
AcDbEntity
8
SIG0015PB_AMPLIACION
6
ByLayer
62
256
370
-1
100
AcDbLine
10
21.2049316704
20
-202.261127648
11
21.2049316704
21
-202.561127194
0
LINE
5
191
100
AcDbEntity
8
SIG0015PB_AMPLIACION
6
ByLayer
62
256
370
-1
100
AcDbLine
10
24.8030877895
20
-202.261126604
11
24.7479598519
21
-202.261126605
0
LINE
5
192
100
AcDbEntity
8
SIG0015PB_AMPLIACION
6
ByLayer
62
256
370
-1
100
AcDbLine
10
-7.87269955904
20
-202.261126485
11
-7.87269955904
21
-202.56112524
0
LINE
5
193
100
AcDbEntity
8
SIG0015PB_AMPLIACION
6
ByLayer
62
256
370
-1
100
AcDbLine
10
-7.12269955904
20
-202.261126521
11
-7.12269955904
21
-202.561125336
0
LINE
5
194
100
AcDbEntity
8
SIG0015PB_AMPLIACION
6
ByLayer
62
256
370
-1
100
AcDbLine
10
-6.37269955904
20
-202.261126557
11
-6.37269955904
21
-202.561125432
0
LINE
5
195
100
AcDbEntity
8
SIG0015PB_AMPLIACION
6
ByLayer
62
256
370
-1
100
AcDbLine
10
-5.62269955904
20
-202.261126594
11
-5.62269955904
21
-202.561125527
0
LINE
5
196
100
AcDbEntity
8
SIG0015PB_AMPLIACION
6
ByLayer
62
256
370
-1
100
AcDbLine
10
-4.87269955904
20
-202.26112663
11
-4.87269955904
21
-202.561125623
0
LINE
5
197
100
AcDbEntity
8
SIG0015PB_AMPLIACION
6
ByLayer
62
256
370
-1
100
AcDbLine
10
-4.12269955904
20
-202.261126666
11
-4.12269955904
21
-202.561125719
0
LINE
5
198
100
AcDbEntity
8
SIG0015PB_AMPLIACION
6
ByLayer
62
256
370
-1
100
AcDbLine
10
-3.37269955904
20
-202.261126702
11
-3.37269955904
21
-202.561125815
0
LINE
5
199
100
AcDbEntity
8
SIG0015PB_AMPLIACION
6
ByLayer
62
256
370
-1
100
AcDbLine
10
-2.62269955904
20
-202.261126739
11
-2.62269955904
21
-202.561125911
0
LINE
5
19A
100
AcDbEntity
8
SIG0015PB_AMPLIACION
6
ByLayer
62
256
370
-1
100
AcDbLine
10
-1.87269955904
20
-202.261126775
11
-1.87269955904
21
-202.561126007
0
LINE
5
19B
100
AcDbEntity
8
SIG0015PB_AMPLIACION
6
ByLayer
62
256
370
-1
100
AcDbLine
10
-1.12269955904
20
-202.261126811
11
-1.12269955904
21
-202.561126103
0
LINE
5
19C
100
AcDbEntity
8
SIG0015PB_AMPLIACION
6
ByLayer
62
256
370
-1
100
AcDbLine
10
-0.372699559043
20
-202.261126848
11
-0.372699559043
21
-202.561126199
0
LINE
5
19D
100
AcDbEntity
8
SIG0015PB_AMPLIACION
6
ByLayer
62
256
370
-1
100
AcDbLine
10
0.377300440957
20
-202.261126884
11
0.377300440957
21
-202.561126295
0
LINE
5
19E
100
AcDbEntity
8
SIG0015PB_AMPLIACION
6
ByLayer
62
256
370
-1
100
AcDbLine
10
2.12730044096
20
-202.261126966
11
2.12730044096
21
-202.561126512
0
LINE
5
19F
100
AcDbEntity
8
SIG0015PB_AMPLIACION
6
ByLayer
62
256
370
-1
100
AcDbLine
10
2.87730044096
20
-202.261127002
11
2.87730044096
21
-202.561126608
0
LINE
5
1A0
100
AcDbEntity
8
SIG0015PB_AMPLIACION
6
ByLayer
62
256
370
-1
100
AcDbLine
10
3.62730044096
20
-202.261127039
11
3.62730044096
21
-202.561126704
0
LINE
5
1A1
100
AcDbEntity
8
SIG0015PB_AMPLIACION
6
ByLayer
62
256
370
-1
100
AcDbLine
10
4.37730044096
20
-202.261127075
11
4.37730044096
21
-202.5611268
0
LINE
5
1A2
100
AcDbEntity
8
SIG0015PB_AMPLIACION
6
ByLayer
62
256
370
-1
100
AcDbLine
10
5.12730044096
20
-202.261127111
11
5.12730044096
21
-202.561126896
0
LINE
5
1A3
100
AcDbEntity
8
SIG0015PB_AMPLIACION
6
ByLayer
62
256
370
-1
100
AcDbLine
10
5.87730044096
20
-202.261127147
11
5.87730044096
21
-202.561126992
0
LINE
5
1A4
100
AcDbEntity
8
SIG0015PB_AMPLIACION
6
ByLayer
62
256
370
-1
100
AcDbLine
10
6.62730044096
20
-202.261127184
11
6.62730044096
21
-202.561127088
0
LINE
5
1A5
100
AcDbEntity
8
SIG0015PB_AMPLIACION
6
ByLayer
62
256
370
-1
100
AcDbLine
10
7.37730044096
20
-202.26112722
11
7.37730044096
21
-202.561127184
0
LINE
5
1A6
100
AcDbEntity
8
SIG0015PB_AMPLIACION
6
ByLayer
62
256
370
-1
100
AcDbLine
10
8.12730044096
20
-202.261127256
11
8.12730044096
21
-202.561127279
0
LINE
5
1A7
100
AcDbEntity
8
SIG0015PB_AMPLIACION
6
ByLayer
62
256
370
-1
100
AcDbLine
10
8.87730044096
20
-202.261127293
11
8.87730044096
21
-202.561127375
0
LINE
5
1A8
100
AcDbEntity
8
SIG0015PB_AMPLIACION
6
ByLayer
62
256
370
-1
100
AcDbLine
10
9.62730044096
20
-202.261127329
11
9.62730044096
21
-202.561127471
0
LINE
5
1A9
100
AcDbEntity
8
SIG0015PB_AMPLIACION
6
ByLayer
62
256
370
-1
100
AcDbLine
10
10.377300441
20
-202.261127365
11
10.377300441
21
-202.561127567
0
LINE
5
1AA
100
AcDbEntity
8
SIG0015PB_AMPLIACION
6
ByLayer
62
256
370
-1
100
AcDbLine
10
-2.94769955904
20
-188.961110207
11
-2.94769955904
21
-188.661110207
0
LINE
5
1AB
100
AcDbEntity
8
SIG0015PB_AMPLIACION
6
ByLayer
62
256
370
-1
100
AcDbLine
10
-2.19769955904
20
-188.961110349
11
-2.19769955904
21
-188.661110349
0
LINE
5
1AC
100
AcDbEntity
8
SIG0015PB_AMPLIACION
6
ByLayer
62
256
370
-1
100
AcDbLine
10
-1.44769955904
20
-188.96111049
11
-1.44769955904
21
-188.66111049
0
LINE
5
1AD
100
AcDbEntity
8
SIG0015PB_AMPLIACION
6
ByLayer
62
256
370
-1
100
AcDbLine
10
-0.697699559043
20
-188.961110632
11
-0.697699559043
21
-188.661110632
0
LINE
5
1AE
100
AcDbEntity
8
SIG0015PB_AMPLIACION
6
ByLayer
62
256
370
-1
100
AcDbLine
10
0.0523004409574
20
-188.961110773
11
0.0523004409574
21
-188.661110773
0
LINE
5
1AF
100
AcDbEntity
8
SIG0015PB_AMPLIACION
6
ByLayer
62
256
370
-1
100
AcDbLine
10
0.802300440957
20
-188.961110915
11
0.802300440957
21
-188.661110915
0
LINE
5
1B0
100
AcDbEntity
8
SIG0015PB_AMPLIACION
6
ByLayer
62
256
370
-1
100
AcDbLine
10
1.55230044096
20
-188.961111057
11
1.55230044096
21
-188.661111057
0
LINE
5
1B1
100
AcDbEntity
8
SIG0015PB_AMPLIACION
6
ByLayer
62
256
370
-1
100
AcDbLine
10
2.30230044096
20
-188.961111198
11
2.30230044096
21
-188.661111198
0
LINE
5
1B2
100
AcDbEntity
8
SIG0015PB_AMPLIACION
6
ByLayer
62
256
370
-1
100
AcDbLine
10
3.05230044096
20
-188.96111134
11
3.05230044096
21
-188.66111134
0
LINE
5
1B3
100
AcDbEntity
8
SIG0015PB_AMPLIACION
6
ByLayer
62
256
370
-1
100
AcDbLine
10
3.80230044096
20
-188.961111482
11
3.80230044096
21
-188.661111482
0
LINE
5
1B4
100
AcDbEntity
8
SIG0015PB_AMPLIACION
6
ByLayer
62
256
370
-1
100
AcDbLine
10
4.55230044096
20
-188.961111623
11
4.55230044096
21
-188.661111623
0
LINE
5
1B5
100
AcDbEntity
8
SIG0015PB_AMPLIACION
6
ByLayer
62
256
370
-1
100
AcDbLine
10
5.30230044096
20
-188.961111765
11
5.30230044096
21
-188.661111765
0
LINE
5
1B6
100
AcDbEntity
8
SIG0015PB_AMPLIACION
6
ByLayer
62
256
370
-1
100
AcDbLine
10
-2.19769955904
20
-188.661110349
11
-1.44769955904
21
-188.66111049
0
LINE
5
1B7
100
AcDbEntity
8
SIG0015PB_AMPLIACION
6
ByLayer
62
256
370
-1
100
AcDbLine
10
-0.697699559043
20
-188.661110632
11
0.0523004409574
21
-188.661110773
0
LINE
5
1B8
100
AcDbEntity
8
SIG0015PB_AMPLIACION
6
ByLayer
62
256
370
-1
100
AcDbLine
10
0.802300440957
20
-188.661110915
11
1.55230044096
21
-188.661111057
0
LINE
5
1B9
100
AcDbEntity
8
SIG0015PB_AMPLIACION
6
ByLayer
62
256
370
-1
100
AcDbLine
10
2.30230044096
20
-188.661111198
11
3.05230044096
21
-188.66111134
0
LINE
5
1BA
100
AcDbEntity
8
SIG0015PB_AMPLIACION
6
ByLayer
62
256
370
-1
100
AcDbLine
10
3.80230044096
20
-188.661111482
11
4.55230044096
21
-188.661111623
0
LINE
5
1BB
100
AcDbEntity
8
SIG0015PB_AMPLIACION
6
ByLayer
62
256
370
-1
100
AcDbLine
10
4.55230044096
20
-188.961111623
11
3.80230044096
21
-188.961111482
0
LINE
5
1BC
100
AcDbEntity
8
SIG0015PB_AMPLIACION
6
ByLayer
62
256
370
-1
100
AcDbLine
10
3.05230044096
20
-188.96111134
11
2.30230044096
21
-188.961111198
0
LINE
5
1BD
100
AcDbEntity
8
SIG0015PB_AMPLIACION
6
ByLayer
62
256
370
-1
100
AcDbLine
10
0.0523004409574
20
-188.961110773
11
-0.697699559043
21
-188.961110632
0
LINE
5
1BE
100
AcDbEntity
8
SIG0015PB_AMPLIACION
6
ByLayer
62
256
370
-1
100
AcDbLine
10
-1.44769955904
20
-188.96111049
11
-2.19769955904
21
-188.961110349
0
LINE
5
1BF
100
AcDbEntity
8
SIG0015PB_AMPLIACION
6
ByLayer
62
256
370
-1
100
AcDbLine
10
26.4460216701
20
-191.647946183
11
26.4460216701
21
-194.634781642
0
LINE
5
1C0
100
AcDbEntity
8
SIG0015PB_AMPLIACION
6
ByLayer
62
256
370
-1
100
AcDbLine
10
31.8491438621
20
-205.211116054
11
32.1491438621
21
-205.211116054
0
LINE
5
1C1
100
AcDbEntity
8
SIG0015PB_AMPLIACION
6
ByLayer
62
256
370
-1
100
AcDbLine
10
31.8491459769
20
-204.211116054
11
32.1491438621
21
-204.211116054
0
LINE
5
1C2
100
AcDbEntity
8
SIG0015PB_AMPLIACION
6
ByLayer
62
256
370
-1
100
AcDbLine
10
26.2971170762
20
-206.143712037
11
26.5971170826
21
-206.143712037
0
LINE
5
1C3
100
AcDbEntity
8
SIG0015PB_AMPLIACION
6
ByLayer
62
256
370
-1
100
AcDbLine
10
26.2971170762
20
-202.743712037
11
26.5971170762
21
-202.743712037
0
LINE
5
1C4
100
AcDbEntity
8
SIG0015PB_AMPLIACION
6
ByLayer
62
256
370
-1
100
AcDbLine
10
13.0225221657
20
-188.961113727
11
13.0225221657
21
-188.661113727
0
LINE
5
1C5
100
AcDbEntity
8
SIG0015PB_AMPLIACION
6
ByLayer
62
256
370
-1
100
AcDbLine
10
12.0225221657
20
-188.961111612
11
12.0225221657
21
-188.661113727
0
LINE
5
1C6
100
AcDbEntity
8
SIG0015PB_AMPLIACION
6
ByLayer
62
256
370
-1
100
AcDbLine
10
32.1491438621
20
-202.261127651
11
32.1491438621
21
-201.961116054
0
LINE
5
1C7
100
AcDbEntity
8
SIG0015PB_AMPLIACION
6
ByLayer
62
256
370
-1
100
AcDbLine
10
32.1491438621
20
-201.961116054
11
28.5960216701
21
-201.961116054
0
LINE
5
1C8
100
AcDbEntity
8
SIG0015PB_AMPLIACION
6
ByLayer
62
256
370
-1
100
AcDbLine
10
28.5676446392
20
-207.061116054
11
28.5676446392
21
-207.311116054
0
LINE
5
1C9
100
AcDbEntity
8
SIG0015PB_AMPLIACION
6
ByLayer
62
256
370
-1
100
AcDbLine
10
26.7971170956
20
-207.311116054
11
26.2971170956
21
-207.311116054
0
LINE
5
1CA
100
AcDbEntity
8
SIG0015PB_AMPLIACION
6
ByLayer
62
256
370
-1
100
AcDbLine
10
26.4460216701
20
-191.647946181
11
26.2960216701
21
-191.647946181
0
LINE
5
1CB
100
AcDbEntity
8
SIG0015PB_AMPLIACION
6
ByLayer
62
256
370
-1
100
AcDbLine
10
26.4460216701
20
-190.822946183
11
26.2960216686
21
-190.822946181
0
LINE
5
1CC
100
AcDbEntity
8
SIG0015PB_AMPLIACION
6
ByLayer
62
256
370
-1
100
AcDbLine
10
26.2960216701
20
-191.697946183
11
26.2960216701
21
-191.647946181
0
LINE
5
1CD
100
AcDbEntity
8
SIG0015PB_AMPLIACION
6
ByLayer
62
256
370
-1
100
AcDbLine
10
10.5325455354
20
-194.634781642
11
10.5325455354
21
-194.134781642
0
LINE
5
1CE
100
AcDbEntity
8
SIG0015PB_AMPLIACION
6
ByLayer
62
256
370
-1
100
AcDbLine
10
10.5325455354
20
-196.634780598
11
10.5325455354
21
-197.134780598
0
LINE
5
1CF
100
AcDbEntity
8
SIG0015PB_AMPLIACION
6
ByLayer
62
256
370
-1
100
AcDbLine
10
16.8076468195
20
-196.784781626
11
16.7539797058
21
-196.784781631
0
LINE
5
1D0
100
AcDbEntity
8
SIG0015PB_AMPLIACION
6
ByLayer
62
256
370
-1
100
AcDbLine
10
16.7539797058
20
-196.784781631
11
16.7539797058
21
-197.134780598
0
LINE
5
1D1
100
AcDbEntity
8
SIG0015PB_AMPLIACION
6
ByLayer
62
256
370
-1
100
AcDbLine
10
16.7539797058
20
-197.134780598
11
16.6576467544
21
-197.134780598
0
LINE
5
1D2
100
AcDbEntity
8
SIG0015PB_AMPLIACION
6
ByLayer
62
256
370
-1
100
AcDbLine
10
26.2960216701
20
-194.134780481
11
25.9460216701
21
-194.134780602
0
LINE
5
1D3
100
AcDbEntity
8
SIG0015PB_AMPLIACION
6
ByLayer
62
256
370
-1
100
AcDbLine
10
25.9460216701
20
-194.134780602
11
26.2960216701
21
-194.134780602
0
LINE
5
1D4
100
AcDbEntity
8
SIG0015PB_AMPLIACION
6
ByLayer
62
256
370
-1
100
AcDbLine
10
34.2491438621
20
-188.961111986
11
36.4504176461
21
-188.961107041
0
LINE
5
1D5
100
AcDbEntity
8
SIG0015PB_AMPLIACION
6
ByLayer
62
256
370
-1
100
AcDbLine
10
36.4504176461
20
-188.961107041
11
36.4504176461
21
-189.161903809
0
LINE
5
1D6
100
AcDbEntity
8
SIG0015PB_AMPLIACION
6
ByLayer
62
256
370
-1
100
AcDbLine
10
36.4504176461
20
-189.161903809
11
36.6506461584
21
-189.161903809
0
LINE
5
1D7
100
AcDbEntity
8
SIG0015PB_AMPLIACION
6
ByLayer
62
256
370
-1
100
AcDbLine
10
36.6506461584
20
-189.161903809
11
36.6506517003
21
-190.250269125
0
LINE
5
1D8
100
AcDbEntity
8
SIG0015PB_AMPLIACION
6
ByLayer
62
256
370
-1
100
AcDbLine
10
36.6506456493
20
-202.061122789
11
36.4506456493
21
-202.061122789
0
LINE
5
1D9
100
AcDbEntity
8
SIG0015PB_AMPLIACION
6
ByLayer
62
256
370
-1
100
AcDbLine
10
36.4506456493
20
-202.061122789
11
36.4506456493
21
-202.261122791
0
LINE
5
1DA
100
AcDbEntity
8
SIG0015PB_AMPLIACION
6
ByLayer
62
256
370
-1
100
AcDbLine
10
28.4460219695
20
-200.952683909
11
28.4460219695
21
-202.461116054
0
LINE
5
1DB
100
AcDbEntity
8
SIG0015PB_AMPLIACION
6
ByLayer
62
256
370
-1
100
AcDbLine
10
28.4460219695
20
-202.461116054
11
29.2991447824
21
-202.461116054
0
LINE
5
1DC
100
AcDbEntity
8
SIG0015PB_AMPLIACION
6
ByLayer
62
256
370
-1
100
AcDbLine
10
29.4491447824
20
-202.461116054
11
31.6491438621
21
-202.461116054
0
LINE
5
1DD
100
AcDbEntity
8
SIG0015PB_AMPLIACION
6
ByLayer
62
256
370
-1
100
AcDbLine
10
31.6491438621
20
-202.461116054
11
31.6491438621
21
-202.560333526
0
LINE
5
1DE
100
AcDbEntity
8
SIG0015PB_AMPLIACION
6
ByLayer
62
256
370
-1
100
AcDbLine
10
31.6491438621
20
-202.560333526
11
31.8491458661
21
-202.560333524
0
LINE
5
1DF
100
AcDbEntity
8
SIG0015PB_AMPLIACION
6
ByLayer
62
256
370
-1
100
AcDbLine
10
26.4460216701
20
-202.025518763
11
26.4460216701
21
-202.061122781
0
LINE
5
1E0
100
AcDbEntity
8
SIG0015PB_AMPLIACION
6
ByLayer
62
256
370
-1
100
AcDbLine
10
26.4460216701
20
-202.061122781
11
26.7971170956
21
-202.061122781
0
LINE
5
1E1
100
AcDbEntity
8
SIG0015PB_AMPLIACION
6
ByLayer
62
256
370
-1
100
AcDbLine
10
26.7971170956
20
-202.061122781
11
26.7971170956
21
-202.561122781
0
LINE
5
1E2
100
AcDbEntity
8
SIG0015PB_AMPLIACION
6
ByLayer
62
256
370
-1
100
AcDbLine
10
26.7971170956
20
-202.561122781
11
26.7971170956
21
-202.561122781
0
LINE
5
1E3
100
AcDbEntity
8
SIG0015PB_AMPLIACION
6
ByLayer
62
256
370
-1
100
AcDbLine
10
26.7971170956
20
-202.561122781
11
26.5971169634
21
-202.561122781
0
LINE
5
1E4
100
AcDbEntity
8
SIG0015PB_AMPLIACION
6
ByLayer
62
256
370
-1
100
AcDbLine
10
26.5971169634
20
-202.561122781
11
26.5971170762
21
-202.743712037
0
LINE
5
1E5
100
AcDbEntity
8
SIG0015PB_AMPLIACION
6
ByLayer
62
256
370
-1
100
AcDbLine
10
24.6979600919
20
-196.784780598
11
25.9460216701
21
-196.784780598
0
LINE
5
1E6
100
AcDbEntity
8
SIG0015PB_AMPLIACION
6
ByLayer
62
256
370
-1
100
AcDbLine
10
25.9460216701
20
-196.784780598
11
25.9460216701
21
-197.134780602
0
LINE
5
1E7
100
AcDbEntity
8
SIG0015PB_AMPLIACION
6
ByLayer
62
256
370
-1
100
AcDbLine
10
25.9460216701
20
-197.134780602
11
26.2960216749
21
-197.134780602
0
LINE
5
1E8
100
AcDbEntity
8
SIG0015PB_AMPLIACION
6
ByLayer
62
256
370
-1
100
AcDbLine
10
26.2960216749
20
-197.134780602
11
26.296021716
21
-197.55751426
0
LINE
5
1E9
100
AcDbEntity
8
SIG0015PB_AMPLIACION
6
ByLayer
62
256
370
-1
100
AcDbLine
10
31.6491438621
20
-193.18863444
11
31.6491438621
21
-193.53863444
0
LINE
5
1EA
100
AcDbEntity
8
SIG0015PB_AMPLIACION
6
ByLayer
62
256
370
-1
100
AcDbLine
10
31.6491438621
20
-193.53863444
11
32.1491438621
21
-193.53863444
0
LINE
5
1EB
100
AcDbEntity
8
SIG0015PB_AMPLIACION
6
ByLayer
62
256
370
-1
100
AcDbLine
10
32.1491438621
20
-193.53863444
11
32.1491438621
21
-193.18863444
0
LINE
5
1EC
100
AcDbEntity
8
SIG0015PB_AMPLIACION
6
ByLayer
62
256
370
-1
100
AcDbLine
10
20.005883635
20
-194.484781642
11
20.005883635
21
-194.134780629
0
LINE
5
1ED
100
AcDbEntity
8
SIG0015PB_AMPLIACION
6
ByLayer
62
256
370
-1
100
AcDbLine
10
20.005883635
20
-194.134780629
11
23.105883635
21
-194.134780629
0
LINE
5
1EE
100
AcDbEntity
8
SIG0015PB_AMPLIACION
6
ByLayer
62
256
370
-1
100
AcDbLine
10
23.105883635
20
-194.134780629
11
23.105883635
21
-194.484781642
0
LINE
5
1EF
100
AcDbEntity
8
SIG0015PB_AMPLIACION
6
ByLayer
62
256
370
-1
100
AcDbLine
10
11.1725455354
20
-197.134410636
11
11.9025455354
21
-197.134780598
0
LINE
5
1F0
100
AcDbEntity
8
SIG0015PB_AMPLIACION
6
ByLayer
62
256
370
-1
100
AcDbLine
10
11.9025455354
20
-197.134780598
11
11.9025455354
21
-196.784780598
0
LINE
5
1F1
100
AcDbEntity
8
SIG0015PB_AMPLIACION
6
ByLayer
62
256
370
-1
100
AcDbLine
10
15.2995860385
20
-196.784780598
11
15.2995860385
21
-197.134780598
0
LINE
5
1F2
100
AcDbEntity
8
SIG0015PB_AMPLIACION
6
ByLayer
62
256
370
-1
100
AcDbLine
10
15.2995860385
20
-197.134780598
11
16.5076467544
21
-197.134780598
0
LINE
5
1F3
100
AcDbEntity
8
SIG0015PB_AMPLIACION
6
ByLayer
62
256
370
-1
100
AcDbLine
10
20.005883635
20
-197.134780303
11
22.9479598819
21
-197.134780551
0
LINE
5
1F4
100
AcDbEntity
8
SIG0015PB_AMPLIACION
6
ByLayer
62
256
370
-1
100
AcDbLine
10
10.1758125131
20
-188.961110202
11
10.5825455354
21
-188.961110203
0
LINE
5
1F5
100
AcDbEntity
8
SIG0015PB_AMPLIACION
6
ByLayer
62
256
370
-1
100
AcDbLine
10
10.1758125131
20
-188.661110202
11
11.0225455354
21
-188.661110202
0
LINE
5
1F6
100
AcDbEntity
8
SIG0015PB_AMPLIACION
6
ByLayer
62
256
370
-1
100
AcDbLine
10
10.5325455354
20
-194.134781642
11
11.0225455354
21
-194.134781642
0
LINE
5
1F7
100
AcDbEntity
8
SIG0015PB_AMPLIACION
6
ByLayer
62
256
370
-1
100
AcDbLine
10
11.0225455354
20
-194.634781642
11
10.5325455354
21
-194.634781642
0
LINE
5
1F8
100
AcDbEntity
8
SIG0015PB_AMPLIACION
6
ByLayer
62
256
370
-1
100
AcDbLine
10
11.0225455354
20
-196.634780598
11
10.5325455354
21
-196.634780598
0
LINE
5
1F9
100
AcDbEntity
8
SIG0015PB_AMPLIACION
6
ByLayer
62
256
370
-1
100
AcDbLine
10
11.0225454719
20
-198.47247561
11
11.0225455182
21
-197.134780598
0
LINE
5
1FA
100
AcDbEntity
8
SIG0015PB_AMPLIACION
6
ByLayer
62
256
370
-1
100
AcDbLine
10
10.5325455354
20
-197.134780598
11
11.0225455182
21
-197.134780598
0
LINE
5
1FB
100
AcDbEntity
8
SIG0015PB_AMPLIACION
6
ByLayer
62
256
370
-1
100
AcDbLine
10
10.377300441
20
-202.561127567
11
11.0225455354
21
-202.561127657
0
LINE
5
1FC
100
AcDbEntity
8
SIG0015PB_AMPLIACION
6
ByLayer
62
256
370
-1
100
AcDbLine
10
11.0225455354
20
-200.47247561
11
11.0225455354
21
-202.111127651
0
LINE
5
1FD
100
AcDbEntity
8
SIG0015PB_AMPLIACION
6
ByLayer
62
256
370
-1
100
AcDbLine
10
-13.5340300438
20
-188.661110202
11
-8.5340300438
21
-188.661110202
0
LINE
5
1FE
100
AcDbEntity
8
SIG0015PB_AMPLIACION
6
ByLayer
62
256
370
-1
100
AcDbLine
10
-3.62263064941
20
-188.961110203
11
-2.94769955904
21
-188.961110207
0
LINE
5
1FF
100
AcDbEntity
8
SIG0015PB_AMPLIACION
6
ByLayer
62
256
370
-1
100
AcDbLine
10
0.977300440957
20
-188.961110948
11
0.802300440957
21
-188.961110915
0
LINE
5
200
100
AcDbEntity
8
SIG0015PB_AMPLIACION
6
ByLayer
62
256
370
-1
100
AcDbLine
10
1.55230044096
20
-188.961111057
11
1.37730044096
21
-188.961111024
0
LINE
5
201
100
AcDbEntity
8
SIG0015PB_AMPLIACION
6
ByLayer
62
256
370
-1
100
AcDbLine
10
5.30230044096
20
-188.961111765
11
5.97730050449
21
-188.961110205
0
LINE
5
202
100
AcDbEntity
8
SIG0015PB_AMPLIACION
6
ByLayer
62
256
370
-1
100
AcDbLine
10
8.37584279565
20
-188.961110202
11
6.37730050449
21
-188.961110202
0
LINE
5
203
100
AcDbEntity
8
SIG0015PB_AMPLIACION
6
ByLayer
62
256
370
-1
100
AcDbLine
10
-7.94425392778
20
-202.261126481
11
-7.87269955904
21
-202.261126485
0
LINE
5
204
100
AcDbEntity
8
SIG0015PB_AMPLIACION
6
ByLayer
62
256
370
-1
100
AcDbLine
10
-4.12269955904
20
-202.261126666
11
-4.02269955904
21
-202.261126671
0
LINE
5
205
100
AcDbEntity
8
SIG0015PB_AMPLIACION
6
ByLayer
62
256
370
-1
100
AcDbLine
10
-3.62269955904
20
-202.26112669
11
-3.37269955904
21
-202.261126702
0
LINE
5
206
100
AcDbEntity
8
SIG0015PB_AMPLIACION
6
ByLayer
62
256
370
-1
100
AcDbLine
10
0.377300440957
20
-202.261126884
11
0.977300440957
21
-202.261126913
0
LINE
5
207
100
AcDbEntity
8
SIG0015PB_AMPLIACION
6
ByLayer
62
256
370
-1
100
AcDbLine
10
1.37730044096
20
-202.261126932
11
2.12730044096
21
-202.261126966
0
LINE
5
208
100
AcDbEntity
8
SIG0015PB_AMPLIACION
6
ByLayer
62
256
370
-1
100
AcDbLine
10
5.87730044096
20
-202.261127147
11
5.97730050449
21
-202.261127155
0
LINE
5
209
100
AcDbEntity
8
SIG0015PB_AMPLIACION
6
ByLayer
62
256
370
-1
100
AcDbLine
10
6.37730050449
20
-202.261127174
11
6.62730044096
21
-202.261127184
0
LINE
5
20A
100
AcDbEntity
8
SIG0015PB_AMPLIACION
6
ByLayer
62
256
370
-1
100
AcDbLine
10
26.7971170956
20
-207.311116054
11
28.5676446392
21
-207.311116054
0
LINE
5
20B
100
AcDbEntity
8
SIG0015PB_AMPLIACION
6
ByLayer
62
256
370
-1
100
AcDbLine
10
28.7491446426
20
-203.907910025
11
28.7491446392
21
-205.650610025
0
LINE
5
20C
100
AcDbEntity
8
SIG0015PB_AMPLIACION
6
ByLayer
62
256
370
-1
100
AcDbLine
10
-8.5340300438
20
-188.961110203
11
-8.5340300438
21
-188.661110202
0
LINE
5
20D
100
AcDbEntity
8
SIG0015PB_AMPLIACION
6
ByLayer
62
256
370
-1
100
AcDbLine
10
-8.5340300438
20
-188.961110202
11
-8.5340300438
21
-188.661110202
0
LINE
5
20E
100
AcDbEntity
8
SIG0015PB_AMPLIACION
6
ByLayer
62
256
370
-1
100
AcDbLine
10
-3.62263064941
20
-189.111110205
11
-4.02263064941
21
-189.111110205
0
LINE
5
20F
100
AcDbEntity
8
SIG0015PB_AMPLIACION
6
ByLayer
62
256
370
-1
100
AcDbLine
10
-7.94425392778
20
-189.110740237
11
-8.34425392778
21
-189.110740237
0
LINE
5
210
100
AcDbEntity
8
SIG0015PB_AMPLIACION
6
ByLayer
62
256
370
-1
100
AcDbLine
10
-8.34425392778
20
-189.110740237
11
-8.34425392778
21
-188.961110203
0
LINE
5
211
100
AcDbEntity
8
SIG0015PB_AMPLIACION
6
ByLayer
62
256
370
-1
100
AcDbLine
10
-8.5340300438
20
-188.961110202
11
-8.34425392778
21
-188.961110203
0
LINE
5
212
100
AcDbEntity
8
SIG0015PB_AMPLIACION
6
ByLayer
62
256
370
-1
100
AcDbLine
10
-7.94425392778
20
-188.961110203
11
-7.94425392778
21
-189.110740237
0
LINE
5
213
100
AcDbEntity
8
SIG0015PB_AMPLIACION
6
ByLayer
62
256
370
-1
100
AcDbLine
10
-4.02263064941
20
-189.111110205
11
-4.02263064941
21
-188.961110203
0
LINE
5
214
100
AcDbEntity
8
SIG0015PB_AMPLIACION
6
ByLayer
62
256
370
-1
100
AcDbLine
10
-7.94425392778
20
-188.961110203
11
-4.02263064941
21
-188.961110203
0
LINE
5
215
100
AcDbEntity
8
SIG0015PB_AMPLIACION
6
ByLayer
62
256
370
-1
100
AcDbLine
10
-3.62263064941
20
-188.961110203
11
-3.62263064941
21
-189.111110205
0
LINE
5
216
100
AcDbEntity
8
SIG0015PB_AMPLIACION
6
ByLayer
62
256
370
-1
100
AcDbLine
10
6.37730050449
20
-189.111110204
11
5.97730050449
21
-189.111110204
0
LINE
5
217
100
AcDbEntity
8
SIG0015PB_AMPLIACION
6
ByLayer
62
256
370
-1
100
AcDbLine
10
1.37730044096
20
-189.111109679
11
0.977300440957
21
-189.111109679
0
LINE
5
218
100
AcDbEntity
8
SIG0015PB_AMPLIACION
6
ByLayer
62
256
370
-1
100
AcDbLine
10
0.977300440957
20
-189.111109679
11
0.977300440957
21
-188.961110948
0
LINE
5
219
100
AcDbEntity
8
SIG0015PB_AMPLIACION
6
ByLayer
62
256
370
-1
100
AcDbLine
10
1.37730044096
20
-188.961111024
11
1.37730044096
21
-189.111109679
0
LINE
5
21A
100
AcDbEntity
8
SIG0015PB_AMPLIACION
6
ByLayer
62
256
370
-1
100
AcDbLine
10
5.97730050449
20
-189.111110204
11
5.97730050449
21
-188.961110205
0
LINE
5
21B
100
AcDbEntity
8
SIG0015PB_AMPLIACION
6
ByLayer
62
256
370
-1
100
AcDbLine
10
6.37730050449
20
-188.961110202
11
6.37730050449
21
-189.111110204
0
LINE
5
21C
100
AcDbEntity
8
SIG0015PB_AMPLIACION
6
ByLayer
62
256
370
-1
100
AcDbLine
10
10.5825455354
20
-189.111110208
11
10.5825455354
21
-188.961110203
0
LINE
5
21D
100
AcDbEntity
8
SIG0015PB_AMPLIACION
6
ByLayer
62
256
370
-1
100
AcDbLine
10
11.0225455354
20
-189.111110208
11
11.0225455354
21
-194.134781642
0
LINE
5
21E
100
AcDbEntity
8
SIG0015PB_AMPLIACION
6
ByLayer
62
256
370
-1
100
AcDbLine
10
11.0225455354
20
-189.111110208
11
10.5825455354
21
-189.111110208
0
LINE
5
21F
100
AcDbEntity
8
SIG0015PB_AMPLIACION
6
ByLayer
62
256
370
-1
100
AcDbLine
10
10.5825455354
20
-202.261127377
11
10.5825455354
21
-202.111127651
0
LINE
5
220
100
AcDbEntity
8
SIG0015PB_AMPLIACION
6
ByLayer
62
256
370
-1
100
AcDbLine
10
10.5825455354
20
-202.111127651
11
11.0225455354
21
-202.111127651
0
LINE
5
221
100
AcDbEntity
8
SIG0015PB_AMPLIACION
6
ByLayer
62
256
370
-1
100
AcDbLine
10
5.97730050449
20
-202.111127646
11
6.37730050449
21
-202.111127646
0
LINE
5
222
100
AcDbEntity
8
SIG0015PB_AMPLIACION
6
ByLayer
62
256
370
-1
100
AcDbLine
10
5.97730050449
20
-202.261127155
11
5.97730050449
21
-202.111127646
0
LINE
5
223
100
AcDbEntity
8
SIG0015PB_AMPLIACION
6
ByLayer
62
256
370
-1
100
AcDbLine
10
6.37730050449
20
-202.111127646
11
6.37730050449
21
-202.261127174
0
LINE
5
224
100
AcDbEntity
8
SIG0015PB_AMPLIACION
6
ByLayer
62
256
370
-1
100
AcDbLine
10
-4.02269955904
20
-202.111127649
11
-3.62269955904
21
-202.111127649
0
LINE
5
225
100
AcDbEntity
8
SIG0015PB_AMPLIACION
6
ByLayer
62
256
370
-1
100
AcDbLine
10
0.977300440957
20
-202.111127122
11
1.37730044096
21
-202.111127122
0
LINE
5
226
100
AcDbEntity
8
SIG0015PB_AMPLIACION
6
ByLayer
62
256
370
-1
100
AcDbLine
10
-4.02269955904
20
-202.261126671
11
-4.02269955904
21
-202.111127649
0
LINE
5
227
100
AcDbEntity
8
SIG0015PB_AMPLIACION
6
ByLayer
62
256
370
-1
100
AcDbLine
10
-3.62269955904
20
-202.111127649
11
-3.62269955904
21
-202.26112669
0
LINE
5
228
100
AcDbEntity
8
SIG0015PB_AMPLIACION
6
ByLayer
62
256
370
-1
100
AcDbLine
10
0.977300440957
20
-202.261126913
11
0.977300440957
21
-202.111127122
0
LINE
5
229
100
AcDbEntity
8
SIG0015PB_AMPLIACION
6
ByLayer
62
256
370
-1
100
AcDbLine
10
1.37730044096
20
-202.111127122
11
1.37730044096
21
-202.261126932
0
LINE
5
22A
100
AcDbEntity
8
SIG0015PB_AMPLIACION
6
ByLayer
62
256
370
-1
100
AcDbLine
10
-8.34425392778
20
-202.11075768
11
-7.94425392778
21
-202.11075768
0
LINE
5
22B
100
AcDbEntity
8
SIG0015PB_AMPLIACION
6
ByLayer
62
256
370
-1
100
AcDbLine
10
-8.34425392778
20
-202.261126481
11
-8.34425392778
21
-202.11075768
0
LINE
5
22C
100
AcDbEntity
8
SIG0015PB_AMPLIACION
6
ByLayer
62
256
370
-1
100
AcDbLine
10
-7.94425392778
20
-202.11075768
11
-7.94425392778
21
-202.261126481
0
LINE
5
22D
100
AcDbEntity
8
SIG0015PB_AMPLIACION
6
ByLayer
62
256
370
-1
100
AcDbLine
10
26.2971170762
20
-202.743712037
11
26.2971170762
21
-206.143712037
0
LINE
5
22E
100
AcDbEntity
8
SIG0015PB_AMPLIACION
6
ByLayer
62
256
370
-1
100
AcDbLine
10
29.2991447824
20
-203.436116054
11
29.4491447824
21
-203.436116064
0
LINE
5
22F
100
AcDbEntity
8
SIG0015PB_AMPLIACION
6
ByLayer
62
256
370
-1
100
AcDbLine
10
29.2991447824
20
-202.511116054
11
29.4491447824
21
-202.511116054
0
LINE
5
230
100
AcDbEntity
8
SIG0015PB_AMPLIACION
6
ByLayer
62
256
370
-1
100
AcDbLine
10
8.06036675719
20
-190.229115351
11
8.06036675719
21
-194.084272096
0
LINE
5
231
100
AcDbEntity
8
SIG0015PB_AMPLIACION
6
ByLayer
62
256
370
-1
100
AcDbLine
10
5.80674823391
20
-194.084272096
11
5.80674823391
21
-190.229115351
0
LINE
5
232
100
AcDbEntity
8
SIG0015PB_AMPLIACION
6
ByLayer
62
256
370
-1
100
AcDbLine
10
8.01036675719
20
-194.034272096
11
8.01036675719
21
-190.279115351
0
LINE
5
233
100
AcDbEntity
8
SIG0015PB_AMPLIACION
6
ByLayer
62
256
370
-1
100
AcDbLine
10
5.85674823391
20
-190.279115351
11
8.01036675719
21
-190.279115351
0
LINE
5
234
100
AcDbEntity
8
SIG0015PB_AMPLIACION
6
ByLayer
62
256
370
-1
100
AcDbLine
10
5.80674823391
20
-190.229115351
11
8.06036675719
21
-190.229115351
0
LINE
5
235
100
AcDbEntity
8
SIG0015PB_AMPLIACION
6
ByLayer
62
256
370
-1
100
AcDbLine
10
5.80674823391
20
-194.084272096
11
8.06036675719
21
-194.084272096
0
LINE
5
236
100
AcDbEntity
8
SIG0015PB_AMPLIACION
6
ByLayer
62
256
370
-1
100
AcDbLine
10
5.85674823391
20
-194.034272096
11
8.01036675719
21
-194.034272096
0
LINE
5
237
100
AcDbEntity
8
SIG0015PB_AMPLIACION
6
ByLayer
62
256
370
-1
100
AcDbLine
10
5.85674823391
20
-190.279115351
11
5.85674823391
21
-194.034272096
0
LINE
5
238
100
AcDbEntity
8
SIG0015PB_AMPLIACION
6
ByLayer
62
256
370
-1
100
AcDbLine
10
11.1725524151
20
-189.9611157
11
13.872544037
21
-189.961109434
0
LINE
5
239
100
AcDbEntity
8
SIG0015PB_AMPLIACION
6
ByLayer
62
256
370
-1
100
AcDbLine
10
11.1725531113
20
-190.2611157
11
12.2225417892
21
-190.261113263
0
LINE
5
23A
100
AcDbEntity
8
SIG0015PB_AMPLIACION
6
ByLayer
62
256
370
-1
100
AcDbLine
10
12.8225417892
20
-190.261111871
11
13.8725417893
21
-190.261109434
0
LINE
5
23B
100
AcDbEntity
8
SIG0015PB_AMPLIACION
6
ByLayer
62
256
370
-1
100
AcDbLine
10
12.8225395415
20
-190.561111871
11
13.8725395415
21
-190.561109434
0
LINE
5
23C
100
AcDbEntity
8
SIG0015PB_AMPLIACION
6
ByLayer
62
256
370
-1
100
AcDbLine
10
12.8225372938
20
-190.861111871
11
13.8725402377
21
-190.861109434
0
LINE
5
23D
100
AcDbEntity
8
SIG0015PB_AMPLIACION
6
ByLayer
62
256
370
-1
100
AcDbLine
10
12.822535046
20
-191.161111871
11
13.8725409339
21
-191.161109434
0
LINE
5
23E
100
AcDbEntity
8
SIG0015PB_AMPLIACION
6
ByLayer
62
256
370
-1
100
AcDbLine
10
12.8225327983
20
-191.461111871
11
13.8725416301
21
-191.461109434
0
LINE
5
23F
100
AcDbEntity
8
SIG0015PB_AMPLIACION
6
ByLayer
62
256
370
-1
100
AcDbLine
10
12.8225305506
20
-191.761111871
11
13.8725423263
21
-191.761109434
0
LINE
5
240
100
AcDbEntity
8
SIG0015PB_AMPLIACION
6
ByLayer
62
256
370
-1
100
AcDbLine
10
12.8225283028
20
-192.061111871
11
13.8725430225
21
-192.061109434
0
LINE
5
241
100
AcDbEntity
8
SIG0015PB_AMPLIACION
6
ByLayer
62
256
370
-1
100
AcDbLine
10
12.8225260551
20
-192.361111871
11
13.8725437187
21
-192.361109434
0
LINE
5
242
100
AcDbEntity
8
SIG0015PB_AMPLIACION
6
ByLayer
62
256
370
-1
100
AcDbLine
10
30.3991422379
20
-205.861110119
11
30.3991422379
21
-207.061116054
0
LINE
5
243
100
AcDbEntity
8
SIG0015PB_AMPLIACION
6
ByLayer
62
256
370
-1
100
AcDbLine
10
30.0991422379
20
-205.861110119
11
30.0991422379
21
-207.061116054
0
LINE
5
244
100
AcDbEntity
8
SIG0015PB_AMPLIACION
6
ByLayer
62
256
370
-1
100
AcDbLine
10
29.7991422379
20
-205.861110119
11
29.7991422379
21
-207.061116054
0
LINE
5
245
100
AcDbEntity
8
SIG0015PB_AMPLIACION
6
ByLayer
62
256
370
-1
100
AcDbLine
10
29.4991422379
20
-205.861110119
11
29.4991422379
21
-207.061116054
0
LINE
5
246
100
AcDbEntity
8
SIG0015PB_AMPLIACION
6
ByLayer
62
256
370
-1
100
AcDbLine
10
29.1991422379
20
-205.861110119
11
29.1991422379
21
-207.061116054
0
LINE
5
247
100
AcDbEntity
8
SIG0015PB_AMPLIACION
6
ByLayer
62
256
370
-1
100
AcDbLine
10
28.8991422379
20
-205.861110119
11
28.8991422379
21
-207.061116054
0
LINE
5
248
100
AcDbEntity
8
SIG0015PB_AMPLIACION
6
ByLayer
62
256
370
-1
100
AcDbLine
10
28.5991422379
20
-205.861110119
11
28.5991422379
21
-207.061116054
0
LINE
5
249
100
AcDbEntity
8
SIG0015PB_AMPLIACION
6
ByLayer
62
256
370
-1
100
AcDbLine
10
30.6491422379
20
-205.811110025
11
31.8491419487
21
-205.811110025
0
LINE
5
24A
100
AcDbEntity
8
SIG0015PB_AMPLIACION
6
ByLayer
62
256
370
-1
100
AcDbLine
10
30.6491425849
20
-205.511110025
11
31.8491419487
21
-205.511110025
0
LINE
5
24B
100
AcDbEntity
8
SIG0015PB_AMPLIACION
6
ByLayer
62
256
370
-1
100
AcDbLine
10
30.6491429319
20
-205.211110025
11
31.8491419487
21
-205.211110025
0
LINE
5
24C
100
AcDbEntity
8
SIG0015PB_AMPLIACION
6
ByLayer
62
256
370
-1
100
AcDbLine
10
30.6491436258
20
-204.611110025
11
31.8491419487
21
-204.611110025
0
LINE
5
24D
100
AcDbEntity
8
SIG0015PB_AMPLIACION
6
ByLayer
62
256
370
-1
100
AcDbLine
10
30.6491439728
20
-204.311110025
11
31.8491419487
21
-204.311110025
0
LINE
5
24E
100
AcDbEntity
8
SIG0015PB_AMPLIACION
6
ByLayer
62
256
370
-1
100
AcDbLine
10
30.6491443198
20
-204.011110025
11
31.8491419487
21
-204.011110025
0
LINE
5
24F
100
AcDbEntity
8
SIG0015PB_AMPLIACION
6
ByLayer
62
256
370
-1
100
AcDbLine
10
30.6491444933
20
-203.711110025
11
31.8491419487
21
-203.711110025
0
LINE
5
250
100
AcDbEntity
8
SIG0015PB_AMPLIACION
6
ByLayer
62
256
370
-1
100
AcDbLine
10
30.3991447824
20
-203.661110119
11
30.3991447824
21
-202.461116054
0
LINE
5
251
100
AcDbEntity
8
SIG0015PB_AMPLIACION
6
ByLayer
62
256
370
-1
100
AcDbLine
10
30.0991447824
20
-203.661110119
11
30.0991447824
21
-202.461116054
0
LINE
5
252
100
AcDbEntity
8
SIG0015PB_AMPLIACION
6
ByLayer
62
256
370
-1
100
AcDbLine
10
29.7991447824
20
-203.661110119
11
29.7991447824
21
-202.461116054
0
LINE
5
253
100
AcDbEntity
8
SIG0015PB_AMPLIACION
6
ByLayer
62
256
370
-1
100
AcDbLine
10
11.1725619961
20
-190.861116183
11
12.2225447862
21
-190.861113746
0
LINE
5
254
100
AcDbEntity
8
SIG0015PB_AMPLIACION
6
ByLayer
62
256
370
-1
100
AcDbLine
10
11.1725626923
20
-191.161116183
11
12.2225425385
21
-191.161113746
0
LINE
5
255
100
AcDbEntity
8
SIG0015PB_AMPLIACION
6
ByLayer
62
256
370
-1
100
AcDbLine
10
11.1725633885
20
-191.461116183
11
12.2225402907
21
-191.461113746
0
LINE
5
256
100
AcDbEntity
8
SIG0015PB_AMPLIACION
6
ByLayer
62
256
370
-1
100
AcDbLine
10
11.1725640847
20
-191.761116183
11
12.222538043
21
-191.761113746
0
LINE
5
257
100
AcDbEntity
8
SIG0015PB_AMPLIACION
6
ByLayer
62
256
370
-1
100
AcDbLine
10
11.1725647809
20
-192.061116183
11
12.2225357953
21
-192.061113746
0
LINE
5
258
100
AcDbEntity
8
SIG0015PB_AMPLIACION
6
ByLayer
62
256
370
-1
100
AcDbLine
10
11.1725654771
20
-192.361116183
11
12.2225335475
21
-192.361113746
0
LINE
5
259
100
AcDbEntity
8
SIG0015PB_AMPLIACION
6
ByLayer
62
256
370
-1
100
AcDbLine
10
12.2825312998
20
-192.661113607
11
11.1725661732
21
-192.661116183
0
LINE
5
25A
100
AcDbEntity
8
SIG0015PB_AMPLIACION
6
ByLayer
62
256
370
-1
100
AcDbLine
10
12.8225515294
20
-188.961111871
11
12.8225238074
21
-192.661111871
0
LINE
5
25B
100
AcDbEntity
8
SIG0015PB_AMPLIACION
6
ByLayer
62
256
370
-1
100
AcDbLine
10
12.2825435874
20
-190.021113124
11
12.7625435874
21
-190.02111201
0
LINE
5
25C
100
AcDbEntity
8
SIG0015PB_AMPLIACION
6
ByLayer
62
256
370
-1
100
AcDbLine
10
12.7625435874
20
-190.02111201
11
12.7625238074
21
-192.66111201
0
LINE
5
25D
100
AcDbEntity
8
SIG0015PB_AMPLIACION
6
ByLayer
62
256
370
-1
100
AcDbLine
10
12.7625238074
20
-192.66111201
11
13.8725444148
21
-192.661109434
0
LINE
5
25E
100
AcDbEntity
8
SIG0015PB_AMPLIACION
6
ByLayer
62
256
370
-1
100
AcDbLine
10
12.5225515294
20
-188.961112567
11
12.522544037
21
-189.961112567
0
LINE
5
25F
100
AcDbEntity
8
SIG0015PB_AMPLIACION
6
ByLayer
62
256
370
-1
100
AcDbLine
10
12.2825312998
20
-192.661113607
11
12.2825407686
21
-190.021113124
0
LINE
5
260
100
AcDbEntity
8
SIG0015PB_AMPLIACION
6
ByLayer
62
256
370
-1
100
AcDbLine
10
11.1725641898
20
-190.5611157
11
12.2225395415
21
-190.561113263
0
LINE
5
261
100
AcDbEntity
8
SIG0015PB_AMPLIACION
6
ByLayer
62
256
370
-1
100
AcDbLine
10
12.2225515294
20
-188.961113263
11
12.2225238074
21
-192.661113746
0
LINE
5
262
100
AcDbEntity
8
SIG0015PB_AMPLIACION
6
ByLayer
62
256
370
-1
100
AcDbLine
10
30.6491433367
20
-204.911110025
11
31.8491444965
21
-204.911110025
0
LINE
5
263
100
AcDbEntity
8
SIG0015PB_AMPLIACION
6
ByLayer
62
256
370
-1
100
AcDbLine
10
29.2991447824
20
-202.511116054
11
29.2991447824
21
-203.436116054
0
LINE
5
264
100
AcDbEntity
8
SIG0015PB_AMPLIACION
6
ByLayer
62
256
370
-1
100
AcDbLine
10
28.5960219695
20
-199.202714191
11
28.5960219695
21
-200.952683909
0
LINE
5
265
100
AcDbEntity
8
SIG0015PB_AMPLIACION
6
ByLayer
62
256
370
-1
100
AcDbLine
10
30.1203065357
20
-193.03863444
11
31.5453065357
21
-193.03863444
0
LINE
5
266
100
AcDbEntity
8
SIG0015PB_AMPLIACION
6
ByLayer
62
256
370
-1
100
AcDbLine
10
28.5960218855
20
-191.55406141
11
28.5960216701
21
-192.97906141
0
LINE
5
267
100
AcDbEntity
8
SIG0015PB_AMPLIACION
6
ByLayer
62
256
370
-1
100
AcDbLine
10
26.2960216701
20
-202.025518763
11
26.2960216701
21
-201.100518763
0
LINE
5
268
100
AcDbEntity
8
SIG0015PB_AMPLIACION
6
ByLayer
62
256
370
-1
100
AcDbLine
10
24.6479598829
20
-202.086126605
11
24.6479598829
21
-201.261126605
0
LINE
5
269
100
AcDbEntity
8
SIG0015PB_AMPLIACION
6
ByLayer
62
256
370
-1
100
AcDbLine
10
24.6479598848
20
-201.061126605
11
24.6479598848
21
-200.236126605
0
LINE
5
26A
100
AcDbEntity
8
SIG0015PB_AMPLIACION
6
ByLayer
62
256
370
-1
100
AcDbLine
10
26.4460216854
20
-197.55751426
11
26.4460216394
21
-196.634780598
0
LINE
5
26B
100
AcDbEntity
8
SIG0015PB_AMPLIACION
6
ByLayer
62
256
370
-1
100
AcDbLine
10
26.4460216854
20
-197.55751426
11
26.2960216854
21
-197.55751426
0
LINE
5
26C
100
AcDbEntity
8
SIG0015PB_AMPLIACION
6
ByLayer
62
256
370
-1
100
AcDbLine
10
26.4460216701
20
-201.100518763
11
26.4460216854
21
-198.48251426
0
LINE
5
26D
100
AcDbEntity
8
SIG0015PB_AMPLIACION
6
ByLayer
62
256
370
-1
100
AcDbLine
10
26.4460216854
20
-198.48251426
11
26.2960216701
21
-198.48251426
0
LINE
5
26E
100
AcDbEntity
8
SIG0015PB_AMPLIACION
6
ByLayer
62
256
370
-1
100
AcDbLine
10
26.3710216854
20
-197.55751426
11
26.3710216777
21
-198.48251426
0
LINE
5
26F
100
AcDbEntity
8
SIG0015PB_AMPLIACION
6
ByLayer
62
256
370
-1
100
AcDbLine
10
26.5960519526
20
-188.661110724
11
28.3460216701
21
-188.661110724
0
LINE
5
270
100
AcDbEntity
8
SIG0015PB_AMPLIACION
6
ByLayer
62
256
370
-1
100
AcDbLine
10
26.2960216701
20
-191.647946181
11
26.2960216701
21
-190.822946181
0
LINE
5
271
100
AcDbEntity
8
SIG0015PB_AMPLIACION
6
ByLayer
62
256
370
-1
100
AcDbLine
10
24.2549316704
20
-190.69358851
11
24.254931672
21
-191.51858851
0
LINE
5
272
100
AcDbEntity
8
SIG0015PB_AMPLIACION
6
ByLayer
62
256
370
-1
100
AcDbLine
10
23.66589474
20
-196.784780599
11
24.49089474
21
-196.784780598
0
LINE
5
273
100
AcDbEntity
8
SIG0015PB_AMPLIACION
6
ByLayer
62
256
370
-1
100
AcDbLine
10
18.4424316704
20
-194.484781642
11
19.8674316704
21
-194.484781642
0
LINE
5
274
100
AcDbEntity
8
SIG0015PB_AMPLIACION
6
ByLayer
62
256
370
-1
100
AcDbLine
10
15.5076467544
20
-194.759811924
11
15.5076467544
21
-196.509781642
0
LINE
5
275
100
AcDbEntity
8
SIG0015PB_AMPLIACION
6
ByLayer
62
256
370
-1
100
AcDbLine
10
12.8855269938
20
-193.811110202
11
13.8105269938
21
-193.811110202
0
LINE
5
276
100
AcDbEntity
8
SIG0015PB_AMPLIACION
6
ByLayer
62
256
370
-1
100
AcDbLine
10
16.8076468195
20
-196.784781626
11
18.2326468195
21
-196.784781626
0
LINE
5
277
100
AcDbEntity
8
SIG0015PB_AMPLIACION
6
ByLayer
62
256
370
-1
100
AcDbLine
10
13.7745860385
20
-196.784781642
11
15.1995860385
21
-196.784781642
0
LINE
5
278
100
AcDbEntity
8
SIG0015PB_AMPLIACION
6
ByLayer
62
256
370
-1
100
AcDbLine
10
11.9995860385
20
-196.784781642
11
13.4245860385
21
-196.784781642
0
LINE
5
279
100
AcDbEntity
8
SIG0015PB_AMPLIACION
6
ByLayer
62
256
370
-1
100
AcDbLine
10
8.37584279565
20
-188.961110202
11
10.1758125131
21
-188.961110202
0
LINE
5
27A
100
AcDbEntity
8
SIG0015PB_AMPLIACION
6
ByLayer
62
256
370
-1
100
AcDbLine
10
-12.0132872638
20
-194.643897324
11
-11.2178462515
21
-196.478910565
0
LINE
5
27B
100
AcDbEntity
8
SIG0015PB_AMPLIACION
6
ByLayer
62
256
370
-1
100
AcDbLine
10
25.2299316704
20
-191.847946181
11
24.404931672
21
-191.847946181
0
LINE
5
27C
100
AcDbEntity
8
SIG0015PB_AMPLIACION
6
ByLayer
62
256
370
-1
100
AcDbLine
10
-11.7380352776
20
-194.524581172
11
-14.1496869274
21
-188.961110542
0
LINE
5
27D
100
AcDbEntity
8
SIG0015PB_AMPLIACION
6
ByLayer
62
256
370
-1
100
AcDbLine
10
-14.1496869274
20
-188.961110542
11
-13.5340300438
21
-188.961110202
0
LINE
5
27E
100
AcDbEntity
8
SIG0015PB_AMPLIACION
6
ByLayer
62
256
370
-1
100
AcDbLine
10
-8.38439984022
20
-202.261126483
11
-10.9425942653
21
-196.359594414
0
LINE
5
27F
100
AcDbEntity
8
SIG0015PB_AMPLIACION
6
ByLayer
62
256
370
-1
100
AcDbLine
10
-8.34425392778
20
-202.261126481
11
-8.38439984022
21
-202.261126483
0
LINE
5
280
100
AcDbEntity
8
SIG0015PB_AMPLIACION
6
ByLayer
62
256
370
-1
100
AcDbLine
10
25.5530877895
20
-202.261126604
11
24.8030877895
21
-202.261126604
0
LINE
5
281
100
AcDbEntity
8
SIG0015PB_AMPLIACION
6
ByLayer
62
256
370
-1
100
AcDbLine
10
25.5530877895
20
-202.361126604
11
24.8030877895
21
-202.361126604
0
LINE
5
282
100
AcDbEntity
8
SIG0015PB_AMPLIACION
6
ByLayer
62
256
370
-1
100
AcDbLine
10
25.6030877895
20
-202.561126604
11
25.6030877895
21
-202.611126604
0
LINE
5
283
100
AcDbEntity
8
SIG0015PB_AMPLIACION
6
ByLayer
62
256
370
-1
100
AcDbLine
10
25.6030877895
20
-202.611126604
11
24.7530877895
21
-202.611126604
0
LINE
5
284
100
AcDbEntity
8
SIG0015PB_AMPLIACION
6
ByLayer
62
256
370
-1
100
AcDbLine
10
24.7530877895
20
-202.611126604
11
24.7530877895
21
-202.561126604
0
LINE
5
285
100
AcDbEntity
8
SIG0015PB_AMPLIACION
6
ByLayer
62
256
370
-1
100
AcDbLine
10
24.0530877895
20
-202.261126604
11
23.3030877895
21
-202.261126604
0
LINE
5
286
100
AcDbEntity
8
SIG0015PB_AMPLIACION
6
ByLayer
62
256
370
-1
100
AcDbLine
10
24.0530877895
20
-202.361126604
11
23.3030877895
21
-202.361126604
0
LINE
5
287
100
AcDbEntity
8
SIG0015PB_AMPLIACION
6
ByLayer
62
256
370
-1
100
AcDbLine
10
24.1030877895
20
-202.561126604
11
24.1030877895
21
-202.611126604
0
LINE
5
288
100
AcDbEntity
8
SIG0015PB_AMPLIACION
6
ByLayer
62
256
370
-1
100
AcDbLine
10
24.1030877895
20
-202.611126604
11
23.2530877895
21
-202.611126604
0
LINE
5
289
100
AcDbEntity
8
SIG0015PB_AMPLIACION
6
ByLayer
62
256
370
-1
100
AcDbLine
10
23.2530877895
20
-202.611126604
11
23.2530877895
21
-202.561126604
0
LINE
5
28A
100
AcDbEntity
8
SIG0015PB_AMPLIACION
6
ByLayer
62
256
370
-1
100
AcDbLine
10
16.8549316704
20
-202.261127648
11
18.6549316704
21
-202.261127648
0
LINE
5
28B
100
AcDbEntity
8
SIG0015PB_AMPLIACION
6
ByLayer
62
256
370
-1
100
AcDbLine
10
16.8549316704
20
-202.361127648
11
18.6549316704
21
-202.361127648
0
LINE
5
28C
100
AcDbEntity
8
SIG0015PB_AMPLIACION
6
ByLayer
62
256
370
-1
100
AcDbLine
10
16.8049316704
20
-202.561127194
11
16.8049316704
21
-202.611127194
0
LINE
5
28D
100
AcDbEntity
8
SIG0015PB_AMPLIACION
6
ByLayer
62
256
370
-1
100
AcDbLine
10
16.8049316704
20
-202.611127194
11
18.7049316704
21
-202.611127194
0
LINE
5
28E
100
AcDbEntity
8
SIG0015PB_AMPLIACION
6
ByLayer
62
256
370
-1
100
AcDbLine
10
18.7049316704
20
-202.611127194
11
18.7049316704
21
-202.561127194
0
LINE
5
28F
100
AcDbEntity
8
SIG0015PB_AMPLIACION
6
ByLayer
62
256
370
-1
100
AcDbLine
10
36.6506653197
20
-196.671165904
11
36.6506653197
21
-197.371165904
0
LINE
5
290
100
AcDbEntity
8
SIG0015PB_AMPLIACION
6
ByLayer
62
256
370
-1
100
AcDbLine
10
36.7506653197
20
-196.671165904
11
36.7506653197
21
-197.371165904
0
LINE
5
291
100
AcDbEntity
8
SIG0015PB_AMPLIACION
6
ByLayer
62
256
370
-1
100
AcDbLine
10
19.6549316704
20
-188.961110724
11
21.4549316704
21
-188.961110724
0
LINE
5
292
100
AcDbEntity
8
SIG0015PB_AMPLIACION
6
ByLayer
62
256
370
-1
100
AcDbLine
10
19.6549316704
20
-188.861110724
11
21.4549316704
21
-188.861110724
0
LINE
5
293
100
AcDbEntity
8
SIG0015PB_AMPLIACION
6
ByLayer
62
256
370
-1
100
AcDbLine
10
19.6049316704
20
-188.661110724
11
19.6049316704
21
-188.611110724
0
LINE
5
294
100
AcDbEntity
8
SIG0015PB_AMPLIACION
6
ByLayer
62
256
370
-1
100
AcDbLine
10
19.6049316704
20
-188.611110724
11
21.5049316704
21
-188.611110724
0
LINE
5
295
100
AcDbEntity
8
SIG0015PB_AMPLIACION
6
ByLayer
62
256
370
-1
100
AcDbLine
10
21.5049316704
20
-188.611110724
11
21.5049316704
21
-188.661110724
0
LINE
5
296
100
AcDbEntity
8
SIG0015PB_AMPLIACION
6
ByLayer
62
256
370
-1
100
AcDbLine
10
11.1725454719
20
-200.47247561
11
11.1725454719
21
-198.47247561
0
LINE
5
297
100
AcDbEntity
8
SIG0015PB_AMPLIACION
6
ByLayer
62
256
370
-1
100
AcDbLine
10
11.0225454719
20
-200.47247561
11
11.0225454719
21
-198.47247561
0
LINE
5
298
100
AcDbEntity
8
SIG0015PB_AMPLIACION
6
ByLayer
62
256
370
-1
100
AcDbLine
10
18.6549316704
20
-188.961110724
11
16.8549316704
21
-188.961110724
0
LINE
5
299
100
AcDbEntity
8
SIG0015PB_AMPLIACION
6
ByLayer
62
256
370
-1
100
AcDbLine
10
18.6549316704
20
-188.861110724
11
16.8549316704
21
-188.861110724
0
LINE
5
29A
100
AcDbEntity
8
SIG0015PB_AMPLIACION
6
ByLayer
62
256
370
-1
100
AcDbLine
10
18.7049316704
20
-188.661110724
11
18.7049316704
21
-188.611110724
0
LINE
5
29B
100
AcDbEntity
8
SIG0015PB_AMPLIACION
6
ByLayer
62
256
370
-1
100
AcDbLine
10
18.7049316704
20
-188.611110724
11
16.8049316704
21
-188.611110724
0
LINE
5
29C
100
AcDbEntity
8
SIG0015PB_AMPLIACION
6
ByLayer
62
256
370
-1
100
AcDbLine
10
16.8049316704
20
-188.611110724
11
16.8049316704
21
-188.661110724
0
LINE
5
29D
100
AcDbEntity
8
SIG0015PB_AMPLIACION
6
ByLayer
62
256
370
-1
100
AcDbLine
10
15.8549316704
20
-188.961109503
11
14.0549316704
21
-188.961109503
0
LINE
5
29E
100
AcDbEntity
8
SIG0015PB_AMPLIACION
6
ByLayer
62
256
370
-1
100
AcDbLine
10
15.8549316704
20
-188.861109503
11
14.0549316704
21
-188.861109503
0
LINE
5
29F
100
AcDbEntity
8
SIG0015PB_AMPLIACION
6
ByLayer
62
256
370
-1
100
AcDbLine
10
15.9049316704
20
-188.661109503
11
15.9049316704
21
-188.611109503
0
LINE
5
2A0
100
AcDbEntity
8
SIG0015PB_AMPLIACION
6
ByLayer
62
256
370
-1
100
AcDbLine
10
15.9049316704
20
-188.611109503
11
14.0049316704
21
-188.611109503
0
LINE
5
2A1
100
AcDbEntity
8
SIG0015PB_AMPLIACION
6
ByLayer
62
256
370
-1
100
AcDbLine
10
14.0049316704
20
-188.611109503
11
14.0049316704
21
-188.661109503
0
LINE
5
2A2
100
AcDbEntity
8
SIG0015PB_AMPLIACION
6
ByLayer
62
256
370
-1
100
AcDbLine
10
29.6491438621
20
-188.961111767
11
31.4491438621
21
-188.961111495
0
LINE
5
2A3
100
AcDbEntity
8
SIG0015PB_AMPLIACION
6
ByLayer
62
256
370
-1
100
AcDbLine
10
29.6491438621
20
-188.861111767
11
31.4491438621
21
-188.861111495
0
LINE
5
2A4
100
AcDbEntity
8
SIG0015PB_AMPLIACION
6
ByLayer
62
256
370
-1
100
AcDbLine
10
29.5991438621
20
-188.661111767
11
29.5991438621
21
-188.611111767
0
LINE
5
2A5
100
AcDbEntity
8
SIG0015PB_AMPLIACION
6
ByLayer
62
256
370
-1
100
AcDbLine
10
29.5991438621
20
-188.611111767
11
31.4991438621
21
-188.611111495
0
LINE
5
2A6
100
AcDbEntity
8
SIG0015PB_AMPLIACION
6
ByLayer
62
256
370
-1
100
AcDbLine
10
31.4991438621
20
-188.611111495
11
31.4991438621
21
-188.661111495
0
LINE
5
2A7
100
AcDbEntity
8
SIG0015PB_AMPLIACION
6
ByLayer
62
256
370
-1
100
AcDbLine
10
32.4491438621
20
-188.961110724
11
34.2491438621
21
-188.961111426
0
LINE
5
2A8
100
AcDbEntity
8
SIG0015PB_AMPLIACION
6
ByLayer
62
256
370
-1
100
AcDbLine
10
32.4491438621
20
-188.861110724
11
34.2491438621
21
-188.861111426
0
LINE
5
2A9
100
AcDbEntity
8
SIG0015PB_AMPLIACION
6
ByLayer
62
256
370
-1
100
AcDbLine
10
32.3991438621
20
-188.661110724
11
32.3991438621
21
-188.611110724
0
LINE
5
2AA
100
AcDbEntity
8
SIG0015PB_AMPLIACION
6
ByLayer
62
256
370
-1
100
AcDbLine
10
32.3991438621
20
-188.611110724
11
34.2991438621
21
-188.611111426
0
LINE
5
2AB
100
AcDbEntity
8
SIG0015PB_AMPLIACION
6
ByLayer
62
256
370
-1
100
AcDbLine
10
34.2991438621
20
-188.611111426
11
34.2991438621
21
-188.661111426
0
LINE
5
2AC
100
AcDbEntity
8
SIG0015PB_AMPLIACION
6
ByLayer
62
256
370
-1
100
AcDbLine
10
33.5248947557
20
-202.261127651
11
35.3248947557
21
-202.261127651
0
LINE
5
2AD
100
AcDbEntity
8
SIG0015PB_AMPLIACION
6
ByLayer
62
256
370
-1
100
AcDbLine
10
33.5248947557
20
-202.361127651
11
35.3248947557
21
-202.361127651
0
LINE
5
2AE
100
AcDbEntity
8
SIG0015PB_AMPLIACION
6
ByLayer
62
256
370
-1
100
AcDbLine
10
33.4748947557
20
-202.561127651
11
33.4748947557
21
-202.611127651
0
LINE
5
2AF
100
AcDbEntity
8
SIG0015PB_AMPLIACION
6
ByLayer
62
256
370
-1
100
AcDbLine
10
33.4748947557
20
-202.611127651
11
35.3748947557
21
-202.611127651
0
LINE
5
2B0
100
AcDbEntity
8
SIG0015PB_AMPLIACION
6
ByLayer
62
256
370
-1
100
AcDbLine
10
35.3748947557
20
-202.611127651
11
35.3748947557
21
-202.561127651
0
LINE
5
2B1
100
AcDbEntity
8
SIG0015PB_AMPLIACION
6
ByLayer
62
256
370
-1
100
AcDbLine
10
36.6506535161
20
-190.250269125
11
36.6506474651
21
-192.050269125
0
LINE
5
2B2
100
AcDbEntity
8
SIG0015PB_AMPLIACION
6
ByLayer
62
256
370
-1
100
AcDbLine
10
36.7506535161
20
-190.250269125
11
36.7506474651
21
-192.050269125
0
LINE
5
2B3
100
AcDbEntity
8
SIG0015PB_AMPLIACION
6
ByLayer
62
256
370
-1
100
AcDbLine
10
36.9506535161
20
-190.200269125
11
37.0006535161
21
-190.200269125
0
LINE
5
2B4
100
AcDbEntity
8
SIG0015PB_AMPLIACION
6
ByLayer
62
256
370
-1
100
AcDbLine
10
37.0006535161
20
-190.200269125
11
37.0006474651
21
-192.100269125
0
LINE
5
2B5
100
AcDbEntity
8
SIG0015PB_AMPLIACION
6
ByLayer
62
256
370
-1
100
AcDbLine
10
37.0006474651
20
-192.100269125
11
36.9506474651
21
-192.100269125
0
LINE
5
2B6
100
AcDbEntity
8
SIG0015PB_AMPLIACION
6
ByLayer
62
256
370
-1
100
AcDbLine
10
36.6506456492
20
-200.972062684
11
36.6506474651
21
-199.172062684
0
LINE
5
2B7
100
AcDbEntity
8
SIG0015PB_AMPLIACION
6
ByLayer
62
256
370
-1
100
AcDbLine
10
36.7506456492
20
-200.972062684
11
36.7506474651
21
-199.172062684
0
LINE
5
2B8
100
AcDbEntity
8
SIG0015PB_AMPLIACION
6
ByLayer
62
256
370
-1
100
AcDbLine
10
36.9506456492
20
-201.022062684
11
37.0006456492
21
-201.022062684
0
LINE
5
2B9
100
AcDbEntity
8
SIG0015PB_AMPLIACION
6
ByLayer
62
256
370
-1
100
AcDbLine
10
37.0006456492
20
-201.022062684
11
37.0006474651
21
-199.122062684
0
LINE
5
2BA
100
AcDbEntity
8
SIG0015PB_AMPLIACION
6
ByLayer
62
256
370
-1
100
AcDbLine
10
37.0006474651
20
-199.122062684
11
36.9506474651
21
-199.122062684
0
LINE
5
2BB
100
AcDbEntity
8
SIG0015PB_AMPLIACION
6
ByLayer
62
256
370
-1
100
AcDbLine
10
14.0549322977
20
-202.261127629
11
15.8549322977
21
-202.261127629
0
LINE
5
2BC
100
AcDbEntity
8
SIG0015PB_AMPLIACION
6
ByLayer
62
256
370
-1
100
AcDbLine
10
14.0549322977
20
-202.361127629
11
15.8549322977
21
-202.361127629
0
LINE
5
2BD
100
AcDbEntity
8
SIG0015PB_AMPLIACION
6
ByLayer
62
256
370
-1
100
AcDbLine
10
14.0049316704
20
-202.561127194
11
14.0049316704
21
-202.611127194
0
LINE
5
2BE
100
AcDbEntity
8
SIG0015PB_AMPLIACION
6
ByLayer
62
256
370
-1
100
AcDbLine
10
14.0049316704
20
-202.611127194
11
15.9049316704
21
-202.611127194
0
LINE
5
2BF
100
AcDbEntity
8
SIG0015PB_AMPLIACION
6
ByLayer
62
256
370
-1
100
AcDbLine
10
15.9049316704
20
-202.611127194
11
15.9049316704
21
-202.561127194
0
LINE
5
2C0
100
AcDbEntity
8
SIG0015PB_AMPLIACION
6
ByLayer
62
256
370
-1
100
AcDbLine
10
11.5049322977
20
-202.261133484
11
13.3049322977
21
-202.261133484
0
LINE
5
2C1
100
AcDbEntity
8
SIG0015PB_AMPLIACION
6
ByLayer
62
256
370
-1
100
AcDbLine
10
11.5049322977
20
-202.361133484
11
13.3049322977
21
-202.361133484
0
LINE
5
2C2
100
AcDbEntity
8
SIG0015PB_AMPLIACION
6
ByLayer
62
256
370
-1
100
AcDbLine
10
11.4549316704
20
-202.561133898
11
11.4549316704
21
-202.611133898
0
LINE
5
2C3
100
AcDbEntity
8
SIG0015PB_AMPLIACION
6
ByLayer
62
256
370
-1
100
AcDbLine
10
11.4549316704
20
-202.611133898
11
13.3549316704
21
-202.611133898
0
LINE
5
2C4
100
AcDbEntity
8
SIG0015PB_AMPLIACION
6
ByLayer
62
256
370
-1
100
AcDbLine
10
13.3549316704
20
-202.611133898
11
13.3549316704
21
-202.561133898
0
LINE
5
2C5
100
AcDbEntity
8
SIG0015PB_AMPLIACION
6
ByLayer
62
256
370
-1
100
AcDbLine
10
-7.87269955904
20
-202.261126521
11
-7.12269955904
21
-202.261126521
0
LINE
5
2C6
100
AcDbEntity
8
SIG0015PB_AMPLIACION
6
ByLayer
62
256
370
-1
100
AcDbLine
10
-7.87269955904
20
-202.361126521
11
-7.12269955904
21
-202.361126521
0
LINE
5
2C7
100
AcDbEntity
8
SIG0015PB_AMPLIACION
6
ByLayer
62
256
370
-1
100
AcDbLine
10
-7.92269955904
20
-202.561125336
11
-7.92269955904
21
-202.611125336
0
LINE
5
2C8
100
AcDbEntity
8
SIG0015PB_AMPLIACION
6
ByLayer
62
256
370
-1
100
AcDbLine
10
-7.92269955904
20
-202.611125336
11
-7.07269955904
21
-202.611125336
0
LINE
5
2C9
100
AcDbEntity
8
SIG0015PB_AMPLIACION
6
ByLayer
62
256
370
-1
100
AcDbLine
10
-7.07269955904
20
-202.611125336
11
-7.07269955904
21
-202.561125336
0
LINE
5
2CA
100
AcDbEntity
8
SIG0015PB_AMPLIACION
6
ByLayer
62
256
370
-1
100
AcDbLine
10
22.4549316704
20
-188.961110724
11
24.2549316704
21
-188.961110451
0
LINE
5
2CB
100
AcDbEntity
8
SIG0015PB_AMPLIACION
6
ByLayer
62
256
370
-1
100
AcDbLine
10
22.4549316704
20
-188.861110724
11
24.2549316704
21
-188.861110451
0
LINE
5
2CC
100
AcDbEntity
8
SIG0015PB_AMPLIACION
6
ByLayer
62
256
370
-1
100
AcDbLine
10
22.4049316704
20
-188.661110724
11
22.4049316704
21
-188.611110724
0
LINE
5
2CD
100
AcDbEntity
8
SIG0015PB_AMPLIACION
6
ByLayer
62
256
370
-1
100
AcDbLine
10
22.4049316704
20
-188.611110724
11
24.3049316704
21
-188.611110451
0
LINE
5
2CE
100
AcDbEntity
8
SIG0015PB_AMPLIACION
6
ByLayer
62
256
370
-1
100
AcDbLine
10
24.3049316704
20
-188.611110451
11
24.3049316704
21
-188.661110451
0
LINE
5
2CF
100
AcDbEntity
8
SIG0015PB_AMPLIACION
6
ByLayer
62
256
370
-1
100
AcDbLine
10
36.6506653197
20
-195.261165904
11
36.6506653197
21
-195.961165904
0
LINE
5
2D0
100
AcDbEntity
8
SIG0015PB_AMPLIACION
6
ByLayer
62
256
370
-1
100
AcDbLine
10
36.7506653197
20
-195.261165904
11
36.7506653197
21
-195.961165904
0
LINE
5
2D1
100
AcDbEntity
8
SIG0015PB_AMPLIACION
6
ByLayer
62
256
370
-1
100
AcDbLine
10
36.6506653197
20
-193.851165904
11
36.6506653197
21
-194.551165904
0
LINE
5
2D2
100
AcDbEntity
8
SIG0015PB_AMPLIACION
6
ByLayer
62
256
370
-1
100
AcDbLine
10
36.7506653197
20
-193.851165904
11
36.7506653197
21
-194.551165904
0
LINE
5
2D3
100
AcDbEntity
8
SIG0015PB_AMPLIACION
6
ByLayer
62
256
370
-1
100
AcDbLine
10
19.4049316704
20
-202.261127648
11
21.2049316704
21
-202.261127648
0
LINE
5
2D4
100
AcDbEntity
8
SIG0015PB_AMPLIACION
6
ByLayer
62
256
370
-1
100
AcDbLine
10
19.4049316704
20
-202.361127648
11
21.2049316704
21
-202.361127648
0
LINE
5
2D5
100
AcDbEntity
8
SIG0015PB_AMPLIACION
6
ByLayer
62
256
370
-1
100
AcDbLine
10
19.3549316704
20
-202.561127194
11
19.3549316704
21
-202.611127194
0
LINE
5
2D6
100
AcDbEntity
8
SIG0015PB_AMPLIACION
6
ByLayer
62
256
370
-1
100
AcDbLine
10
19.3549316704
20
-202.611127194
11
21.2549316704
21
-202.611127194
0
LINE
5
2D7
100
AcDbEntity
8
SIG0015PB_AMPLIACION
6
ByLayer
62
256
370
-1
100
AcDbLine
10
21.2549316704
20
-202.611127194
11
21.2549316704
21
-202.561127194
0
LINE
5
2D8
100
AcDbEntity
8
SIG0015PB_AMPLIACION
6
ByLayer
62
256
370
-1
100
AcDbLine
10
-6.37269955904
20
-202.261126594
11
-5.62269955904
21
-202.261126594
0
LINE
5
2D9
100
AcDbEntity
8
SIG0015PB_AMPLIACION
6
ByLayer
62
256
370
-1
100
AcDbLine
10
-6.37269955904
20
-202.361126594
11
-5.62269955904
21
-202.361126594
0
LINE
5
2DA
100
AcDbEntity
8
SIG0015PB_AMPLIACION
6
ByLayer
62
256
370
-1
100
AcDbLine
10
-6.42269955904
20
-202.561125408
11
-6.42269955904
21
-202.611125408
0
LINE
5
2DB
100
AcDbEntity
8
SIG0015PB_AMPLIACION
6
ByLayer
62
256
370
-1
100
AcDbLine
10
-6.42269955904
20
-202.611125408
11
-5.57269955904
21
-202.611125408
0
LINE
5
2DC
100
AcDbEntity
8
SIG0015PB_AMPLIACION
6
ByLayer
62
256
370
-1
100
AcDbLine
10
-5.57269955904
20
-202.611125408
11
-5.57269955904
21
-202.561125408
0
LINE
5
2DD
100
AcDbEntity
8
SIG0015PB_AMPLIACION
6
ByLayer
62
256
370
-1
100
AcDbLine
10
-4.87269955904
20
-202.261126666
11
-4.12269955904
21
-202.261126666
0
LINE
5
2DE
100
AcDbEntity
8
SIG0015PB_AMPLIACION
6
ByLayer
62
256
370
-1
100
AcDbLine
10
-4.87269955904
20
-202.361126666
11
-4.12269955904
21
-202.361126666
0
LINE
5
2DF
100
AcDbEntity
8
SIG0015PB_AMPLIACION
6
ByLayer
62
256
370
-1
100
AcDbLine
10
-4.92269955904
20
-202.561125481
11
-4.92269955904
21
-202.611125481
0
LINE
5
2E0
100
AcDbEntity
8
SIG0015PB_AMPLIACION
6
ByLayer
62
256
370
-1
100
AcDbLine
10
-4.92269955904
20
-202.611125481
11
-4.07269955904
21
-202.611125481
0
LINE
5
2E1
100
AcDbEntity
8
SIG0015PB_AMPLIACION
6
ByLayer
62
256
370
-1
100
AcDbLine
10
-4.07269955904
20
-202.611125481
11
-4.07269955904
21
-202.561125481
0
LINE
5
2E2
100
AcDbEntity
8
SIG0015PB_AMPLIACION
6
ByLayer
62
256
370
-1
100
AcDbLine
10
-3.37269955904
20
-202.261126739
11
-2.62269955904
21
-202.261126739
0
LINE
5
2E3
100
AcDbEntity
8
SIG0015PB_AMPLIACION
6
ByLayer
62
256
370
-1
100
AcDbLine
10
-3.37269955904
20
-202.361126739
11
-2.62269955904
21
-202.361126739
0
LINE
5
2E4
100
AcDbEntity
8
SIG0015PB_AMPLIACION
6
ByLayer
62
256
370
-1
100
AcDbLine
10
-3.42269955904
20
-202.561125553
11
-3.42269955904
21
-202.611125553
0
LINE
5
2E5
100
AcDbEntity
8
SIG0015PB_AMPLIACION
6
ByLayer
62
256
370
-1
100
AcDbLine
10
-3.42269955904
20
-202.611125553
11
-2.57269955904
21
-202.611125553
0
LINE
5
2E6
100
AcDbEntity
8
SIG0015PB_AMPLIACION
6
ByLayer
62
256
370
-1
100
AcDbLine
10
-2.57269955904
20
-202.611125553
11
-2.57269955904
21
-202.561125553
0
LINE
5
2E7
100
AcDbEntity
8
SIG0015PB_AMPLIACION
6
ByLayer
62
256
370
-1
100
AcDbLine
10
-1.87269955904
20
-202.261126811
11
-1.12269955904
21
-202.261126811
0
LINE
5
2E8
100
AcDbEntity
8
SIG0015PB_AMPLIACION
6
ByLayer
62
256
370
-1
100
AcDbLine
10
-1.87269955904
20
-202.361126811
11
-1.12269955904
21
-202.361126811
0
LINE
5
2E9
100
AcDbEntity
8
SIG0015PB_AMPLIACION
6
ByLayer
62
256
370
-1
100
AcDbLine
10
-1.92269955904
20
-202.561125626
11
-1.92269955904
21
-202.611125626
0
LINE
5
2EA
100
AcDbEntity
8
SIG0015PB_AMPLIACION
6
ByLayer
62
256
370
-1
100
AcDbLine
10
-1.92269955904
20
-202.611125626
11
-1.07269955904
21
-202.611125626
0
LINE
5
2EB
100
AcDbEntity
8
SIG0015PB_AMPLIACION
6
ByLayer
62
256
370
-1
100
AcDbLine
10
-1.07269955904
20
-202.611125626
11
-1.07269955904
21
-202.561125626
0
LINE
5
2EC
100
AcDbEntity
8
SIG0015PB_AMPLIACION
6
ByLayer
62
256
370
-1
100
AcDbLine
10
-0.372699559043
20
-202.261126884
11
0.377300440957
21
-202.261126884
0
LINE
5
2ED
100
AcDbEntity
8
SIG0015PB_AMPLIACION
6
ByLayer
62
256
370
-1
100
AcDbLine
10
-0.372699559043
20
-202.361126884
11
0.377300440957
21
-202.361126884
0
LINE
5
2EE
100
AcDbEntity
8
SIG0015PB_AMPLIACION
6
ByLayer
62
256
370
-1
100
AcDbLine
10
-0.422699559043
20
-202.561125698
11
-0.422699559043
21
-202.611125698
0
LINE
5
2EF
100
AcDbEntity
8
SIG0015PB_AMPLIACION
6
ByLayer
62
256
370
-1
100
AcDbLine
10
-0.422699559043
20
-202.611125698
11
0.427300440957
21
-202.611125698
0
LINE
5
2F0
100
AcDbEntity
8
SIG0015PB_AMPLIACION
6
ByLayer
62
256
370
-1
100
AcDbLine
10
0.427300440957
20
-202.611125698
11
0.427300440957
21
-202.561125698
0
LINE
5
2F1
100
AcDbEntity
8
SIG0015PB_AMPLIACION
6
ByLayer
62
256
370
-1
100
AcDbLine
10
2.12730044096
20
-202.261127002
11
2.87730044096
21
-202.261127002
0
LINE
5
2F2
100
AcDbEntity
8
SIG0015PB_AMPLIACION
6
ByLayer
62
256
370
-1
100
AcDbLine
10
2.12730044096
20
-202.361127002
11
2.87730044096
21
-202.361127002
0
LINE
5
2F3
100
AcDbEntity
8
SIG0015PB_AMPLIACION
6
ByLayer
62
256
370
-1
100
AcDbLine
10
2.07730044096
20
-202.561125817
11
2.07730044096
21
-202.611125817
0
LINE
5
2F4
100
AcDbEntity
8
SIG0015PB_AMPLIACION
6
ByLayer
62
256
370
-1
100
AcDbLine
10
2.07730044096
20
-202.611125817
11
2.92730044096
21
-202.611125817
0
LINE
5
2F5
100
AcDbEntity
8
SIG0015PB_AMPLIACION
6
ByLayer
62
256
370
-1
100
AcDbLine
10
2.92730044096
20
-202.611125817
11
2.92730044096
21
-202.561125817
0
LINE
5
2F6
100
AcDbEntity
8
SIG0015PB_AMPLIACION
6
ByLayer
62
256
370
-1
100
AcDbLine
10
3.62730044096
20
-202.261127075
11
4.37730044096
21
-202.261127075
0
LINE
5
2F7
100
AcDbEntity
8
SIG0015PB_AMPLIACION
6
ByLayer
62
256
370
-1
100
AcDbLine
10
3.62730044096
20
-202.361127075
11
4.37730044096
21
-202.361127075
0
LINE
5
2F8
100
AcDbEntity
8
SIG0015PB_AMPLIACION
6
ByLayer
62
256
370
-1
100
AcDbLine
10
3.57730044096
20
-202.56112589
11
3.57730044096
21
-202.61112589
0
LINE
5
2F9
100
AcDbEntity
8
SIG0015PB_AMPLIACION
6
ByLayer
62
256
370
-1
100
AcDbLine
10
3.57730044096
20
-202.61112589
11
4.42730044096
21
-202.61112589
0
LINE
5
2FA
100
AcDbEntity
8
SIG0015PB_AMPLIACION
6
ByLayer
62
256
370
-1
100
AcDbLine
10
4.42730044096
20
-202.61112589
11
4.42730044096
21
-202.56112589
0
LINE
5
2FB
100
AcDbEntity
8
SIG0015PB_AMPLIACION
6
ByLayer
62
256
370
-1
100
AcDbLine
10
5.12730044096
20
-202.261127147
11
5.87730044096
21
-202.261127147
0
LINE
5
2FC
100
AcDbEntity
8
SIG0015PB_AMPLIACION
6
ByLayer
62
256
370
-1
100
AcDbLine
10
5.12730044096
20
-202.361127147
11
5.87730044096
21
-202.361127147
0
LINE
5
2FD
100
AcDbEntity
8
SIG0015PB_AMPLIACION
6
ByLayer
62
256
370
-1
100
AcDbLine
10
5.07730044096
20
-202.561125962
11
5.07730044096
21
-202.611125962
0
LINE
5
2FE
100
AcDbEntity
8
SIG0015PB_AMPLIACION
6
ByLayer
62
256
370
-1
100
AcDbLine
10
5.07730044096
20
-202.611125962
11
5.92730044096
21
-202.611125962
0
LINE
5
2FF
100
AcDbEntity
8
SIG0015PB_AMPLIACION
6
ByLayer
62
256
370
-1
100
AcDbLine
10
5.92730044096
20
-202.611125962
11
5.92730044096
21
-202.561125962
0
LINE
5
300
100
AcDbEntity
8
SIG0015PB_AMPLIACION
6
ByLayer
62
256
370
-1
100
AcDbLine
10
6.62730044096
20
-202.26112722
11
7.37730044096
21
-202.26112722
0
LINE
5
301
100
AcDbEntity
8
SIG0015PB_AMPLIACION
6
ByLayer
62
256
370
-1
100
AcDbLine
10
6.62730044096
20
-202.36112722
11
7.37730044096
21
-202.36112722
0
LINE
5
302
100
AcDbEntity
8
SIG0015PB_AMPLIACION
6
ByLayer
62
256
370
-1
100
AcDbLine
10
6.57730044096
20
-202.561126035
11
6.57730044096
21
-202.611126035
0
LINE
5
303
100
AcDbEntity
8
SIG0015PB_AMPLIACION
6
ByLayer
62
256
370
-1
100
AcDbLine
10
6.57730044096
20
-202.611126035
11
7.42730044096
21
-202.611126035
0
LINE
5
304
100
AcDbEntity
8
SIG0015PB_AMPLIACION
6
ByLayer
62
256
370
-1
100
AcDbLine
10
7.42730044096
20
-202.611126035
11
7.42730044096
21
-202.561126035
0
LINE
5
305
100
AcDbEntity
8
SIG0015PB_AMPLIACION
6
ByLayer
62
256
370
-1
100
AcDbLine
10
8.12730044096
20
-202.261127293
11
8.87730044096
21
-202.261127293
0
LINE
5
306
100
AcDbEntity
8
SIG0015PB_AMPLIACION
6
ByLayer
62
256
370
-1
100
AcDbLine
10
8.12730044096
20
-202.361127293
11
8.87730044096
21
-202.361127293
0
LINE
5
307
100
AcDbEntity
8
SIG0015PB_AMPLIACION
6
ByLayer
62
256
370
-1
100
AcDbLine
10
8.07730044096
20
-202.561126107
11
8.07730044096
21
-202.611126107
0
LINE
5
308
100
AcDbEntity
8
SIG0015PB_AMPLIACION
6
ByLayer
62
256
370
-1
100
AcDbLine
10
8.07730044096
20
-202.611126107
11
8.92730044096
21
-202.611126107
0
LINE
5
309
100
AcDbEntity
8
SIG0015PB_AMPLIACION
6
ByLayer
62
256
370
-1
100
AcDbLine
10
8.92730044096
20
-202.611126107
11
8.92730044096
21
-202.561126107
0
LINE
5
30A
100
AcDbEntity
8
SIG0015PB_AMPLIACION
6
ByLayer
62
256
370
-1
100
AcDbLine
10
9.62730044096
20
-202.261127365
11
10.377300441
21
-202.261127365
0
LINE
5
30B
100
AcDbEntity
8
SIG0015PB_AMPLIACION
6
ByLayer
62
256
370
-1
100
AcDbLine
10
9.62730044096
20
-202.361127365
11
10.377300441
21
-202.361127365
0
LINE
5
30C
100
AcDbEntity
8
SIG0015PB_AMPLIACION
6
ByLayer
62
256
370
-1
100
AcDbLine
10
9.57730044096
20
-202.56112618
11
9.57730044096
21
-202.61112618
0
LINE
5
30D
100
AcDbEntity
8
SIG0015PB_AMPLIACION
6
ByLayer
62
256
370
-1
100
AcDbLine
10
9.57730044096
20
-202.61112618
11
10.427300441
21
-202.61112618
0
LINE
5
30E
100
AcDbEntity
8
SIG0015PB_AMPLIACION
6
ByLayer
62
256
370
-1
100
AcDbLine
10
10.427300441
20
-202.61112618
11
10.427300441
21
-202.56112618
0
LINE
5
30F
100
AcDbEntity
8
SIG0015PB_AMPLIACION
6
ByLayer
62
256
370
-1
100
AcDbLine
10
-2.94769955904
20
-188.961110207
11
-2.19769955904
21
-188.961110207
0
LINE
5
310
100
AcDbEntity
8
SIG0015PB_AMPLIACION
6
ByLayer
62
256
370
-1
100
AcDbLine
10
-2.94769955904
20
-188.861110207
11
-2.19769955904
21
-188.861110207
0
LINE
5
311
100
AcDbEntity
8
SIG0015PB_AMPLIACION
6
ByLayer
62
256
370
-1
100
AcDbLine
10
-2.99769955904
20
-188.661111392
11
-2.99769955904
21
-188.611111392
0
LINE
5
312
100
AcDbEntity
8
SIG0015PB_AMPLIACION
6
ByLayer
62
256
370
-1
100
AcDbLine
10
-2.99769955904
20
-188.611111392
11
-2.14769955904
21
-188.611111392
0
LINE
5
313
100
AcDbEntity
8
SIG0015PB_AMPLIACION
6
ByLayer
62
256
370
-1
100
AcDbLine
10
-2.14769955904
20
-188.611111392
11
-2.14769955904
21
-188.661111392
0
LINE
5
314
100
AcDbEntity
8
SIG0015PB_AMPLIACION
6
ByLayer
62
256
370
-1
100
AcDbLine
10
-1.44769955904
20
-188.961110207
11
-0.697699559043
21
-188.961110207
0
LINE
5
315
100
AcDbEntity
8
SIG0015PB_AMPLIACION
6
ByLayer
62
256
370
-1
100
AcDbLine
10
-1.44769955904
20
-188.861110207
11
-0.697699559043
21
-188.861110207
0
LINE
5
316
100
AcDbEntity
8
SIG0015PB_AMPLIACION
6
ByLayer
62
256
370
-1
100
AcDbLine
10
-1.49769955904
20
-188.661111392
11
-1.49769955904
21
-188.611111392
0
LINE
5
317
100
AcDbEntity
8
SIG0015PB_AMPLIACION
6
ByLayer
62
256
370
-1
100
AcDbLine
10
-1.49769955904
20
-188.611111392
11
-0.647699559043
21
-188.611111392
0
LINE
5
318
100
AcDbEntity
8
SIG0015PB_AMPLIACION
6
ByLayer
62
256
370
-1
100
AcDbLine
10
-0.647699559043
20
-188.611111392
11
-0.647699559043
21
-188.661111392
0
LINE
5
319
100
AcDbEntity
8
SIG0015PB_AMPLIACION
6
ByLayer
62
256
370
-1
100
AcDbLine
10
0.0523004409574
20
-188.961110207
11
0.802300440957
21
-188.961110207
0
LINE
5
31A
100
AcDbEntity
8
SIG0015PB_AMPLIACION
6
ByLayer
62
256
370
-1
100
AcDbLine
10
0.0523004409574
20
-188.861110207
11
0.802300440957
21
-188.861110207
0
LINE
5
31B
100
AcDbEntity
8
SIG0015PB_AMPLIACION
6
ByLayer
62
256
370
-1
100
AcDbLine
10
0.0023004409575
20
-188.661111392
11
0.0023004409575
21
-188.611111392
0
LINE
5
31C
100
AcDbEntity
8
SIG0015PB_AMPLIACION
6
ByLayer
62
256
370
-1
100
AcDbLine
10
0.0023004409575
20
-188.611111392
11
0.852300440957
21
-188.611111392
0
LINE
5
31D
100
AcDbEntity
8
SIG0015PB_AMPLIACION
6
ByLayer
62
256
370
-1
100
AcDbLine
10
0.852300440957
20
-188.611111392
11
0.852300440957
21
-188.661111392
0
LINE
5
31E
100
AcDbEntity
8
SIG0015PB_AMPLIACION
6
ByLayer
62
256
370
-1
100
AcDbLine
10
1.55230044096
20
-188.961110207
11
2.30230044096
21
-188.961110207
0
LINE
5
31F
100
AcDbEntity
8
SIG0015PB_AMPLIACION
6
ByLayer
62
256
370
-1
100
AcDbLine
10
1.55230044096
20
-188.861110207
11
2.30230044096
21
-188.861110207
0
LINE
5
320
100
AcDbEntity
8
SIG0015PB_AMPLIACION
6
ByLayer
62
256
370
-1
100
AcDbLine
10
1.50230044096
20
-188.661111392
11
1.50230044096
21
-188.611111392
0
LINE
5
321
100
AcDbEntity
8
SIG0015PB_AMPLIACION
6
ByLayer
62
256
370
-1
100
AcDbLine
10
1.50230044096
20
-188.611111392
11
2.35230044096
21
-188.611111392
0
LINE
5
322
100
AcDbEntity
8
SIG0015PB_AMPLIACION
6
ByLayer
62
256
370
-1
100
AcDbLine
10
2.35230044096
20
-188.611111392
11
2.35230044096
21
-188.661111392
0
LINE
5
323
100
AcDbEntity
8
SIG0015PB_AMPLIACION
6
ByLayer
62
256
370
-1
100
AcDbLine
10
3.05230044096
20
-188.961110207
11
3.80230044096
21
-188.961110207
0
LINE
5
324
100
AcDbEntity
8
SIG0015PB_AMPLIACION
6
ByLayer
62
256
370
-1
100
AcDbLine
10
3.05230044096
20
-188.861110207
11
3.80230044096
21
-188.861110207
0
LINE
5
325
100
AcDbEntity
8
SIG0015PB_AMPLIACION
6
ByLayer
62
256
370
-1
100
AcDbLine
10
3.00230044096
20
-188.661111392
11
3.00230044096
21
-188.611111392
0
LINE
5
326
100
AcDbEntity
8
SIG0015PB_AMPLIACION
6
ByLayer
62
256
370
-1
100
AcDbLine
10
3.00230044096
20
-188.611111392
11
3.85230044096
21
-188.611111392
0
LINE
5
327
100
AcDbEntity
8
SIG0015PB_AMPLIACION
6
ByLayer
62
256
370
-1
100
AcDbLine
10
3.85230044096
20
-188.611111392
11
3.85230044096
21
-188.661111392
0
LINE
5
328
100
AcDbEntity
8
SIG0015PB_AMPLIACION
6
ByLayer
62
256
370
-1
100
AcDbLine
10
4.55230044096
20
-188.961110207
11
5.30230044096
21
-188.961110207
0
LINE
5
329
100
AcDbEntity
8
SIG0015PB_AMPLIACION
6
ByLayer
62
256
370
-1
100
AcDbLine
10
4.55230044096
20
-188.861110207
11
5.30230044096
21
-188.861110207
0
LINE
5
32A
100
AcDbEntity
8
SIG0015PB_AMPLIACION
6
ByLayer
62
256
370
-1
100
AcDbLine
10
4.50230044096
20
-188.661111392
11
4.50230044096
21
-188.611111392
0
LINE
5
32B
100
AcDbEntity
8
SIG0015PB_AMPLIACION
6
ByLayer
62
256
370
-1
100
AcDbLine
10
4.50230044096
20
-188.611111392
11
5.35230044096
21
-188.611111392
0
LINE
5
32C
100
AcDbEntity
8
SIG0015PB_AMPLIACION
6
ByLayer
62
256
370
-1
100
AcDbLine
10
5.35230044096
20
-188.611111392
11
5.35230044096
21
-188.661111392
0
LINE
5
32D
100
AcDbEntity
8
SIG0015PB_AMPLIACION
6
ByLayer
62
256
370
-1
100
AcDbLine
10
31.8491438621
20
-205.211116054
11
31.8491459769
21
-204.211116054
0
LINE
5
32E
100
AcDbEntity
8
SIG0015PB_AMPLIACION
6
ByLayer
62
256
370
-1
100
AcDbLine
10
31.9491438621
20
-205.211116054
11
31.9491459769
21
-204.211116054
0
LINE
5
32F
100
AcDbEntity
8
SIG0015PB_AMPLIACION
6
ByLayer
62
256
370
-1
100
AcDbLine
10
32.1491438621
20
-205.261116054
11
32.1991438621
21
-205.261116054
0
LINE
5
330
100
AcDbEntity
8
SIG0015PB_AMPLIACION
6
ByLayer
62
256
370
-1
100
AcDbLine
10
32.1991438621
20
-205.261116054
11
32.1991459769
21
-204.161116054
0
LINE
5
331
100
AcDbEntity
8
SIG0015PB_AMPLIACION
6
ByLayer
62
256
370
-1
100
AcDbLine
10
32.1991459769
20
-204.161116054
11
32.1491459769
21
-204.161116054
0
LINE
5
332
100
AcDbEntity
8
SIG0015PB_AMPLIACION
6
ByLayer
62
256
370
-1
100
AcDbLine
10
13.0225221657
20
-188.961113727
11
12.0225221657
21
-188.961111612
0
LINE
5
333
100
AcDbEntity
8
SIG0015PB_AMPLIACION
6
ByLayer
62
256
370
-1
100
AcDbLine
10
13.0225221657
20
-188.861113727
11
12.0225221657
21
-188.861111612
0
LINE
5
334
100
AcDbEntity
8
SIG0015PB_AMPLIACION
6
ByLayer
62
256
370
-1
100
AcDbLine
10
13.0725221657
20
-188.661113727
11
13.0725221657
21
-188.611113727
0
LINE
5
335
100
AcDbEntity
8
SIG0015PB_AMPLIACION
6
ByLayer
62
256
370
-1
100
AcDbLine
10
13.0725221657
20
-188.611113727
11
11.9725221657
21
-188.611111612
0
LINE
5
336
100
AcDbEntity
8
SIG0015PB_AMPLIACION
6
ByLayer
62
256
370
-1
100
AcDbLine
10
11.9725221657
20
-188.611111612
11
11.9725221657
21
-188.661111612
0
LINE
5
337
100
AcDbEntity
8
SIG0015PB_AMPLIACION
6
ByLayer
62
256
370
-1
100
AcDbLine
10
36.9506456492
20
-197.421165904
11
37.0006456492
21
-197.421165904
0
LINE
5
338
100
AcDbEntity
8
SIG0015PB_AMPLIACION
6
ByLayer
62
256
370
-1
100
AcDbLine
10
37.0006456492
20
-197.421165904
11
37.0006456492
21
-196.621165904
0
LINE
5
339
100
AcDbEntity
8
SIG0015PB_AMPLIACION
6
ByLayer
62
256
370
-1
100
AcDbLine
10
37.0006456492
20
-196.621165904
11
36.9506456492
21
-196.621165904
0
LINE
5
33A
100
AcDbEntity
8
SIG0015PB_AMPLIACION
6
ByLayer
62
256
370
-1
100
AcDbLine
10
36.9506456492
20
-196.011165904
11
37.0006456492
21
-196.011165904
0
LINE
5
33B
100
AcDbEntity
8
SIG0015PB_AMPLIACION
6
ByLayer
62
256
370
-1
100
AcDbLine
10
37.0006456492
20
-196.011165904
11
37.0006456492
21
-195.211165904
0
LINE
5
33C
100
AcDbEntity
8
SIG0015PB_AMPLIACION
6
ByLayer
62
256
370
-1
100
AcDbLine
10
37.0006456492
20
-195.211165904
11
36.9506456492
21
-195.211165904
0
LINE
5
33D
100
AcDbEntity
8
SIG0015PB_AMPLIACION
6
ByLayer
62
256
370
-1
100
AcDbLine
10
36.9506456492
20
-194.601165904
11
37.0006456492
21
-194.601165904
0
LINE
5
33E
100
AcDbEntity
8
SIG0015PB_AMPLIACION
6
ByLayer
62
256
370
-1
100
AcDbLine
10
37.0006456492
20
-194.601165904
11
37.0006456492
21
-193.801165904
0
LINE
5
33F
100
AcDbEntity
8
SIG0015PB_AMPLIACION
6
ByLayer
62
256
370
-1
100
AcDbLine
10
37.0006456492
20
-193.801165904
11
36.9506456492
21
-193.801165904
0
ENDSEC
0
SECTION
2
OBJECTS
0
DICTIONARY
5
C
330
0
100
AcDbDictionary
281
1
3
ACAD_GROUP
350
D
0
DICTIONARY
5
D
330
C
100
AcDbDictionary
281
1
0
ENDSEC
0
EOF
