999
dxfrw 0.5.11
0
SECTION
2
HEADER
9
$ACADVER
1
AC1021
9
$HANDSEED
5
20000
9
$DWGCODEPAGE
3
ANSI_1252
9
$INSBASE
10
0
20
0
30
0
9
$EXTMIN
10
717209.169818
20
4251765.57834
30
0
9
$EXTMAX
10
717262.595749
20
4251793.46313
30
0
9
$LIMMIN
10
0
20
0
9
$LIMMAX
10
12
20
9
9
$ORTHOMODE
70
0
9
$LTSCALE
40
1
9
$TEXTSTYLE
7
Standard
9
$CLAYER
8
SIG0015PB_AMPLIACION
9
$DIMASZ
40
0.18
9
$DIMLFAC
40
1
9
$DIMSCALE
40
1
9
$DIMEXO
40
0.0625
9
$DIMEXE
40
0.18
9
$DIMTXT
40
0.18
9
$DIMTSZ
40
0
9
$DIMAUNIT
70
0
9
$DIMADEC
70
0
9
$DIMLUNIT
70
2
9
$DIMSTYLE
2
Standard
9
$DIMGAP
40
0.09
9
$DIMTIH
70
1
9
$LUNITS
70
2
9
$LUPREC
70
4
9
$AUNITS
70
0
9
$AUPREC
70
0
9
$SPLINESEGS
70
8
9
$GRIDMODE
70
0
9
$SNAPSTYLE
70
0
9
$GRIDUNIT
10
0
20
0
9
$PINSBASE
10
0
20
0
30
0
9
$PLIMMIN
10
0
20
0
9
$PLIMMAX
10
12
20
9
9
$INSUNITS
70
6
9
$PSVPSCALE
40
0
0
ENDSEC
0
SECTION
2
CLASSES
0
ENDSEC
0
SECTION
2
TABLES
0
TABLE
2
VPORT
5
8
330
0
100
AcDbSymbolTable
70
1
0
VPORT
5
31
330
2
100
AcDbSymbolTableRecord
100
AcDbViewportTableRecord
2
*ACTIVE
70
0
10
0
20
0
11
1
21
1
12
358636.407931
22
2125903.05482
13
0
23
0
14
10
24
10
15
10
25
10
16
0
26
0
36
1
17
0
27
0
37
0
40
49.7624387714
41
1.3726993865
42
50
43
0
44
0
50
0
51
0
71
0
72
100
73
1
74
3
75
0
76
0
77
0
78
0
281
0
65
1
110
0
120
0
130
0
111
1
121
0
131
0
112
0
122
1
132
0
79
0
146
0
348
10020
60
7
61
5
292
1
282
1
141
0
142
0
63
250
421
3358443
0
ENDTAB
0
TABLE
2
LTYPE
5
5
330
0
100
AcDbSymbolTable
70
4
0
LTYPE
5
14
330
5
100
AcDbSymbolTableRecord
100
AcDbLinetypeTableRecord
2
ByBlock
70
0
3

72
65
73
0
40
0
0
LTYPE
5
15
330
5
100
AcDbSymbolTableRecord
100
AcDbLinetypeTableRecord
2
ByLayer
70
0
3

72
65
73
0
40
0
0
LTYPE
5
16
330
5
100
AcDbSymbolTableRecord
100
AcDbLinetypeTableRecord
2
Continuous
70
0
3
Solid line
72
65
73
0
40
0
0
LTYPE
5
32
330
5
100
AcDbSymbolTableRecord
100
AcDbLinetypeTableRecord
2
DOT
70
0
3
Dot . . . . . . . . . . . . . . . . . . . . . .
72
65
73
2
40
6.35
49
0
74
0
49
-6.35
74
0
0
LTYPE
5
33
330
5
100
AcDbSymbolTableRecord
100
AcDbLinetypeTableRecord
2
DOT2
70
0
3
Dot (.5x) .....................................
72
65
73
2
40
3.175
49
0
74
0
49
-3.175
74
0
0
LTYPE
5
34
330
5
100
AcDbSymbolTableRecord
100
AcDbLinetypeTableRecord
2
DOTX2
70
0
3
Dot (2x) .  .  .  .  .  .  .  .  .  .  .  .  .
72
65
73
2
40
12.7
49
0
74
0
49
-12.7
74
0
0
LTYPE
5
35
330
5
100
AcDbSymbolTableRecord
100
AcDbLinetypeTableRecord
2
DASHED
70
0
3
Dot . . . . . . . . . . . . . . . . . . . . . .
72
65
73
2
40
19.05
49
12.7
74
0
49
-6.35
74
0
0
LTYPE
5
36
330
5
100
AcDbSymbolTableRecord
100
AcDbLinetypeTableRecord
2
DASHED2
70
0
3
Dashed (.5x) _ _ _ _ _ _ _ _ _ _ _ _ _ _ _ _ _
72
65
73
2
40
9.525
49
6.35
74
0
49
-3.175
74
0
0
LTYPE
5
37
330
5
100
AcDbSymbolTableRecord
100
AcDbLinetypeTableRecord
2
DASHEDX2
70
0
3
Dashed (2x) ____  ____  ____  ____  ____  ___
72
65
73
2
40
38.1
49
25.4
74
0
49
-12.7
74
0
0
LTYPE
5
38
330
5
100
AcDbSymbolTableRecord
100
AcDbLinetypeTableRecord
2
DASHDOT
70
0
3
Dash dot __ . __ . __ . __ . __ . __ . __ . __
72
65
73
4
40
25.4
49
12.7
74
0
49
-6.35
74
0
49
0
74
0
49
-6.35
74
0
0
LTYPE
5
39
330
5
100
AcDbSymbolTableRecord
100
AcDbLinetypeTableRecord
2
DASHDOT2
70
0
3
Dash dot (.5x) _._._._._._._._._._._._._._._.
72
65
73
4
40
12.7
49
6.35
74
0
49
-3.175
74
0
49
0
74
0
49
-3.175
74
0
0
LTYPE
5
3A
330
5
100
AcDbSymbolTableRecord
100
AcDbLinetypeTableRecord
2
DASHDOTX2
70
0
3
Dash dot (2x) ____  .  ____  .  ____  .  ___
72
65
73
4
40
50.8
49
25.4
74
0
49
-12.7
74
0
49
0
74
0
49
-12.7
74
0
0
LTYPE
5
3B
330
5
100
AcDbSymbolTableRecord
100
AcDbLinetypeTableRecord
2
DIVIDE
70
0
3
Divide ____ . . ____ . . ____ . . ____ . . ____
72
65
73
6
40
31.75
49
12.7
74
0
49
-6.35
74
0
49
0
74
0
49
-6.35
74
0
49
0
74
0
49
-6.35
74
0
0
LTYPE
5
3C
330
5
100
AcDbSymbolTableRecord
100
AcDbLinetypeTableRecord
2
DIVIDE2
70
0
3
Divide (.5x) __..__..__..__..__..__..__..__.._
72
65
73
6
40
15.875
49
6.35
74
0
49
-3.175
74
0
49
0
74
0
49
-3.175
74
0
49
0
74
0
49
-3.175
74
0
0
LTYPE
5
3D
330
5
100
AcDbSymbolTableRecord
100
AcDbLinetypeTableRecord
2
DIVIDEX2
70
0
3
Divide (2x) ________  .  .  ________  .  .  _
72
65
73
6
40
63.5
49
25.4
74
0
49
-12.7
74
0
49
0
74
0
49
-12.7
74
0
49
0
74
0
49
-12.7
74
0
0
LTYPE
5
3E
330
5
100
AcDbSymbolTableRecord
100
AcDbLinetypeTableRecord
2
BORDER
70
0
3
Border __ __ . __ __ . __ __ . __ __ . __ __ .
72
65
73
6
40
44.45
49
12.7
74
0
49
-6.35
74
0
49
12.7
74
0
49
-6.35
74
0
49
0
74
0
49
-6.35
74
0
0
LTYPE
5
3F
330
5
100
AcDbSymbolTableRecord
100
AcDbLinetypeTableRecord
2
BORDER2
70
0
3
Border (.5x) __.__.__.__.__.__.__.__.__.__.__.
72
65
73
6
40
22.225
49
6.35
74
0
49
-3.175
74
0
49
6.35
74
0
49
-3.175
74
0
49
0
74
0
49
-3.175
74
0
0
LTYPE
5
40
330
5
100
AcDbSymbolTableRecord
100
AcDbLinetypeTableRecord
2
BORDERX2
70
0
3
Border (2x) ____  ____  .  ____  ____  .  ___
72
65
73
6
40
88.9
49
25.4
74
0
49
-12.7
74
0
49
25.4
74
0
49
-12.7
74
0
49
0
74
0
49
-12.7
74
0
0
LTYPE
5
41
330
5
100
AcDbSymbolTableRecord
100
AcDbLinetypeTableRecord
2
CENTER
70
0
3
Center ____ _ ____ _ ____ _ ____ _ ____ _ ____
72
65
73
4
40
50.8
49
31.75
74
0
49
-6.35
74
0
49
6.35
74
0
49
-6.35
74
0
0
LTYPE
5
42
330
5
100
AcDbSymbolTableRecord
100
AcDbLinetypeTableRecord
2
CENTER2
70
0
3
Center (.5x) ___ _ ___ _ ___ _ ___ _ ___ _ ___
72
65
73
4
40
28.575
49
19.05
74
0
49
-3.175
74
0
49
3.175
74
0
49
-3.175
74
0
0
LTYPE
5
43
330
5
100
AcDbSymbolTableRecord
100
AcDbLinetypeTableRecord
2
CENTERX2
70
0
3
Center (2x) ________  __  ________  __  _____
72
65
73
4
40
101.6
49
63.5
74
0
49
-12.7
74
0
49
12.7
74
0
49
-12.7
74
0
0
ENDTAB
0
TABLE
2
LAYER
5
2
330
0
100
AcDbSymbolTable
70
1
0
LAYER
5
10
330
2
100
AcDbSymbolTableRecord
100
AcDbLayerTableRecord
2
0
70
1
62
7
6
CONTINUOUS
370
-3
390
F
0
LAYER
5
44
330
2
100
AcDbSymbolTableRecord
100
AcDbLayerTableRecord
2
SIG0015PB_AMPLIACION
70
0
62
7
6
CONTINUOUS
370
-3
390
F
0
ENDTAB
0
TABLE
2
STYLE
5
3
330
0
100
AcDbSymbolTable
70
3
0
STYLE
5
45
330
2
100
AcDbSymbolTableRecord
100
AcDbTextStyleTableRecord
2
Standard
70
0
40
0
41
1
50
0
71
0
42
1
3
txt
4

0
ENDTAB
0
TABLE
2
VIEW
5
6
330
0
100
AcDbSymbolTable
70
0
0
ENDTAB
0
TABLE
2
UCS
5
7
330
0
100
AcDbSymbolTable
70
0
0
ENDTAB
0
TABLE
2
APPID
5
9
330
0
100
AcDbSymbolTable
70
1
0
APPID
5
12
330
9
100
AcDbSymbolTableRecord
100
AcDbRegAppTableRecord
2
ACAD
70
0
0
ENDTAB
0
TABLE
2
DIMSTYLE
5
A
330
0
100
AcDbSymbolTable
70
1
100
AcDbDimStyleTable
71
1
0
DIMSTYLE
105
46
330
A
100
AcDbSymbolTableRecord
100
AcDbDimStyleTableRecord
2
Standard
70
0
40
1
41
0.18
42
0.0625
43
0.38
44
0.18
45
0
46
0
47
0
48
0
140
0.18
141
0.09
142
0
143
25.4
144
1
145
0
146
1
147
0.09
148
0
71
0
72
0
73
0
74
1
75
0
76
0
77
0
78
0
79
0
170
0
171
2
172
0
173
0
174
0
175
0
176
0
177
0
178
0
179
0
271
4
272
4
273
2
274
2
275
0
276
0
277
2
278
46
279
0
280
0
281
0
282
0
283
1
284
0
285
0
286
0
288
0
289
3
340
Standard
341

371
-2
372
-2
0
ENDTAB
0
TABLE
2
BLOCK_RECORD
5
1
330
0
100
AcDbSymbolTable
70
2
0
BLOCK_RECORD
5
1F
330
1
100
AcDbSymbolTableRecord
100
AcDbBlockTableRecord
2
*Model_Space
70
0
280
1
281
0
0
BLOCK_RECORD
5
1E
330
1
100
AcDbSymbolTableRecord
100
AcDbBlockTableRecord
2
*Paper_Space
70
0
280
1
281
0
0
ENDTAB
0
ENDSEC
0
SECTION
2
BLOCKS
0
BLOCK
5
20
330
1F
100
AcDbEntity
8
0
100
AcDbBlockBegin
2
*Model_Space
70
0
10
0
20
0
30
0
3
*Model_Space
1

0
ENDBLK
5
21
330
1F
100
AcDbEntity
8
0
100
AcDbBlockEnd
0
BLOCK
5
1C
330
1B
100
AcDbEntity
8
0
100
AcDbBlockBegin
2
*Paper_Space
70
0
10
0
20
0
30
0
3
*Paper_Space
1

0
ENDBLK
5
1D
330
1F
100
AcDbEntity
8
0
100
AcDbBlockEnd
0
ENDSEC
0
SECTION
2
ENTITIES
0
LINE
5
47
100
AcDbEntity
8
SIG0015PB_AMPLIACION
6
ByLayer
62
256
370
-1
100
AcDbLine
10
717209.614591
20
4251777.01861
11
717210.320831
21
4251777.25798
0
LINE
5
48
100
AcDbEntity
8
SIG0015PB_AMPLIACION
6
ByLayer
62
256
370
-1
100
AcDbLine
10
717236.515464
20
4251785.81928
11
717236.546139
21
4251785.82968
0
LINE
5
49
100
AcDbEntity
8
SIG0015PB_AMPLIACION
6
ByLayer
62
256
370
-1
100
AcDbLine
10
717248.281518
20
4251789.80711
11
717248.423609
21
4251789.85527
0
LINE
5
4A
100
AcDbEntity
8
SIG0015PB_AMPLIACION
6
ByLayer
62
256
370
-1
100
AcDbLine
10
717250.080974
20
4251790.417
11
717250.175682
21
4251790.4491
0
LINE
5
4B
100
AcDbEntity
8
SIG0015PB_AMPLIACION
6
ByLayer
62
256
370
-1
100
AcDbLine
10
717253.463151
20
4251780.74946
11
717251.465411
21
4251786.64377
0
LINE
5
4C
100
AcDbEntity
8
SIG0015PB_AMPLIACION
6
ByLayer
62
256
370
-1
100
AcDbLine
10
717251.007998
20
4251787.99336
11
717250.175683
21
4251790.4491
0
LINE
5
4D
100
AcDbEntity
8
SIG0015PB_AMPLIACION
6
ByLayer
62
256
370
-1
100
AcDbLine
10
717254.490636
20
4251778.18517
11
717254.166938
21
4251779.14024
0
LINE
5
4E
100
AcDbEntity
8
SIG0015PB_AMPLIACION
6
ByLayer
62
256
370
-1
100
AcDbLine
10
717253.605213
20
4251780.79761
11
717251.674744
21
4251786.49343
0
LINE
5
4F
100
AcDbEntity
8
SIG0015PB_AMPLIACION
6
ByLayer
62
256
370
-1
100
AcDbLine
10
717251.15006
20
4251788.04151
11
717250.317745
21
4251790.49724
0
LINE
5
50
100
AcDbEntity
8
SIG0015PB_AMPLIACION
6
ByLayer
62
256
370
-1
100
AcDbLine
10
717259.254985
20
4251789.22096
11
717254.41981
21
4251787.58219
0
LINE
5
51
100
AcDbEntity
8
SIG0015PB_AMPLIACION
6
ByLayer
62
256
370
-1
100
AcDbLine
10
717253.070218
20
4251787.12478
11
717251.626595
21
4251786.63549
0
LINE
5
52
100
AcDbEntity
8
SIG0015PB_AMPLIACION
6
ByLayer
62
256
370
-1
100
AcDbLine
10
717259.113502
20
4251789.01463
11
717255.039842
21
4251787.63395
0
LINE
5
53
100
AcDbEntity
8
SIG0015PB_AMPLIACION
6
ByLayer
62
256
370
-1
100
AcDbLine
10
717254.566301
20
4251787.47346
11
717254.467959
21
4251787.44013
0
LINE
5
54
100
AcDbEntity
8
SIG0015PB_AMPLIACION
6
ByLayer
62
256
370
-1
100
AcDbLine
10
717253.118367
20
4251786.98271
11
717251.674744
21
4251786.49343
0
LINE
5
55
100
AcDbEntity
8
SIG0015PB_AMPLIACION
6
ByLayer
62
256
370
-1
100
AcDbLine
10
717248.327312
20
4251790.1394
11
717248.423609
21
4251789.85527
0
LINE
5
56
100
AcDbEntity
8
SIG0015PB_AMPLIACION
6
ByLayer
62
256
370
-1
100
AcDbLine
10
717249.984677
20
4251790.70112
11
717250.080974
21
4251790.417
0
LINE
5
57
100
AcDbEntity
8
SIG0015PB_AMPLIACION
6
ByLayer
62
256
370
-1
100
AcDbLine
10
717248.879152
20
4251788.0438
11
717248.281518
21
4251789.80711
0
LINE
5
58
100
AcDbEntity
8
SIG0015PB_AMPLIACION
6
ByLayer
62
256
370
-1
100
AcDbLine
10
717249.80016
20
4251784.85907
11
717249.066106
21
4251787.02489
0
LINE
5
59
100
AcDbEntity
8
SIG0015PB_AMPLIACION
6
ByLayer
62
256
370
-1
100
AcDbLine
10
717241.61637
20
4251779.44568
11
717240.385163
21
4251779.02839
0
LINE
5
5A
100
AcDbEntity
8
SIG0015PB_AMPLIACION
6
ByLayer
62
256
370
-1
100
AcDbLine
10
717240.243101
20
4251778.98024
11
717240.093404
21
4251778.92951
0
LINE
5
5B
100
AcDbEntity
8
SIG0015PB_AMPLIACION
6
ByLayer
62
256
370
-1
100
AcDbLine
10
717238.743812
20
4251778.47209
11
717238.412334
21
4251778.35975
0
LINE
5
5C
100
AcDbEntity
8
SIG0015PB_AMPLIACION
6
ByLayer
62
256
370
-1
100
AcDbLine
10
717237.062742
20
4251777.90233
11
717236.137404
21
4251777.58871
0
LINE
5
5D
100
AcDbEntity
8
SIG0015PB_AMPLIACION
6
ByLayer
62
256
370
-1
100
AcDbLine
10
717250.102719
20
4251784.43368
11
717243.872254
21
4251782.32201
0
LINE
5
5E
100
AcDbEntity
8
SIG0015PB_AMPLIACION
6
ByLayer
62
256
370
-1
100
AcDbLine
10
717242.522662
20
4251781.8646
11
717239.74318
21
4251780.92255
0
LINE
5
5F
100
AcDbEntity
8
SIG0015PB_AMPLIACION
6
ByLayer
62
256
370
-1
100
AcDbLine
10
717236.587662
20
4251779.85306
11
717235.495421
21
4251779.48287
0
LINE
5
60
100
AcDbEntity
8
SIG0015PB_AMPLIACION
6
ByLayer
62
256
370
-1
100
AcDbLine
10
717247.979428
20
4251783.87242
11
717246.891185
21
4251783.50359
0
LINE
5
61
100
AcDbEntity
8
SIG0015PB_AMPLIACION
6
ByLayer
62
256
370
-1
100
AcDbLine
10
717243.955231
20
4251782.50851
11
717243.824105
21
4251782.46407
0
LINE
5
62
100
AcDbEntity
8
SIG0015PB_AMPLIACION
6
ByLayer
62
256
370
-1
100
AcDbLine
10
717242.474513
20
4251782.00666
11
717242.310016
21
4251781.95091
0
LINE
5
63
100
AcDbEntity
8
SIG0015PB_AMPLIACION
6
ByLayer
62
256
370
-1
100
AcDbLine
10
717240.236261
20
4251778.81954
11
717240.141553
21
4251778.78744
0
LINE
5
64
100
AcDbEntity
8
SIG0015PB_AMPLIACION
6
ByLayer
62
256
370
-1
100
AcDbLine
10
717238.791961
20
4251778.33003
11
717238.697253
21
4251778.29793
0
LINE
5
65
100
AcDbEntity
8
SIG0015PB_AMPLIACION
6
ByLayer
62
256
370
-1
100
AcDbLine
10
717238.555191
20
4251778.24978
11
717238.460482
21
4251778.21768
0
LINE
5
66
100
AcDbEntity
8
SIG0015PB_AMPLIACION
6
ByLayer
62
256
370
-1
100
AcDbLine
10
717237.11089
20
4251777.76027
11
717237.018985
21
4251777.72912
0
LINE
5
67
100
AcDbEntity
8
SIG0015PB_AMPLIACION
6
ByLayer
62
256
370
-1
100
AcDbLine
10
717240.385163
20
4251779.02839
11
717240.345039
21
4251779.14678
0
LINE
5
68
100
AcDbEntity
8
SIG0015PB_AMPLIACION
6
ByLayer
62
256
370
-1
100
AcDbLine
10
717239.783314
20
4251780.80414
11
717239.74318
21
4251780.92255
0
LINE
5
69
100
AcDbEntity
8
SIG0015PB_AMPLIACION
6
ByLayer
62
256
370
-1
100
AcDbLine
10
717240.243101
20
4251778.98024
11
717240.202977
21
4251779.09863
0
LINE
5
6A
100
AcDbEntity
8
SIG0015PB_AMPLIACION
6
ByLayer
62
256
370
-1
100
AcDbLine
10
717239.641251
20
4251780.75599
11
717239.601118
21
4251780.87441
0
LINE
5
6B
100
AcDbEntity
8
SIG0015PB_AMPLIACION
6
ByLayer
62
256
370
-1
100
AcDbLine
10
717240.345039
20
4251779.14678
11
717240.202977
21
4251779.09863
0
LINE
5
6C
100
AcDbEntity
8
SIG0015PB_AMPLIACION
6
ByLayer
62
256
370
-1
100
AcDbLine
10
717239.783314
20
4251780.80414
11
717239.641251
21
4251780.75599
0
LINE
5
6D
100
AcDbEntity
8
SIG0015PB_AMPLIACION
6
ByLayer
62
256
370
-1
100
AcDbLine
10
717243.073938
20
4251774.21054
11
717241.492741
21
4251778.87584
0
LINE
5
6E
100
AcDbEntity
8
SIG0015PB_AMPLIACION
6
ByLayer
62
256
370
-1
100
AcDbLine
10
717240.455114
20
4251773.11138
11
717238.697253
21
4251778.29793
0
LINE
5
6F
100
AcDbEntity
8
SIG0015PB_AMPLIACION
6
ByLayer
62
256
370
-1
100
AcDbLine
10
717240.313051
20
4251773.06323
11
717238.555191
21
4251778.24978
0
LINE
5
70
100
AcDbEntity
8
SIG0015PB_AMPLIACION
6
ByLayer
62
256
370
-1
100
AcDbLine
10
717243.824105
20
4251782.46407
11
717243.872254
21
4251782.32201
0
LINE
5
71
100
AcDbEntity
8
SIG0015PB_AMPLIACION
6
ByLayer
62
256
370
-1
100
AcDbLine
10
717242.474513
20
4251782.00666
11
717242.522662
21
4251781.8646
0
LINE
5
72
100
AcDbEntity
8
SIG0015PB_AMPLIACION
6
ByLayer
62
256
370
-1
100
AcDbLine
10
717240.141553
20
4251778.78744
11
717240.093404
21
4251778.92951
0
LINE
5
73
100
AcDbEntity
8
SIG0015PB_AMPLIACION
6
ByLayer
62
256
370
-1
100
AcDbLine
10
717238.791961
20
4251778.33003
11
717238.743812
21
4251778.47209
0
LINE
5
74
100
AcDbEntity
8
SIG0015PB_AMPLIACION
6
ByLayer
62
256
370
-1
100
AcDbLine
10
717238.194605
20
4251780.3977
11
717237.930213
21
4251781.17779
0
LINE
5
75
100
AcDbEntity
8
SIG0015PB_AMPLIACION
6
ByLayer
62
256
370
-1
100
AcDbLine
10
717238.176169
20
4251780.91939
11
717236.515464
21
4251785.81928
0
LINE
5
76
100
AcDbEntity
8
SIG0015PB_AMPLIACION
6
ByLayer
62
256
370
-1
100
AcDbLine
10
717237.511334
20
4251774.00225
11
717238.021278
21
4251772.49766
0
LINE
5
77
100
AcDbEntity
8
SIG0015PB_AMPLIACION
6
ByLayer
62
256
370
-1
100
AcDbLine
10
717237.11089
20
4251777.76027
11
717237.062742
21
4251777.90233
0
LINE
5
78
100
AcDbEntity
8
SIG0015PB_AMPLIACION
6
ByLayer
62
256
370
-1
100
AcDbLine
10
717238.460482
20
4251778.21768
11
717238.412334
21
4251778.35975
0
LINE
5
79
100
AcDbEntity
8
SIG0015PB_AMPLIACION
6
ByLayer
62
256
370
-1
100
AcDbLine
10
717243.01411
20
4251779.76103
11
717242.965962
21
4251779.90309
0
LINE
5
7A
100
AcDbEntity
8
SIG0015PB_AMPLIACION
6
ByLayer
62
256
370
-1
100
AcDbLine
10
717241.664519
20
4251779.30362
11
717241.61637
21
4251779.44568
0
LINE
5
7B
100
AcDbEntity
8
SIG0015PB_AMPLIACION
6
ByLayer
62
256
370
-1
100
AcDbLine
10
717231.071278
20
4251784.29086
11
717231.167576
21
4251784.00674
0
LINE
5
7C
100
AcDbEntity
8
SIG0015PB_AMPLIACION
6
ByLayer
62
256
370
-1
100
AcDbLine
10
717232.775997
20
4251784.86864
11
717232.872295
21
4251784.58451
0
LINE
5
7D
100
AcDbEntity
8
SIG0015PB_AMPLIACION
6
ByLayer
62
256
370
-1
100
AcDbLine
10
717210.417128
20
4251776.97385
11
717210.320831
21
4251777.25798
0
LINE
5
7E
100
AcDbEntity
8
SIG0015PB_AMPLIACION
6
ByLayer
62
256
370
-1
100
AcDbLine
10
717252.408649
20
4251777.16276
11
717252.33302
21
4251777.3859
0
LINE
5
7F
100
AcDbEntity
8
SIG0015PB_AMPLIACION
6
ByLayer
62
256
370
-1
100
AcDbLine
10
717252.408649
20
4251777.16276
11
717251.705029
21
4251776.92428
0
LINE
5
80
100
AcDbEntity
8
SIG0015PB_AMPLIACION
6
ByLayer
62
256
370
-1
100
AcDbLine
10
717250.942507
20
4251776.66584
11
717250.886334
21
4251776.83158
0
LINE
5
81
100
AcDbEntity
8
SIG0015PB_AMPLIACION
6
ByLayer
62
256
370
-1
100
AcDbLine
10
717250.791625
20
4251776.79948
11
717250.886334
21
4251776.83158
0
LINE
5
82
100
AcDbEntity
8
SIG0015PB_AMPLIACION
6
ByLayer
62
256
370
-1
100
AcDbLine
10
717250.791625
20
4251776.79948
11
717250.847799
21
4251776.63374
0
LINE
5
83
100
AcDbEntity
8
SIG0015PB_AMPLIACION
6
ByLayer
62
256
370
-1
100
AcDbLine
10
717250.478659
20
4251777.72289
11
717249.010681
21
4251777.22535
0
LINE
5
84
100
AcDbEntity
8
SIG0015PB_AMPLIACION
6
ByLayer
62
256
370
-1
100
AcDbLine
10
717250.510758
20
4251777.62818
11
717249.042781
21
4251777.13064
0
LINE
5
85
100
AcDbEntity
8
SIG0015PB_AMPLIACION
6
ByLayer
62
256
370
-1
100
AcDbLine
10
717250.744701
20
4251782.53952
11
717248.893036
21
4251781.91194
0
LINE
5
86
100
AcDbEntity
8
SIG0015PB_AMPLIACION
6
ByLayer
62
256
370
-1
100
AcDbLine
10
717249.042584
20
4251781.80424
11
717248.941184
21
4251781.76988
0
LINE
5
87
100
AcDbEntity
8
SIG0015PB_AMPLIACION
6
ByLayer
62
256
370
-1
100
AcDbLine
10
717250.197791
20
4251778.55158
11
717249.991197
21
4251779.16114
0
LINE
5
88
100
AcDbEntity
8
SIG0015PB_AMPLIACION
6
ByLayer
62
256
370
-1
100
AcDbLine
10
717250.621515
20
4251777.61292
11
717250.557317
21
4251777.80234
0
LINE
5
89
100
AcDbEntity
8
SIG0015PB_AMPLIACION
6
ByLayer
62
256
370
-1
100
AcDbLine
10
717248.111693
20
4251781.64712
11
717248.159842
21
4251781.50506
0
LINE
5
8A
100
AcDbEntity
8
SIG0015PB_AMPLIACION
6
ByLayer
62
256
370
-1
100
AcDbLine
10
717248.52322
20
4251778.6636
11
717249.991197
21
4251779.16114
0
LINE
5
8B
100
AcDbEntity
8
SIG0015PB_AMPLIACION
6
ByLayer
62
256
370
-1
100
AcDbLine
10
717250.526807
20
4251777.58083
11
717250.621515
21
4251777.61292
0
LINE
5
8C
100
AcDbEntity
8
SIG0015PB_AMPLIACION
6
ByLayer
62
256
370
-1
100
AcDbLine
10
717250.006452
20
4251779.2719
11
717251.519947
21
4251779.78486
0
LINE
5
8D
100
AcDbEntity
8
SIG0015PB_AMPLIACION
6
ByLayer
62
256
370
-1
100
AcDbLine
10
717250.085905
20
4251779.19324
11
717251.552047
21
4251779.69015
0
LINE
5
8E
100
AcDbEntity
8
SIG0015PB_AMPLIACION
6
ByLayer
62
256
370
-1
100
AcDbLine
10
717250.197791
20
4251778.55158
11
717250.292499
21
4251778.58368
0
LINE
5
8F
100
AcDbEntity
8
SIG0015PB_AMPLIACION
6
ByLayer
62
256
370
-1
100
AcDbLine
10
717250.462609
20
4251777.77024
11
717250.557317
21
4251777.80234
0
LINE
5
90
100
AcDbEntity
8
SIG0015PB_AMPLIACION
6
ByLayer
62
256
370
-1
100
AcDbLine
10
717248.159842
20
4251781.50506
11
717248.111693
21
4251781.64712
0
LINE
5
91
100
AcDbEntity
8
SIG0015PB_AMPLIACION
6
ByLayer
62
256
370
-1
100
AcDbLine
10
717252.036103
20
4251778.26195
11
717252.178166
21
4251778.3101
0
LINE
5
92
100
AcDbEntity
8
SIG0015PB_AMPLIACION
6
ByLayer
62
256
370
-1
100
AcDbLine
10
717252.33302
20
4251777.3859
11
717252.475083
21
4251777.43405
0
LINE
5
93
100
AcDbEntity
8
SIG0015PB_AMPLIACION
6
ByLayer
62
256
370
-1
100
AcDbLine
10
717250.006452
20
4251779.2719
11
717249.137292
21
4251781.83634
0
LINE
5
94
100
AcDbEntity
8
SIG0015PB_AMPLIACION
6
ByLayer
62
256
370
-1
100
AcDbLine
10
717249.911744
20
4251779.2398
11
717249.042584
21
4251781.80424
0
LINE
5
95
100
AcDbEntity
8
SIG0015PB_AMPLIACION
6
ByLayer
62
256
370
-1
100
AcDbLine
10
717249.010681
20
4251777.22535
11
717248.52322
21
4251778.6636
0
LINE
5
96
100
AcDbEntity
8
SIG0015PB_AMPLIACION
6
ByLayer
62
256
370
-1
100
AcDbLine
10
717250.510758
20
4251777.62818
11
717250.526807
21
4251777.58083
0
LINE
5
97
100
AcDbEntity
8
SIG0015PB_AMPLIACION
6
ByLayer
62
256
370
-1
100
AcDbLine
10
717250.478659
20
4251777.72289
11
717250.462609
21
4251777.77024
0
LINE
5
98
100
AcDbEntity
8
SIG0015PB_AMPLIACION
6
ByLayer
62
256
370
-1
100
AcDbLine
10
717250.292499
20
4251778.58368
11
717250.085905
21
4251779.19324
0
LINE
5
99
100
AcDbEntity
8
SIG0015PB_AMPLIACION
6
ByLayer
62
256
370
-1
100
AcDbLine
10
717249.911744
20
4251779.2398
11
717248.491121
21
4251778.75831
0
LINE
5
9A
100
AcDbEntity
8
SIG0015PB_AMPLIACION
6
ByLayer
62
256
370
-1
100
AcDbLine
10
717251.519947
20
4251779.78486
11
717251.195746
21
4251780.74141
0
LINE
5
9B
100
AcDbEntity
8
SIG0015PB_AMPLIACION
6
ByLayer
62
256
370
-1
100
AcDbLine
10
717248.159842
20
4251781.50506
11
717248.111693
21
4251781.64712
0
LINE
5
9C
100
AcDbEntity
8
SIG0015PB_AMPLIACION
6
ByLayer
62
256
370
-1
100
AcDbLine
10
717248.941184
20
4251781.76988
11
717248.893036
21
4251781.91194
0
LINE
5
9D
100
AcDbEntity
8
SIG0015PB_AMPLIACION
6
ByLayer
62
256
370
-1
100
AcDbLine
10
717259.57304
20
4251774.25881
11
717256.181066
21
4251773.10917
0
LINE
5
9E
100
AcDbEntity
8
SIG0015PB_AMPLIACION
6
ByLayer
62
256
370
-1
100
AcDbLine
10
717257.763956
20
4251778.66189
11
717258.293843
21
4251777.09846
0
LINE
5
9F
100
AcDbEntity
8
SIG0015PB_AMPLIACION
6
ByLayer
62
256
370
-1
100
AcDbLine
10
717252.505982
20
4251776.87899
11
717252.564592
21
4251776.70606
0
LINE
5
A0
100
AcDbEntity
8
SIG0015PB_AMPLIACION
6
ByLayer
62
256
370
-1
100
AcDbLine
10
717253.655963
20
4251773.48598
11
717254.03069
21
4251772.38035
0
LINE
5
A1
100
AcDbEntity
8
SIG0015PB_AMPLIACION
6
ByLayer
62
256
370
-1
100
AcDbLine
10
717238.398013
20
4251772.41418
11
717238.333815
21
4251772.60359
0
LINE
5
A2
100
AcDbEntity
8
SIG0015PB_AMPLIACION
6
ByLayer
62
256
370
-1
100
AcDbLine
10
717240.10502
20
4251772.99273
11
717240.313051
21
4251773.06323
0
LINE
5
A3
100
AcDbEntity
8
SIG0015PB_AMPLIACION
6
ByLayer
62
256
370
-1
100
AcDbLine
10
717238.333815
20
4251772.60359
11
717238.021278
21
4251772.49766
0
LINE
5
A4
100
AcDbEntity
8
SIG0015PB_AMPLIACION
6
ByLayer
62
256
370
-1
100
AcDbLine
10
717259.254985
20
4251789.22096
11
717258.937728
21
4251790.15702
0
LINE
5
A5
100
AcDbEntity
8
SIG0015PB_AMPLIACION
6
ByLayer
62
256
370
-1
100
AcDbLine
10
717244.123698
20
4251788.39791
11
717244.501628
21
4251788.52601
0
LINE
5
A6
100
AcDbEntity
8
SIG0015PB_AMPLIACION
6
ByLayer
62
256
370
-1
100
AcDbLine
10
717240.902717
20
4251787.30624
11
717241.849799
21
4251787.62723
0
LINE
5
A7
100
AcDbEntity
8
SIG0015PB_AMPLIACION
6
ByLayer
62
256
370
-1
100
AcDbLine
10
717246.110079
20
4251789.38792
11
717248.327312
21
4251790.1394
0
LINE
5
A8
100
AcDbEntity
8
SIG0015PB_AMPLIACION
6
ByLayer
62
256
370
-1
100
AcDbLine
10
717235.568364
20
4251785.49828
11
717236.373404
21
4251785.77113
0
LINE
5
A9
100
AcDbEntity
8
SIG0015PB_AMPLIACION
6
ByLayer
62
256
370
-1
100
AcDbLine
10
717250.317745
20
4251790.49724
11
717251.315138
21
4251790.83529
0
LINE
5
AA
100
AcDbEntity
8
SIG0015PB_AMPLIACION
6
ByLayer
62
256
370
-1
100
AcDbLine
10
717219.163563
20
4251765.57834
11
717214.801508
21
4251770.396
0
LINE
5
AB
100
AcDbEntity
8
SIG0015PB_AMPLIACION
6
ByLayer
62
256
370
-1
100
AcDbLine
10
717213.459136
20
4251771.87858
11
717209.169818
21
4251776.6159
0
LINE
5
AC
100
AcDbEntity
8
SIG0015PB_AMPLIACION
6
ByLayer
62
256
370
-1
100
AcDbLine
10
717253.605213
20
4251780.79761
11
717253.463151
21
4251780.74946
0
LINE
5
AD
100
AcDbEntity
8
SIG0015PB_AMPLIACION
6
ByLayer
62
256
370
-1
100
AcDbLine
10
717254.166939
20
4251779.14024
11
717254.024876
21
4251779.09209
0
LINE
5
AE
100
AcDbEntity
8
SIG0015PB_AMPLIACION
6
ByLayer
62
256
370
-1
100
AcDbLine
10
717254.41981
20
4251787.58219
11
717254.467959
21
4251787.44013
0
LINE
5
AF
100
AcDbEntity
8
SIG0015PB_AMPLIACION
6
ByLayer
62
256
370
-1
100
AcDbLine
10
717253.070218
20
4251787.12478
11
717253.118367
21
4251786.98271
0
LINE
5
B0
100
AcDbEntity
8
SIG0015PB_AMPLIACION
6
ByLayer
62
256
370
-1
100
AcDbLine
10
717251.607473
20
4251786.69191
11
717251.465411
21
4251786.64377
0
LINE
5
B1
100
AcDbEntity
8
SIG0015PB_AMPLIACION
6
ByLayer
62
256
370
-1
100
AcDbLine
10
717251.15006
20
4251788.04151
11
717251.007998
21
4251787.99336
0
LINE
5
B2
100
AcDbEntity
8
SIG0015PB_AMPLIACION
6
ByLayer
62
256
370
-1
100
AcDbLine
10
717251.626595
20
4251786.63549
11
717251.607473
21
4251786.69191
0
LINE
5
B3
100
AcDbEntity
8
SIG0015PB_AMPLIACION
6
ByLayer
62
256
370
-1
100
AcDbLine
10
717243.554546
20
4251788.20501
11
717243.650156
21
4251788.23742
0
LINE
5
B4
100
AcDbEntity
8
SIG0015PB_AMPLIACION
6
ByLayer
62
256
370
-1
100
AcDbLine
10
717248.111693
20
4251781.64712
11
717242.965962
21
4251779.90309
0
LINE
5
B5
100
AcDbEntity
8
SIG0015PB_AMPLIACION
6
ByLayer
62
256
370
-1
100
AcDbLine
10
717237.511334
20
4251774.00225
11
717237.369272
21
4251773.9541
0
LINE
5
B6
100
AcDbEntity
8
SIG0015PB_AMPLIACION
6
ByLayer
62
256
370
-1
100
AcDbLine
10
717236.869351
20
4251775.89641
11
717236.727288
21
4251775.84826
0
LINE
5
B7
100
AcDbEntity
8
SIG0015PB_AMPLIACION
6
ByLayer
62
256
370
-1
100
AcDbLine
10
717236.439843
20
4251777.16367
11
717236.869351
21
4251775.89641
0
LINE
5
B8
100
AcDbEntity
8
SIG0015PB_AMPLIACION
6
ByLayer
62
256
370
-1
100
AcDbLine
10
717242.965962
20
4251779.90309
11
717243.01411
21
4251779.76103
0
LINE
5
B9
100
AcDbEntity
8
SIG0015PB_AMPLIACION
6
ByLayer
62
256
370
-1
100
AcDbLine
10
717238.398013
20
4251772.41418
11
717238.400275
21
4251772.41494
0
LINE
5
BA
100
AcDbEntity
8
SIG0015PB_AMPLIACION
6
ByLayer
62
256
370
-1
100
AcDbLine
10
717246.206376
20
4251789.10379
11
717246.110079
21
4251789.38792
0
LINE
5
BB
100
AcDbEntity
8
SIG0015PB_AMPLIACION
6
ByLayer
62
256
370
-1
100
AcDbLine
10
717247.027305
20
4251786.68165
11
717247.979428
21
4251783.87242
0
LINE
5
BC
100
AcDbEntity
8
SIG0015PB_AMPLIACION
6
ByLayer
62
256
370
-1
100
AcDbLine
10
717247.169367
20
4251786.7298
11
717248.009143
21
4251784.25205
0
LINE
5
BD
100
AcDbEntity
8
SIG0015PB_AMPLIACION
6
ByLayer
62
256
370
-1
100
AcDbLine
10
717248.008282
20
4251786.82475
11
717249.017957
21
4251787.16696
0
LINE
5
BE
100
AcDbEntity
8
SIG0015PB_AMPLIACION
6
ByLayer
62
256
370
-1
100
AcDbLine
10
717248.056431
20
4251786.68269
11
717249.066106
21
4251787.02489
0
LINE
5
BF
100
AcDbEntity
8
SIG0015PB_AMPLIACION
6
ByLayer
62
256
370
-1
100
AcDbLine
10
717247.169367
20
4251786.7298
11
717247.027305
21
4251786.68165
0
LINE
5
C0
100
AcDbEntity
8
SIG0015PB_AMPLIACION
6
ByLayer
62
256
370
-1
100
AcDbLine
10
717248.008282
20
4251786.82475
11
717248.056431
21
4251786.68269
0
LINE
5
C1
100
AcDbEntity
8
SIG0015PB_AMPLIACION
6
ByLayer
62
256
370
-1
100
AcDbLine
10
717246.904549
20
4251787.51114
11
717246.762487
21
4251787.46299
0
LINE
5
C2
100
AcDbEntity
8
SIG0015PB_AMPLIACION
6
ByLayer
62
256
370
-1
100
AcDbLine
10
717246.206376
20
4251789.10379
11
717246.762487
21
4251787.46299
0
LINE
5
C3
100
AcDbEntity
8
SIG0015PB_AMPLIACION
6
ByLayer
62
256
370
-1
100
AcDbLine
10
717246.348439
20
4251789.15194
11
717246.904549
21
4251787.51114
0
LINE
5
C4
100
AcDbEntity
8
SIG0015PB_AMPLIACION
6
ByLayer
62
256
370
-1
100
AcDbLine
10
717220.758377
20
4251766.43563
11
717221.468689
21
4251766.67637
0
LINE
5
C5
100
AcDbEntity
8
SIG0015PB_AMPLIACION
6
ByLayer
62
256
370
-1
100
AcDbLine
10
717222.179
20
4251766.91712
11
717222.889312
21
4251767.15786
0
LINE
5
C6
100
AcDbEntity
8
SIG0015PB_AMPLIACION
6
ByLayer
62
256
370
-1
100
AcDbLine
10
717225.020247
20
4251767.88009
11
717225.730558
21
4251768.12084
0
LINE
5
C7
100
AcDbEntity
8
SIG0015PB_AMPLIACION
6
ByLayer
62
256
370
-1
100
AcDbLine
10
717226.44087
20
4251768.36158
11
717227.151181
21
4251768.60232
0
LINE
5
C8
100
AcDbEntity
8
SIG0015PB_AMPLIACION
6
ByLayer
62
256
370
-1
100
AcDbLine
10
717230.229198
20
4251769.64555
11
717230.93951
21
4251769.88629
0
LINE
5
C9
100
AcDbEntity
8
SIG0015PB_AMPLIACION
6
ByLayer
62
256
370
-1
100
AcDbLine
10
717231.649821
20
4251770.12703
11
717232.360133
21
4251770.36778
0
LINE
5
CA
100
AcDbEntity
8
SIG0015PB_AMPLIACION
6
ByLayer
62
256
370
-1
100
AcDbLine
10
717234.491067
20
4251771.09001
11
717235.201379
21
4251771.33075
0
LINE
5
CB
100
AcDbEntity
8
SIG0015PB_AMPLIACION
6
ByLayer
62
256
370
-1
100
AcDbLine
10
717235.91169
20
4251771.57149
11
717236.622002
21
4251771.81224
0
LINE
5
CC
100
AcDbEntity
8
SIG0015PB_AMPLIACION
6
ByLayer
62
256
370
-1
100
AcDbLine
10
717237.332314
20
4251772.05298
11
717237.526698
21
4251772.11886
0
LINE
5
CD
100
AcDbEntity
8
SIG0015PB_AMPLIACION
6
ByLayer
62
256
370
-1
100
AcDbLine
10
717209.614591
20
4251777.01861
11
717209.169818
21
4251776.6159
0
LINE
5
CE
100
AcDbEntity
8
SIG0015PB_AMPLIACION
6
ByLayer
62
256
370
-1
100
AcDbLine
10
717213.90391
20
4251772.28129
11
717213.459136
21
4251771.87858
0
LINE
5
CF
100
AcDbEntity
8
SIG0015PB_AMPLIACION
6
ByLayer
62
256
370
-1
100
AcDbLine
10
717215.246282
20
4251770.79871
11
717214.801508
21
4251770.396
0
LINE
5
D0
100
AcDbEntity
8
SIG0015PB_AMPLIACION
6
ByLayer
62
256
370
-1
100
AcDbLine
10
717234.12882
20
4251785.01038
11
717234.193018
21
4251784.82097
0
LINE
5
D1
100
AcDbEntity
8
SIG0015PB_AMPLIACION
6
ByLayer
62
256
370
-1
100
AcDbLine
10
717234.193018
20
4251784.82097
11
717233.880481
21
4251784.71504
0
LINE
5
D2
100
AcDbEntity
8
SIG0015PB_AMPLIACION
6
ByLayer
62
256
370
-1
100
AcDbLine
10
717233.880481
20
4251784.71504
11
717235.325
21
4251780.45319
0
LINE
5
D3
100
AcDbEntity
8
SIG0015PB_AMPLIACION
6
ByLayer
62
256
370
-1
100
AcDbLine
10
717234.621281
20
4251785.17729
11
717234.12882
21
4251785.01038
0
LINE
5
D4
100
AcDbEntity
8
SIG0015PB_AMPLIACION
6
ByLayer
62
256
370
-1
100
AcDbLine
10
717237.882065
20
4251781.31985
11
717237.823328
21
4251781.29994
0
LINE
5
D5
100
AcDbEntity
8
SIG0015PB_AMPLIACION
6
ByLayer
62
256
370
-1
100
AcDbLine
10
717236.947277
20
4251781.00302
11
717235.324943
21
4251780.45317
0
LINE
5
D6
100
AcDbEntity
8
SIG0015PB_AMPLIACION
6
ByLayer
62
256
370
-1
100
AcDbLine
10
717237.930213
20
4251781.17779
11
717237.871477
21
4251781.15788
0
LINE
5
D7
100
AcDbEntity
8
SIG0015PB_AMPLIACION
6
ByLayer
62
256
370
-1
100
AcDbLine
10
717236.995426
20
4251780.86096
11
717236.323327
21
4251780.63317
0
LINE
5
D8
100
AcDbEntity
8
SIG0015PB_AMPLIACION
6
ByLayer
62
256
370
-1
100
AcDbLine
10
717237.871477
20
4251781.15788
11
717237.823328
21
4251781.29994
0
LINE
5
D9
100
AcDbEntity
8
SIG0015PB_AMPLIACION
6
ByLayer
62
256
370
-1
100
AcDbLine
10
717236.995426
20
4251780.86096
11
717236.947277
21
4251781.00302
0
LINE
5
DA
100
AcDbEntity
8
SIG0015PB_AMPLIACION
6
ByLayer
62
256
370
-1
100
AcDbLine
10
717236.587662
20
4251779.85306
11
717236.323327
21
4251780.63317
0
LINE
5
DB
100
AcDbEntity
8
SIG0015PB_AMPLIACION
6
ByLayer
62
256
370
-1
100
AcDbLine
10
717239.601118
20
4251780.87441
11
717238.194605
21
4251780.3977
0
LINE
5
DC
100
AcDbEntity
8
SIG0015PB_AMPLIACION
6
ByLayer
62
256
370
-1
100
AcDbLine
10
717237.882065
20
4251781.31985
11
717236.373404
21
4251785.77113
0
LINE
5
DD
100
AcDbEntity
8
SIG0015PB_AMPLIACION
6
ByLayer
62
256
370
-1
100
AcDbLine
10
717240.815332
20
4251773.23347
11
717240.455114
21
4251773.11138
0
LINE
5
DE
100
AcDbEntity
8
SIG0015PB_AMPLIACION
6
ByLayer
62
256
370
-1
100
AcDbLine
10
717242.52008
20
4251773.81125
11
717242.898456
21
4251773.9395
0
LINE
5
DF
100
AcDbEntity
8
SIG0015PB_AMPLIACION
6
ByLayer
62
256
370
-1
100
AcDbLine
10
717242.898456
20
4251773.9395
11
717242.834139
21
4251774.12926
0
LINE
5
E0
100
AcDbEntity
8
SIG0015PB_AMPLIACION
6
ByLayer
62
256
370
-1
100
AcDbLine
10
717242.834139
20
4251774.12926
11
717243.073938
21
4251774.21054
0
LINE
5
E1
100
AcDbEntity
8
SIG0015PB_AMPLIACION
6
ByLayer
62
256
370
-1
100
AcDbLine
10
717243.216
20
4251774.25869
11
717243.30768
21
4251774.28976
0
LINE
5
E2
100
AcDbEntity
8
SIG0015PB_AMPLIACION
6
ByLayer
62
256
370
-1
100
AcDbLine
10
717243.30768
20
4251774.28976
11
717243.371997
21
4251774.09999
0
LINE
5
E3
100
AcDbEntity
8
SIG0015PB_AMPLIACION
6
ByLayer
62
256
370
-1
100
AcDbLine
10
717243.216
20
4251774.25869
11
717241.634803
21
4251778.92399
0
LINE
5
E4
100
AcDbEntity
8
SIG0015PB_AMPLIACION
6
ByLayer
62
256
370
-1
100
AcDbLine
10
717245.17191
20
4251774.71003
11
717245.882221
21
4251774.95077
0
LINE
5
E5
100
AcDbEntity
8
SIG0015PB_AMPLIACION
6
ByLayer
62
256
370
-1
100
AcDbLine
10
717247.586969
20
4251775.52856
11
717247.919349
21
4251775.64121
0
LINE
5
E6
100
AcDbEntity
8
SIG0015PB_AMPLIACION
6
ByLayer
62
256
370
-1
100
AcDbLine
10
717247.919349
20
4251775.64121
11
717247.855151
21
4251775.83063
0
LINE
5
E7
100
AcDbEntity
8
SIG0015PB_AMPLIACION
6
ByLayer
62
256
370
-1
100
AcDbLine
10
717247.855151
20
4251775.83063
11
717248.328692
21
4251775.99112
0
LINE
5
E8
100
AcDbEntity
8
SIG0015PB_AMPLIACION
6
ByLayer
62
256
370
-1
100
AcDbLine
10
717248.328692
20
4251775.99112
11
717248.39289
21
4251775.80171
0
LINE
5
E9
100
AcDbEntity
8
SIG0015PB_AMPLIACION
6
ByLayer
62
256
370
-1
100
AcDbLine
10
717248.39289
20
4251775.80171
11
717249.23776
21
4251776.08806
0
LINE
5
EA
100
AcDbEntity
8
SIG0015PB_AMPLIACION
6
ByLayer
62
256
370
-1
100
AcDbLine
10
717249.23776
20
4251776.08806
11
717247.592246
21
4251780.94313
0
LINE
5
EB
100
AcDbEntity
8
SIG0015PB_AMPLIACION
6
ByLayer
62
256
370
-1
100
AcDbLine
10
717243.467162
20
4251774.13225
11
717243.371997
21
4251774.09999
0
LINE
5
EC
100
AcDbEntity
8
SIG0015PB_AMPLIACION
6
ByLayer
62
256
370
-1
100
AcDbLine
10
717238.176169
20
4251780.91939
11
717242.197668
21
4251782.28238
0
LINE
5
ED
100
AcDbEntity
8
SIG0015PB_AMPLIACION
6
ByLayer
62
256
370
-1
100
AcDbLine
10
717242.197668
20
4251782.28238
11
717242.310016
21
4251781.95091
0
LINE
5
EE
100
AcDbEntity
8
SIG0015PB_AMPLIACION
6
ByLayer
62
256
370
-1
100
AcDbLine
10
717239.197969
20
4251786.72845
11
717239.10236
21
4251786.69605
0
LINE
5
EF
100
AcDbEntity
8
SIG0015PB_AMPLIACION
6
ByLayer
62
256
370
-1
100
AcDbLine
10
717239.10236
20
4251786.69605
11
717239.166557
21
4251786.50663
0
LINE
5
F0
100
AcDbEntity
8
SIG0015PB_AMPLIACION
6
ByLayer
62
256
370
-1
100
AcDbLine
10
717239.166557
20
4251786.50663
11
717238.693016
21
4251786.34614
0
LINE
5
F1
100
AcDbEntity
8
SIG0015PB_AMPLIACION
6
ByLayer
62
256
370
-1
100
AcDbLine
10
717238.693016
20
4251786.34614
11
717238.628818
21
4251786.53555
0
LINE
5
F2
100
AcDbEntity
8
SIG0015PB_AMPLIACION
6
ByLayer
62
256
370
-1
100
AcDbLine
10
717238.628818
20
4251786.53555
11
717238.250887
21
4251786.40746
0
LINE
5
F3
100
AcDbEntity
8
SIG0015PB_AMPLIACION
6
ByLayer
62
256
370
-1
100
AcDbLine
10
717244.123698
20
4251788.39791
11
717244.187896
21
4251788.2085
0
LINE
5
F4
100
AcDbEntity
8
SIG0015PB_AMPLIACION
6
ByLayer
62
256
370
-1
100
AcDbLine
10
717244.187896
20
4251788.2085
11
717243.714355
21
4251788.048
0
LINE
5
F5
100
AcDbEntity
8
SIG0015PB_AMPLIACION
6
ByLayer
62
256
370
-1
100
AcDbLine
10
717243.714355
20
4251788.048
11
717243.650156
21
4251788.23742
0
LINE
5
F6
100
AcDbEntity
8
SIG0015PB_AMPLIACION
6
ByLayer
62
256
370
-1
100
AcDbLine
10
717246.348439
20
4251789.15194
11
717247.807977
21
4251789.64662
0
LINE
5
F7
100
AcDbEntity
8
SIG0015PB_AMPLIACION
6
ByLayer
62
256
370
-1
100
AcDbLine
10
717247.807977
20
4251789.64662
11
717247.872176
21
4251789.4572
0
LINE
5
F8
100
AcDbEntity
8
SIG0015PB_AMPLIACION
6
ByLayer
62
256
370
-1
100
AcDbLine
10
717247.872176
20
4251789.4572
11
717248.203654
21
4251789.56955
0
LINE
5
F9
100
AcDbEntity
8
SIG0015PB_AMPLIACION
6
ByLayer
62
256
370
-1
100
AcDbLine
10
717248.203654
20
4251789.56955
11
717248.737089
21
4251787.99565
0
LINE
5
FA
100
AcDbEntity
8
SIG0015PB_AMPLIACION
6
ByLayer
62
256
370
-1
100
AcDbLine
10
717253.019886
20
4251791.41307
11
717253.209201
21
4251791.47724
0
LINE
5
FB
100
AcDbEntity
8
SIG0015PB_AMPLIACION
6
ByLayer
62
256
370
-1
100
AcDbLine
10
717253.209201
20
4251791.47724
11
717253.273399
21
4251791.28782
0
LINE
5
FC
100
AcDbEntity
8
SIG0015PB_AMPLIACION
6
ByLayer
62
256
370
-1
100
AcDbLine
10
717253.273399
20
4251791.28782
11
717253.746927
21
4251791.44831
0
LINE
5
FD
100
AcDbEntity
8
SIG0015PB_AMPLIACION
6
ByLayer
62
256
370
-1
100
AcDbLine
10
717253.746927
20
4251791.44831
11
717253.68278
21
4251791.63774
0
LINE
5
FE
100
AcDbEntity
8
SIG0015PB_AMPLIACION
6
ByLayer
62
256
370
-1
100
AcDbLine
10
717253.68278
20
4251791.63774
11
717253.966968
21
4251791.73406
0
LINE
5
FF
100
AcDbEntity
8
SIG0015PB_AMPLIACION
6
ByLayer
62
256
370
-1
100
AcDbLine
10
717259.113502
20
4251789.01463
11
717259.225849
21
4251788.68315
0
LINE
5
100
100
AcDbEntity
8
SIG0015PB_AMPLIACION
6
ByLayer
62
256
370
-1
100
AcDbLine
10
717259.225849
20
4251788.68315
11
717259.4155
21
4251788.74743
0
LINE
5
101
100
AcDbEntity
8
SIG0015PB_AMPLIACION
6
ByLayer
62
256
370
-1
100
AcDbLine
10
717260.732107
20
4251784.23966
11
717260.892603
21
4251783.76612
0
LINE
5
102
100
AcDbEntity
8
SIG0015PB_AMPLIACION
6
ByLayer
62
256
370
-1
100
AcDbLine
10
717258.614833
20
4251776.15138
11
717259.144469
21
4251774.58869
0
LINE
5
103
100
AcDbEntity
8
SIG0015PB_AMPLIACION
6
ByLayer
62
256
370
-1
100
AcDbLine
10
717259.144469
20
4251774.58869
11
717258.955052
21
4251774.5245
0
LINE
5
104
100
AcDbEntity
8
SIG0015PB_AMPLIACION
6
ByLayer
62
256
370
-1
100
AcDbLine
10
717258.955052
20
4251774.5245
11
717259.019251
21
4251774.33508
0
LINE
5
105
100
AcDbEntity
8
SIG0015PB_AMPLIACION
6
ByLayer
62
256
370
-1
100
AcDbLine
10
717253.940088
20
4251773.58228
11
717254.170368
21
4251772.90284
0
LINE
5
106
100
AcDbEntity
8
SIG0015PB_AMPLIACION
6
ByLayer
62
256
370
-1
100
AcDbLine
10
717254.170368
20
4251772.90284
11
717254.359785
21
4251772.96704
0
LINE
5
107
100
AcDbEntity
8
SIG0015PB_AMPLIACION
6
ByLayer
62
256
370
-1
100
AcDbLine
10
717254.359785
20
4251772.96704
11
717254.504231
21
4251772.54085
0
LINE
5
108
100
AcDbEntity
8
SIG0015PB_AMPLIACION
6
ByLayer
62
256
370
-1
100
AcDbLine
10
717256.100818
20
4251773.34594
11
717259.019251
21
4251774.33508
0
LINE
5
109
100
AcDbEntity
8
SIG0015PB_AMPLIACION
6
ByLayer
62
256
370
-1
100
AcDbLine
10
717247.734308
20
4251780.99128
11
717248.491121
21
4251778.75831
0
LINE
5
10A
100
AcDbEntity
8
SIG0015PB_AMPLIACION
6
ByLayer
62
256
370
-1
100
AcDbLine
10
717252.036103
20
4251778.26195
11
717251.552047
21
4251779.69015
0
LINE
5
10B
100
AcDbEntity
8
SIG0015PB_AMPLIACION
6
ByLayer
62
256
370
-1
100
AcDbLine
10
717244.693511
20
4251780.33022
11
717243.01411
21
4251779.76103
0
LINE
5
10C
100
AcDbEntity
8
SIG0015PB_AMPLIACION
6
ByLayer
62
256
370
-1
100
AcDbLine
10
717255.715626
20
4251774.48245
11
717257.686975
21
4251775.15059
0
LINE
5
10D
100
AcDbEntity
8
SIG0015PB_AMPLIACION
6
ByLayer
62
256
370
-1
100
AcDbLine
10
717255.839373
20
4251774.68277
11
717257.496764
21
4251775.24451
0
LINE
5
10E
100
AcDbEntity
8
SIG0015PB_AMPLIACION
6
ByLayer
62
256
370
-1
100
AcDbLine
10
717256.980796
20
4251777.23417
11
717257.686975
21
4251775.15059
0
LINE
5
10F
100
AcDbEntity
8
SIG0015PB_AMPLIACION
6
ByLayer
62
256
370
-1
100
AcDbLine
10
717256.886882
20
4251777.04396
11
717257.496764
21
4251775.24451
0
LINE
5
110
100
AcDbEntity
8
SIG0015PB_AMPLIACION
6
ByLayer
62
256
370
-1
100
AcDbLine
10
717255.229489
20
4251776.48223
11
717255.260561
21
4251776.39055
0
LINE
5
111
100
AcDbEntity
8
SIG0015PB_AMPLIACION
6
ByLayer
62
256
370
-1
100
AcDbLine
10
717255.839373
20
4251774.68277
11
717255.819953
21
4251774.74007
0
LINE
5
112
100
AcDbEntity
8
SIG0015PB_AMPLIACION
6
ByLayer
62
256
370
-1
100
AcDbLine
10
717255.819953
20
4251774.74007
11
717255.648057
21
4251774.68181
0
LINE
5
113
100
AcDbEntity
8
SIG0015PB_AMPLIACION
6
ByLayer
62
256
370
-1
100
AcDbLine
10
717255.648057
20
4251774.68181
11
717255.819953
21
4251774.74007
0
LINE
5
114
100
AcDbEntity
8
SIG0015PB_AMPLIACION
6
ByLayer
62
256
370
-1
100
AcDbLine
10
717255.648057
20
4251774.68181
11
717255.715626
21
4251774.48245
0
LINE
5
115
100
AcDbEntity
8
SIG0015PB_AMPLIACION
6
ByLayer
62
256
370
-1
100
AcDbLine
10
717255.088662
20
4251776.33229
11
717255.009442
21
4251776.56603
0
LINE
5
116
100
AcDbEntity
8
SIG0015PB_AMPLIACION
6
ByLayer
62
256
370
-1
100
AcDbLine
10
717255.229489
20
4251776.48223
11
717256.886882
21
4251777.04396
0
LINE
5
117
100
AcDbEntity
8
SIG0015PB_AMPLIACION
6
ByLayer
62
256
370
-1
100
AcDbLine
10
717255.844298
20
4251776.84898
11
717255.772077
21
4251777.06207
0
LINE
5
118
100
AcDbEntity
8
SIG0015PB_AMPLIACION
6
ByLayer
62
256
370
-1
100
AcDbLine
10
717255.475159
20
4251777.93812
11
717255.45911
21
4251777.98548
0
LINE
5
119
100
AcDbEntity
8
SIG0015PB_AMPLIACION
6
ByLayer
62
256
370
-1
100
AcDbLine
10
717255.702235
20
4251776.80083
11
717255.630014
21
4251777.01392
0
LINE
5
11A
100
AcDbEntity
8
SIG0015PB_AMPLIACION
6
ByLayer
62
256
370
-1
100
AcDbLine
10
717255.333097
20
4251777.88997
11
717255.317048
21
4251777.93733
0
LINE
5
11B
100
AcDbEntity
8
SIG0015PB_AMPLIACION
6
ByLayer
62
256
370
-1
100
AcDbLine
10
717256.980796
20
4251777.23417
11
717255.844298
21
4251776.84898
0
LINE
5
11C
100
AcDbEntity
8
SIG0015PB_AMPLIACION
6
ByLayer
62
256
370
-1
100
AcDbLine
10
717255.702235
20
4251776.80083
11
717255.009442
21
4251776.56603
0
LINE
5
11D
100
AcDbEntity
8
SIG0015PB_AMPLIACION
6
ByLayer
62
256
370
-1
100
AcDbLine
10
717248.009143
20
4251784.25205
11
717249.80016
21
4251784.85907
0
LINE
5
11E
100
AcDbEntity
8
SIG0015PB_AMPLIACION
6
ByLayer
62
256
370
-1
100
AcDbLine
10
717244.693511
20
4251780.33023
11
717244.805858
21
4251779.99875
0
LINE
5
11F
100
AcDbEntity
8
SIG0015PB_AMPLIACION
6
ByLayer
62
256
370
-1
100
AcDbLine
10
717247.734308
20
4251780.99128
11
717248.120645
21
4251781.12222
0
LINE
5
120
100
AcDbEntity
8
SIG0015PB_AMPLIACION
6
ByLayer
62
256
370
-1
100
AcDbLine
10
717248.120645
20
4251781.12222
11
717248.008298
21
4251781.4537
0
LINE
5
121
100
AcDbEntity
8
SIG0015PB_AMPLIACION
6
ByLayer
62
256
370
-1
100
AcDbLine
10
717248.008298
20
4251781.4537
11
717248.159842
21
4251781.50506
0
LINE
5
122
100
AcDbEntity
8
SIG0015PB_AMPLIACION
6
ByLayer
62
256
370
-1
100
AcDbLine
10
717250.994718
20
4251776.68354
11
717250.942507
21
4251776.66584
0
LINE
5
123
100
AcDbEntity
8
SIG0015PB_AMPLIACION
6
ByLayer
62
256
370
-1
100
AcDbLine
10
717227.546368
20
4251782.77941
11
717226.836056
21
4251782.53867
0
LINE
5
124
100
AcDbEntity
8
SIG0015PB_AMPLIACION
6
ByLayer
62
256
370
-1
100
AcDbLine
10
717226.125745
20
4251782.29792
11
717225.415433
21
4251782.05718
0
LINE
5
125
100
AcDbEntity
8
SIG0015PB_AMPLIACION
6
ByLayer
62
256
370
-1
100
AcDbLine
10
717223.284498
20
4251781.33495
11
717222.574187
21
4251781.09421
0
LINE
5
126
100
AcDbEntity
8
SIG0015PB_AMPLIACION
6
ByLayer
62
256
370
-1
100
AcDbLine
10
717221.863875
20
4251780.85346
11
717221.153564
21
4251780.61272
0
LINE
5
127
100
AcDbEntity
8
SIG0015PB_AMPLIACION
6
ByLayer
62
256
370
-1
100
AcDbLine
10
717249.14397
20
4251787.26246
11
717250.102719
21
4251784.43368
0
LINE
5
128
100
AcDbEntity
8
SIG0015PB_AMPLIACION
6
ByLayer
62
256
370
-1
100
AcDbLine
10
717253.655963
20
4251773.48598
11
717253.940088
21
4251773.58228
0
LINE
5
129
100
AcDbEntity
8
SIG0015PB_AMPLIACION
6
ByLayer
62
256
370
-1
100
AcDbLine
10
717252.564592
20
4251776.70606
11
717252.848716
21
4251776.80236
0
LINE
5
12A
100
AcDbEntity
8
SIG0015PB_AMPLIACION
6
ByLayer
62
256
370
-1
100
AcDbLine
10
717257.952036
20
4251779.04156
11
717257.855735
21
4251779.32569
0
LINE
5
12B
100
AcDbEntity
8
SIG0015PB_AMPLIACION
6
ByLayer
62
256
370
-1
100
AcDbLine
10
717257.855735
20
4251779.32569
11
717254.490636
21
4251778.18517
0
LINE
5
12C
100
AcDbEntity
8
SIG0015PB_AMPLIACION
6
ByLayer
62
256
370
-1
100
AcDbLine
10
717256.100818
20
4251773.34594
11
717256.181066
21
4251773.10917
0
LINE
5
12D
100
AcDbEntity
8
SIG0015PB_AMPLIACION
6
ByLayer
62
256
370
-1
100
AcDbLine
10
717254.504231
20
4251772.54085
11
717254.03069
21
4251772.38035
0
LINE
5
12E
100
AcDbEntity
8
SIG0015PB_AMPLIACION
6
ByLayer
62
256
370
-1
100
AcDbLine
10
717249.14397
20
4251787.26246
11
717249.001907
21
4251787.21431
0
LINE
5
12F
100
AcDbEntity
8
SIG0015PB_AMPLIACION
6
ByLayer
62
256
370
-1
100
AcDbLine
10
717248.879152
20
4251788.0438
11
717248.737089
21
4251787.99565
0
LINE
5
130
100
AcDbEntity
8
SIG0015PB_AMPLIACION
6
ByLayer
62
256
370
-1
100
AcDbLine
10
717249.017957
20
4251787.16696
11
717249.001907
21
4251787.21431
0
LINE
5
131
100
AcDbEntity
8
SIG0015PB_AMPLIACION
6
ByLayer
62
256
370
-1
100
AcDbLine
10
717235.031351
20
4251779.32559
11
717234.870855
21
4251779.79913
0
LINE
5
132
100
AcDbEntity
8
SIG0015PB_AMPLIACION
6
ByLayer
62
256
370
-1
100
AcDbLine
10
717235.673334
20
4251777.43143
11
717235.833829
21
4251776.95788
0
LINE
5
133
100
AcDbEntity
8
SIG0015PB_AMPLIACION
6
ByLayer
62
256
370
-1
100
AcDbLine
10
717241.664519
20
4251779.30362
11
717241.613691
21
4251779.28639
0
LINE
5
134
100
AcDbEntity
8
SIG0015PB_AMPLIACION
6
ByLayer
62
256
370
-1
100
AcDbLine
10
717241.613691
20
4251779.28639
11
717241.726038
21
4251778.95491
0
LINE
5
135
100
AcDbEntity
8
SIG0015PB_AMPLIACION
6
ByLayer
62
256
370
-1
100
AcDbLine
10
717241.726038
20
4251778.95491
11
717241.634803
21
4251778.92399
0
LINE
5
136
100
AcDbEntity
8
SIG0015PB_AMPLIACION
6
ByLayer
62
256
370
-1
100
AcDbLine
10
717249.80016
20
4251784.85907
11
717249.468681
21
4251784.74673
0
LINE
5
137
100
AcDbEntity
8
SIG0015PB_AMPLIACION
6
ByLayer
62
256
370
-1
100
AcDbLine
10
717249.468681
20
4251784.74673
11
717249.80016
21
4251784.85907
0
LINE
5
138
100
AcDbEntity
8
SIG0015PB_AMPLIACION
6
ByLayer
62
256
370
-1
100
AcDbLine
10
717255.671716
20
4251792.31185
11
717257.756501
21
4251793.01844
0
LINE
5
139
100
AcDbEntity
8
SIG0015PB_AMPLIACION
6
ByLayer
62
256
370
-1
100
AcDbLine
10
717257.756501
20
4251793.01844
11
717257.820955
21
4251792.82827
0
LINE
5
13A
100
AcDbEntity
8
SIG0015PB_AMPLIACION
6
ByLayer
62
256
370
-1
100
AcDbLine
10
717257.820955
20
4251792.82827
11
717258.010588
21
4251792.89254
0
LINE
5
13B
100
AcDbEntity
8
SIG0015PB_AMPLIACION
6
ByLayer
62
256
370
-1
100
AcDbLine
10
717258.010588
20
4251792.89254
11
717258.359949
21
4251791.86177
0
LINE
5
13C
100
AcDbEntity
8
SIG0015PB_AMPLIACION
6
ByLayer
62
256
370
-1
100
AcDbLine
10
717262.151128
20
4251780.67592
11
717261.961711
21
4251780.61173
0
LINE
5
13D
100
AcDbEntity
8
SIG0015PB_AMPLIACION
6
ByLayer
62
256
370
-1
100
AcDbLine
10
717254.024876
20
4251779.09209
11
717254.50907
21
4251777.66348
0
LINE
5
13E
100
AcDbEntity
8
SIG0015PB_AMPLIACION
6
ByLayer
62
256
370
-1
100
AcDbLine
10
717254.50907
20
4251777.66348
11
717255.317048
21
4251777.93733
0
LINE
5
13F
100
AcDbEntity
8
SIG0015PB_AMPLIACION
6
ByLayer
62
256
370
-1
100
AcDbLine
10
717255.45911
20
4251777.98548
11
717257.54269
21
4251778.69166
0
LINE
5
140
100
AcDbEntity
8
SIG0015PB_AMPLIACION
6
ByLayer
62
256
370
-1
100
AcDbLine
10
717257.54269
20
4251778.69166
11
717257.574537
21
4251778.59769
0
LINE
5
141
100
AcDbEntity
8
SIG0015PB_AMPLIACION
6
ByLayer
62
256
370
-1
100
AcDbLine
10
717257.574537
20
4251778.59769
11
717257.763956
21
4251778.66189
0
LINE
5
142
100
AcDbEntity
8
SIG0015PB_AMPLIACION
6
ByLayer
62
256
370
-1
100
AcDbLine
10
717252.475083
20
4251777.43405
11
717252.486511
21
4251777.40033
0
LINE
5
143
100
AcDbEntity
8
SIG0015PB_AMPLIACION
6
ByLayer
62
256
370
-1
100
AcDbLine
10
717252.486511
20
4251777.40033
11
717252.819028
21
4251777.51302
0
LINE
5
144
100
AcDbEntity
8
SIG0015PB_AMPLIACION
6
ByLayer
62
256
370
-1
100
AcDbLine
10
717252.819028
20
4251777.51302
11
717252.979523
21
4251777.03948
0
LINE
5
145
100
AcDbEntity
8
SIG0015PB_AMPLIACION
6
ByLayer
62
256
370
-1
100
AcDbLine
10
717252.979523
20
4251777.03948
11
717252.979523
21
4251777.03948
0
LINE
5
146
100
AcDbEntity
8
SIG0015PB_AMPLIACION
6
ByLayer
62
256
370
-1
100
AcDbLine
10
717252.979523
20
4251777.03948
11
717252.790107
21
4251776.97529
0
LINE
5
147
100
AcDbEntity
8
SIG0015PB_AMPLIACION
6
ByLayer
62
256
370
-1
100
AcDbLine
10
717252.790107
20
4251776.97529
11
717252.848716
21
4251776.80236
0
LINE
5
148
100
AcDbEntity
8
SIG0015PB_AMPLIACION
6
ByLayer
62
256
370
-1
100
AcDbLine
10
717249.137292
20
4251781.83634
11
717250.319309
21
4251782.23696
0
LINE
5
149
100
AcDbEntity
8
SIG0015PB_AMPLIACION
6
ByLayer
62
256
370
-1
100
AcDbLine
10
717250.319309
20
4251782.23696
11
717250.431656
21
4251781.90548
0
LINE
5
14A
100
AcDbEntity
8
SIG0015PB_AMPLIACION
6
ByLayer
62
256
370
-1
100
AcDbLine
10
717250.431656
20
4251781.90548
11
717250.763135
21
4251782.01783
0
LINE
5
14B
100
AcDbEntity
8
SIG0015PB_AMPLIACION
6
ByLayer
62
256
370
-1
100
AcDbLine
10
717250.763135
20
4251782.01783
11
717250.898829
21
4251781.61746
0
LINE
5
14C
100
AcDbEntity
8
SIG0015PB_AMPLIACION
6
ByLayer
62
256
370
-1
100
AcDbLine
10
717254.566301
20
4251787.47346
11
717254.678648
21
4251787.14198
0
LINE
5
14D
100
AcDbEntity
8
SIG0015PB_AMPLIACION
6
ByLayer
62
256
370
-1
100
AcDbLine
10
717254.678648
20
4251787.14198
11
717255.152189
21
4251787.30248
0
LINE
5
14E
100
AcDbEntity
8
SIG0015PB_AMPLIACION
6
ByLayer
62
256
370
-1
100
AcDbLine
10
717255.152189
20
4251787.30248
11
717255.039842
21
4251787.63395
0
LINE
5
14F
100
AcDbEntity
8
SIG0015PB_AMPLIACION
6
ByLayer
62
256
370
-1
100
AcDbLine
10
717243.955231
20
4251782.50851
11
717243.842883
21
4251782.83999
0
LINE
5
150
100
AcDbEntity
8
SIG0015PB_AMPLIACION
6
ByLayer
62
256
370
-1
100
AcDbLine
10
717243.842883
20
4251782.83999
11
717246.778838
21
4251783.83507
0
LINE
5
151
100
AcDbEntity
8
SIG0015PB_AMPLIACION
6
ByLayer
62
256
370
-1
100
AcDbLine
10
717246.778838
20
4251783.83507
11
717246.891185
21
4251783.50359
0
LINE
5
152
100
AcDbEntity
8
SIG0015PB_AMPLIACION
6
ByLayer
62
256
370
-1
100
AcDbLine
10
717236.439843
20
4251777.16367
11
717237.131332
21
4251777.39764
0
LINE
5
153
100
AcDbEntity
8
SIG0015PB_AMPLIACION
6
ByLayer
62
256
370
-1
100
AcDbLine
10
717237.131332
20
4251777.39764
11
717237.018985
21
4251777.72912
0
LINE
5
154
100
AcDbEntity
8
SIG0015PB_AMPLIACION
6
ByLayer
62
256
370
-1
100
AcDbLine
10
717240.236261
20
4251778.81954
11
717240.348608
21
4251778.48806
0
LINE
5
155
100
AcDbEntity
8
SIG0015PB_AMPLIACION
6
ByLayer
62
256
370
-1
100
AcDbLine
10
717240.348608
20
4251778.48806
11
717241.492741
21
4251778.87584
0
LINE
5
156
100
AcDbEntity
8
SIG0015PB_AMPLIACION
6
ByLayer
62
256
370
-1
100
AcDbLine
10
717244.805858
20
4251779.99875
11
717247.592246
21
4251780.94313
0
LINE
5
157
100
AcDbEntity
8
SIG0015PB_AMPLIACION
6
ByLayer
62
256
370
-1
100
AcDbLine
10
717232.872295
20
4251784.58451
11
717233.257504
21
4251784.71507
0
LINE
5
158
100
AcDbEntity
8
SIG0015PB_AMPLIACION
6
ByLayer
62
256
370
-1
100
AcDbLine
10
717232.775997
20
4251784.86864
11
717233.577923
21
4251785.14043
0
LINE
5
159
100
AcDbEntity
8
SIG0015PB_AMPLIACION
6
ByLayer
62
256
370
-1
100
AcDbLine
10
717234.870855
20
4251779.79913
11
717235.334925
21
4251779.95642
0
LINE
5
15A
100
AcDbEntity
8
SIG0015PB_AMPLIACION
6
ByLayer
62
256
370
-1
100
AcDbLine
10
717235.495421
20
4251779.48287
11
717235.031351
21
4251779.32559
0
LINE
5
15B
100
AcDbEntity
8
SIG0015PB_AMPLIACION
6
ByLayer
62
256
370
-1
100
AcDbLine
10
717236.137404
20
4251777.58871
11
717235.673334
21
4251777.43143
0
LINE
5
15C
100
AcDbEntity
8
SIG0015PB_AMPLIACION
6
ByLayer
62
256
370
-1
100
AcDbLine
10
717236.727288
20
4251775.84826
11
717236.2979
21
4251777.11517
0
LINE
5
15D
100
AcDbEntity
8
SIG0015PB_AMPLIACION
6
ByLayer
62
256
370
-1
100
AcDbLine
10
717235.833829
20
4251776.95788
11
717236.2979
21
4251777.11517
0
LINE
5
15E
100
AcDbEntity
8
SIG0015PB_AMPLIACION
6
ByLayer
62
256
370
-1
100
AcDbLine
10
717237.369272
20
4251773.9541
11
717237.895265
21
4251772.40216
0
LINE
5
15F
100
AcDbEntity
8
SIG0015PB_AMPLIACION
6
ByLayer
62
256
370
-1
100
AcDbLine
10
717210.320831
20
4251777.25798
11
717215.056241
21
4251778.86294
0
LINE
5
160
100
AcDbEntity
8
SIG0015PB_AMPLIACION
6
ByLayer
62
256
370
-1
100
AcDbLine
10
717219.804037
20
4251780.15533
11
717220.443252
21
4251780.37198
0
LINE
5
161
100
AcDbEntity
8
SIG0015PB_AMPLIACION
6
ByLayer
62
256
370
-1
100
AcDbLine
10
717224.160549
20
4251781.63187
11
717223.99481
21
4251781.57569
0
LINE
5
162
100
AcDbEntity
8
SIG0015PB_AMPLIACION
6
ByLayer
62
256
370
-1
100
AcDbLine
10
717228.25668
20
4251783.02016
11
717228.895959
21
4251783.23683
0
LINE
5
163
100
AcDbEntity
8
SIG0015PB_AMPLIACION
6
ByLayer
62
256
370
-1
100
AcDbLine
10
717231.167576
20
4251784.00674
11
717229.274792
21
4251783.36522
0
LINE
5
164
100
AcDbEntity
8
SIG0015PB_AMPLIACION
6
ByLayer
62
256
370
-1
100
AcDbLine
10
717219.980298
20
4251766.17192
11
717220.048066
21
4251766.19489
0
LINE
5
165
100
AcDbEntity
8
SIG0015PB_AMPLIACION
6
ByLayer
62
256
370
-1
100
AcDbLine
10
717223.599623
20
4251767.3986
11
717223.694332
21
4251767.4307
0
LINE
5
166
100
AcDbEntity
8
SIG0015PB_AMPLIACION
6
ByLayer
62
256
370
-1
100
AcDbLine
10
717224.073165
20
4251767.5591
11
717224.309935
21
4251767.63935
0
LINE
5
167
100
AcDbEntity
8
SIG0015PB_AMPLIACION
6
ByLayer
62
256
370
-1
100
AcDbLine
10
717227.861493
20
4251768.84307
11
717228.429742
21
4251769.03566
0
LINE
5
168
100
AcDbEntity
8
SIG0015PB_AMPLIACION
6
ByLayer
62
256
370
-1
100
AcDbLine
10
717228.808575
20
4251769.16406
11
717229.518886
21
4251769.4048
0
LINE
5
169
100
AcDbEntity
8
SIG0015PB_AMPLIACION
6
ByLayer
62
256
370
-1
100
AcDbLine
10
717233.070444
20
4251770.60852
11
717233.165152
21
4251770.64062
0
LINE
5
16A
100
AcDbEntity
8
SIG0015PB_AMPLIACION
6
ByLayer
62
256
370
-1
100
AcDbLine
10
717233.543985
20
4251770.76902
11
717233.780756
21
4251770.84926
0
LINE
5
16B
100
AcDbEntity
8
SIG0015PB_AMPLIACION
6
ByLayer
62
256
370
-1
100
AcDbLine
10
717254.504231
20
4251772.54085
11
717256.181066
21
4251773.10917
0
LINE
5
16C
100
AcDbEntity
8
SIG0015PB_AMPLIACION
6
ByLayer
62
256
370
-1
100
AcDbLine
10
717255.260561
20
4251776.39055
11
717255.819953
21
4251774.74007
0
LINE
5
16D
100
AcDbEntity
8
SIG0015PB_AMPLIACION
6
ByLayer
62
256
370
-1
100
AcDbLine
10
717215.152539
20
4251778.57881
11
717215.056241
21
4251778.86294
0
LINE
5
16E
100
AcDbEntity
8
SIG0015PB_AMPLIACION
6
ByLayer
62
256
370
-1
100
AcDbLine
10
717215.152539
20
4251778.57881
11
717215.056241
21
4251778.86294
0
LINE
5
16F
100
AcDbEntity
8
SIG0015PB_AMPLIACION
6
ByLayer
62
256
370
-1
100
AcDbLine
10
717219.852186
20
4251780.01327
11
717219.473353
21
4251779.88487
0
LINE
5
170
100
AcDbEntity
8
SIG0015PB_AMPLIACION
6
ByLayer
62
256
370
-1
100
AcDbLine
10
717215.759135
20
4251778.62641
11
717215.380302
21
4251778.49802
0
LINE
5
171
100
AcDbEntity
8
SIG0015PB_AMPLIACION
6
ByLayer
62
256
370
-1
100
AcDbLine
10
717215.380302
20
4251778.49802
11
717215.332272
21
4251778.63973
0
LINE
5
172
100
AcDbEntity
8
SIG0015PB_AMPLIACION
6
ByLayer
62
256
370
-1
100
AcDbLine
10
717215.152539
20
4251778.57881
11
717215.332272
21
4251778.63973
0
LINE
5
173
100
AcDbEntity
8
SIG0015PB_AMPLIACION
6
ByLayer
62
256
370
-1
100
AcDbLine
10
717215.711105
20
4251778.76812
11
717215.759135
21
4251778.62641
0
LINE
5
174
100
AcDbEntity
8
SIG0015PB_AMPLIACION
6
ByLayer
62
256
370
-1
100
AcDbLine
10
717219.473353
20
4251779.88487
11
717219.425204
21
4251780.02693
0
LINE
5
175
100
AcDbEntity
8
SIG0015PB_AMPLIACION
6
ByLayer
62
256
370
-1
100
AcDbLine
10
717215.711105
20
4251778.76812
11
717219.425204
21
4251780.02693
0
LINE
5
176
100
AcDbEntity
8
SIG0015PB_AMPLIACION
6
ByLayer
62
256
370
-1
100
AcDbLine
10
717219.804037
20
4251780.15533
11
717219.852186
21
4251780.01327
0
LINE
5
177
100
AcDbEntity
8
SIG0015PB_AMPLIACION
6
ByLayer
62
256
370
-1
100
AcDbLine
10
717229.322941
20
4251783.22316
11
717228.944108
21
4251783.09476
0
LINE
5
178
100
AcDbEntity
8
SIG0015PB_AMPLIACION
6
ByLayer
62
256
370
-1
100
AcDbLine
10
717224.587531
20
4251781.6182
11
717224.208698
21
4251781.48981
0
LINE
5
179
100
AcDbEntity
8
SIG0015PB_AMPLIACION
6
ByLayer
62
256
370
-1
100
AcDbLine
10
717224.208698
20
4251781.48981
11
717224.160549
21
4251781.63187
0
LINE
5
17A
100
AcDbEntity
8
SIG0015PB_AMPLIACION
6
ByLayer
62
256
370
-1
100
AcDbLine
10
717228.944108
20
4251783.09476
11
717228.895959
21
4251783.23683
0
LINE
5
17B
100
AcDbEntity
8
SIG0015PB_AMPLIACION
6
ByLayer
62
256
370
-1
100
AcDbLine
10
717229.274792
20
4251783.36522
11
717229.322941
21
4251783.22316
0
LINE
5
17C
100
AcDbEntity
8
SIG0015PB_AMPLIACION
6
ByLayer
62
256
370
-1
100
AcDbLine
10
717233.305653
20
4251784.57301
11
717233.257504
21
4251784.71507
0
LINE
5
17D
100
AcDbEntity
8
SIG0015PB_AMPLIACION
6
ByLayer
62
256
370
-1
100
AcDbLine
10
717233.722369
20
4251784.71424
11
717235.334925
21
4251779.95642
0
LINE
5
17E
100
AcDbEntity
8
SIG0015PB_AMPLIACION
6
ByLayer
62
256
370
-1
100
AcDbLine
10
717233.722369
20
4251784.71424
11
717233.305653
21
4251784.57301
0
LINE
5
17F
100
AcDbEntity
8
SIG0015PB_AMPLIACION
6
ByLayer
62
256
370
-1
100
AcDbLine
10
717237.526698
20
4251772.11886
11
717237.478549
21
4251772.26093
0
LINE
5
180
100
AcDbEntity
8
SIG0015PB_AMPLIACION
6
ByLayer
62
256
370
-1
100
AcDbLine
10
717237.478549
20
4251772.26093
11
717237.895265
21
4251772.40216
0
LINE
5
181
100
AcDbEntity
8
SIG0015PB_AMPLIACION
6
ByLayer
62
256
370
-1
100
AcDbLine
10
717233.117004
20
4251770.78268
11
717233.495837
21
4251770.91108
0
LINE
5
182
100
AcDbEntity
8
SIG0015PB_AMPLIACION
6
ByLayer
62
256
370
-1
100
AcDbLine
10
717233.165152
20
4251770.64062
11
717233.117004
21
4251770.78268
0
LINE
5
183
100
AcDbEntity
8
SIG0015PB_AMPLIACION
6
ByLayer
62
256
370
-1
100
AcDbLine
10
717233.495837
20
4251770.91108
11
717233.543985
21
4251770.76902
0
LINE
5
184
100
AcDbEntity
8
SIG0015PB_AMPLIACION
6
ByLayer
62
256
370
-1
100
AcDbLine
10
717223.646183
20
4251767.57277
11
717224.025016
21
4251767.70116
0
LINE
5
185
100
AcDbEntity
8
SIG0015PB_AMPLIACION
6
ByLayer
62
256
370
-1
100
AcDbLine
10
717228.381593
20
4251769.17772
11
717228.760426
21
4251769.30612
0
LINE
5
186
100
AcDbEntity
8
SIG0015PB_AMPLIACION
6
ByLayer
62
256
370
-1
100
AcDbLine
10
717223.694332
20
4251767.4307
11
717223.646183
21
4251767.57277
0
LINE
5
187
100
AcDbEntity
8
SIG0015PB_AMPLIACION
6
ByLayer
62
256
370
-1
100
AcDbLine
10
717224.025016
20
4251767.70116
11
717224.073165
21
4251767.5591
0
LINE
5
188
100
AcDbEntity
8
SIG0015PB_AMPLIACION
6
ByLayer
62
256
370
-1
100
AcDbLine
10
717228.429742
20
4251769.03566
11
717228.381593
21
4251769.17772
0
LINE
5
189
100
AcDbEntity
8
SIG0015PB_AMPLIACION
6
ByLayer
62
256
370
-1
100
AcDbLine
10
717228.760426
20
4251769.30612
11
717228.808575
21
4251769.16406
0
LINE
5
18A
100
AcDbEntity
8
SIG0015PB_AMPLIACION
6
ByLayer
62
256
370
-1
100
AcDbLine
10
717219.553198
20
4251766.18593
11
717219.932031
21
4251766.31433
0
LINE
5
18B
100
AcDbEntity
8
SIG0015PB_AMPLIACION
6
ByLayer
62
256
370
-1
100
AcDbLine
10
717219.601465
20
4251766.04352
11
717219.553198
21
4251766.18593
0
LINE
5
18C
100
AcDbEntity
8
SIG0015PB_AMPLIACION
6
ByLayer
62
256
370
-1
100
AcDbLine
10
717219.932031
20
4251766.31433
11
717219.980298
21
4251766.17192
0
LINE
5
18D
100
AcDbEntity
8
SIG0015PB_AMPLIACION
6
ByLayer
62
256
370
-1
100
AcDbLine
10
717252.564592
20
4251776.70606
11
717253.655963
21
4251773.48598
0
LINE
5
18E
100
AcDbEntity
8
SIG0015PB_AMPLIACION
6
ByLayer
62
256
370
-1
100
AcDbLine
10
717255.630014
20
4251777.01392
11
717255.772077
21
4251777.06207
0
LINE
5
18F
100
AcDbEntity
8
SIG0015PB_AMPLIACION
6
ByLayer
62
256
370
-1
100
AcDbLine
10
717255.333097
20
4251777.88997
11
717255.475159
21
4251777.93812
0
LINE
5
190
100
AcDbEntity
8
SIG0015PB_AMPLIACION
6
ByLayer
62
256
370
-1
100
AcDbLine
10
717231.275813
20
4251782.70457
11
717232.513286
21
4251779.05342
0
LINE
5
191
100
AcDbEntity
8
SIG0015PB_AMPLIACION
6
ByLayer
62
256
370
-1
100
AcDbLine
10
717230.378924
20
4251778.33003
11
717229.141451
21
4251781.98118
0
LINE
5
192
100
AcDbEntity
8
SIG0015PB_AMPLIACION
6
ByLayer
62
256
370
-1
100
AcDbLine
10
717232.449882
20
4251779.08472
11
717231.244509
21
4251782.64116
0
LINE
5
193
100
AcDbEntity
8
SIG0015PB_AMPLIACION
6
ByLayer
62
256
370
-1
100
AcDbLine
10
717229.204855
20
4251781.94987
11
717231.244509
21
4251782.64116
0
LINE
5
194
100
AcDbEntity
8
SIG0015PB_AMPLIACION
6
ByLayer
62
256
370
-1
100
AcDbLine
10
717229.141451
20
4251781.98118
11
717231.275813
21
4251782.70457
0
LINE
5
195
100
AcDbEntity
8
SIG0015PB_AMPLIACION
6
ByLayer
62
256
370
-1
100
AcDbLine
10
717230.378924
20
4251778.33003
11
717232.513286
21
4251779.05342
0
LINE
5
196
100
AcDbEntity
8
SIG0015PB_AMPLIACION
6
ByLayer
62
256
370
-1
100
AcDbLine
10
717230.410229
20
4251778.39343
11
717232.449882
21
4251779.08472
0
LINE
5
197
100
AcDbEntity
8
SIG0015PB_AMPLIACION
6
ByLayer
62
256
370
-1
100
AcDbLine
10
717229.204855
20
4251781.94987
11
717230.410229
21
4251778.39343
0
LINE
5
198
100
AcDbEntity
8
SIG0015PB_AMPLIACION
6
ByLayer
62
256
370
-1
100
AcDbLine
10
717234.137283
20
4251783.95737
11
717236.694394
21
4251784.82405
0
LINE
5
199
100
AcDbEntity
8
SIG0015PB_AMPLIACION
6
ByLayer
62
256
370
-1
100
AcDbLine
10
717234.233581
20
4251783.67325
11
717235.228005
21
4251784.01029
0
LINE
5
19A
100
AcDbEntity
8
SIG0015PB_AMPLIACION
6
ByLayer
62
256
370
-1
100
AcDbLine
10
717235.796254
20
4251784.20288
11
717236.79069
21
4251784.53993
0
LINE
5
19B
100
AcDbEntity
8
SIG0015PB_AMPLIACION
6
ByLayer
62
256
370
-1
100
AcDbLine
10
717235.89255
20
4251783.91876
11
717236.886985
21
4251784.2558
0
LINE
5
19C
100
AcDbEntity
8
SIG0015PB_AMPLIACION
6
ByLayer
62
256
370
-1
100
AcDbLine
10
717235.988845
20
4251783.63463
11
717236.983283
21
4251783.97168
0
LINE
5
19D
100
AcDbEntity
8
SIG0015PB_AMPLIACION
6
ByLayer
62
256
370
-1
100
AcDbLine
10
717236.08514
20
4251783.35051
11
717237.079581
21
4251783.68755
0
LINE
5
19E
100
AcDbEntity
8
SIG0015PB_AMPLIACION
6
ByLayer
62
256
370
-1
100
AcDbLine
10
717236.181436
20
4251783.06638
11
717237.175879
21
4251783.40343
0
LINE
5
19F
100
AcDbEntity
8
SIG0015PB_AMPLIACION
6
ByLayer
62
256
370
-1
100
AcDbLine
10
717236.277731
20
4251782.78226
11
717237.272177
21
4251783.1193
0
LINE
5
1A0
100
AcDbEntity
8
SIG0015PB_AMPLIACION
6
ByLayer
62
256
370
-1
100
AcDbLine
10
717236.374026
20
4251782.49813
11
717237.368476
21
4251782.83518
0
LINE
5
1A1
100
AcDbEntity
8
SIG0015PB_AMPLIACION
6
ByLayer
62
256
370
-1
100
AcDbLine
10
717236.470322
20
4251782.21401
11
717237.464774
21
4251782.55105
0
LINE
5
1A2
100
AcDbEntity
8
SIG0015PB_AMPLIACION
6
ByLayer
62
256
370
-1
100
AcDbLine
10
717257.450205
20
4251775.07034
11
717257.835397
21
4251773.93384
0
LINE
5
1A3
100
AcDbEntity
8
SIG0015PB_AMPLIACION
6
ByLayer
62
256
370
-1
100
AcDbLine
10
717257.16608
20
4251774.97405
11
717257.551272
21
4251773.83754
0
LINE
5
1A4
100
AcDbEntity
8
SIG0015PB_AMPLIACION
6
ByLayer
62
256
370
-1
100
AcDbLine
10
717256.881956
20
4251774.87775
11
717257.267147
21
4251773.74125
0
LINE
5
1A5
100
AcDbEntity
8
SIG0015PB_AMPLIACION
6
ByLayer
62
256
370
-1
100
AcDbLine
10
717256.597831
20
4251774.78145
11
717256.983023
21
4251773.64495
0
LINE
5
1A6
100
AcDbEntity
8
SIG0015PB_AMPLIACION
6
ByLayer
62
256
370
-1
100
AcDbLine
10
717256.313706
20
4251774.68515
11
717256.698898
21
4251773.54865
0
LINE
5
1A7
100
AcDbEntity
8
SIG0015PB_AMPLIACION
6
ByLayer
62
256
370
-1
100
AcDbLine
10
717256.029582
20
4251774.58886
11
717256.414773
21
4251773.45235
0
LINE
5
1A8
100
AcDbEntity
8
SIG0015PB_AMPLIACION
6
ByLayer
62
256
370
-1
100
AcDbLine
10
717255.745457
20
4251774.49256
11
717256.130649
21
4251773.35606
0
LINE
5
1A9
100
AcDbEntity
8
SIG0015PB_AMPLIACION
6
ByLayer
62
256
370
-1
100
AcDbLine
10
717257.670926
20
4251775.19795
11
717258.807424
21
4251775.58314
0
LINE
5
1AA
100
AcDbEntity
8
SIG0015PB_AMPLIACION
6
ByLayer
62
256
370
-1
100
AcDbLine
10
717257.574629
20
4251775.48207
11
717258.711126
21
4251775.86726
0
LINE
5
1AB
100
AcDbEntity
8
SIG0015PB_AMPLIACION
6
ByLayer
62
256
370
-1
100
AcDbLine
10
717257.478331
20
4251775.7662
11
717258.614829
21
4251776.15139
0
LINE
5
1AC
100
AcDbEntity
8
SIG0015PB_AMPLIACION
6
ByLayer
62
256
370
-1
100
AcDbLine
10
717257.285737
20
4251776.33445
11
717258.422234
21
4251776.71963
0
LINE
5
1AD
100
AcDbEntity
8
SIG0015PB_AMPLIACION
6
ByLayer
62
256
370
-1
100
AcDbLine
10
717257.18944
20
4251776.61857
11
717258.325937
21
4251777.00376
0
LINE
5
1AE
100
AcDbEntity
8
SIG0015PB_AMPLIACION
6
ByLayer
62
256
370
-1
100
AcDbLine
10
717257.093143
20
4251776.90269
11
717258.229639
21
4251777.28788
0
LINE
5
1AF
100
AcDbEntity
8
SIG0015PB_AMPLIACION
6
ByLayer
62
256
370
-1
100
AcDbLine
10
717256.996846
20
4251777.18682
11
717258.133342
21
4251777.57201
0
LINE
5
1B0
100
AcDbEntity
8
SIG0015PB_AMPLIACION
6
ByLayer
62
256
370
-1
100
AcDbLine
10
717256.744026
20
4251777.15393
11
717256.358838
21
4251778.29042
0
LINE
5
1B1
100
AcDbEntity
8
SIG0015PB_AMPLIACION
6
ByLayer
62
256
370
-1
100
AcDbLine
10
717256.459901
20
4251777.05763
11
717256.074713
21
4251778.19412
0
LINE
5
1B2
100
AcDbEntity
8
SIG0015PB_AMPLIACION
6
ByLayer
62
256
370
-1
100
AcDbLine
10
717256.175777
20
4251776.96133
11
717255.790589
21
4251778.09782
0
LINE
5
1B3
100
AcDbEntity
8
SIG0015PB_AMPLIACION
6
ByLayer
62
256
370
-1
100
AcDbLine
10
717234.426184
20
4251783.105
11
717235.420603
21
4251783.44204
0
LINE
5
1B4
100
AcDbEntity
8
SIG0015PB_AMPLIACION
6
ByLayer
62
256
370
-1
100
AcDbLine
10
717234.522482
20
4251782.82088
11
717235.516899
21
4251783.15791
0
LINE
5
1B5
100
AcDbEntity
8
SIG0015PB_AMPLIACION
6
ByLayer
62
256
370
-1
100
AcDbLine
10
717234.618781
20
4251782.53675
11
717235.613194
21
4251782.87379
0
LINE
5
1B6
100
AcDbEntity
8
SIG0015PB_AMPLIACION
6
ByLayer
62
256
370
-1
100
AcDbLine
10
717234.715079
20
4251782.25263
11
717235.709489
21
4251782.58966
0
LINE
5
1B7
100
AcDbEntity
8
SIG0015PB_AMPLIACION
6
ByLayer
62
256
370
-1
100
AcDbLine
10
717234.811377
20
4251781.9685
11
717235.805785
21
4251782.30554
0
LINE
5
1B8
100
AcDbEntity
8
SIG0015PB_AMPLIACION
6
ByLayer
62
256
370
-1
100
AcDbLine
10
717234.907675
20
4251781.68438
11
717235.90208
21
4251782.02141
0
LINE
5
1B9
100
AcDbEntity
8
SIG0015PB_AMPLIACION
6
ByLayer
62
256
370
-1
100
AcDbLine
10
717236.0552
20
4251781.75655
11
717235.003973
21
4251781.40025
0
LINE
5
1BA
100
AcDbEntity
8
SIG0015PB_AMPLIACION
6
ByLayer
62
256
370
-1
100
AcDbLine
10
717235.378974
20
4251785.43409
11
717236.566617
21
4251781.92988
0
LINE
5
1BB
100
AcDbEntity
8
SIG0015PB_AMPLIACION
6
ByLayer
62
256
370
-1
100
AcDbLine
10
717235.207794
20
4251784.25685
11
717235.662393
21
4251784.41092
0
LINE
5
1BC
100
AcDbEntity
8
SIG0015PB_AMPLIACION
6
ByLayer
62
256
370
-1
100
AcDbLine
10
717235.662393
20
4251784.41092
11
717236.509792
21
4251781.91062
0
LINE
5
1BD
100
AcDbEntity
8
SIG0015PB_AMPLIACION
6
ByLayer
62
256
370
-1
100
AcDbLine
10
717236.509792
20
4251781.91062
11
717237.561072
21
4251782.26693
0
LINE
5
1BE
100
AcDbEntity
8
SIG0015PB_AMPLIACION
6
ByLayer
62
256
370
-1
100
AcDbLine
10
717235.09485
20
4251785.33779
11
717235.415835
21
4251784.39071
0
LINE
5
1BF
100
AcDbEntity
8
SIG0015PB_AMPLIACION
6
ByLayer
62
256
370
-1
100
AcDbLine
10
717236.0552
20
4251781.75655
11
717235.207791
21
4251784.25685
0
LINE
5
1C0
100
AcDbEntity
8
SIG0015PB_AMPLIACION
6
ByLayer
62
256
370
-1
100
AcDbLine
10
717234.329889
20
4251783.38913
11
717235.324301
21
4251783.72616
0
LINE
5
1C1
100
AcDbEntity
8
SIG0015PB_AMPLIACION
6
ByLayer
62
256
370
-1
100
AcDbLine
10
717234.810726
20
4251785.2415
11
717235.998368
21
4251781.73728
0
LINE
5
1C2
100
AcDbEntity
8
SIG0015PB_AMPLIACION
6
ByLayer
62
256
370
-1
100
AcDbLine
10
717257.382034
20
4251776.05032
11
717258.518534
21
4251776.43551
0
LINE
5
1C3
100
AcDbEntity
8
SIG0015PB_AMPLIACION
6
ByLayer
62
256
370
-1
100
AcDbLine
10
717255.333097
20
4251777.88997
11
717255.630014
21
4251777.01392
0
LINE
5
1C4
100
AcDbEntity
8
SIG0015PB_AMPLIACION
6
ByLayer
62
256
370
-1
100
AcDbLine
10
717253.605213
20
4251780.79761
11
717254.166939
21
4251779.14024
0
LINE
5
1C5
100
AcDbEntity
8
SIG0015PB_AMPLIACION
6
ByLayer
62
256
370
-1
100
AcDbLine
10
717253.070218
20
4251787.12478
11
717254.41981
21
4251787.58219
0
LINE
5
1C6
100
AcDbEntity
8
SIG0015PB_AMPLIACION
6
ByLayer
62
256
370
-1
100
AcDbLine
10
717251.15006
20
4251788.04151
11
717251.607473
21
4251786.69191
0
LINE
5
1C7
100
AcDbEntity
8
SIG0015PB_AMPLIACION
6
ByLayer
62
256
370
-1
100
AcDbLine
10
717252.33302
20
4251777.3859
11
717252.036103
21
4251778.26195
0
LINE
5
1C8
100
AcDbEntity
8
SIG0015PB_AMPLIACION
6
ByLayer
62
256
370
-1
100
AcDbLine
10
717250.791625
20
4251776.79948
11
717250.526807
21
4251777.58083
0
LINE
5
1C9
100
AcDbEntity
8
SIG0015PB_AMPLIACION
6
ByLayer
62
256
370
-1
100
AcDbLine
10
717250.462609
20
4251777.77024
11
717250.197791
21
4251778.55158
0
LINE
5
1CA
100
AcDbEntity
8
SIG0015PB_AMPLIACION
6
ByLayer
62
256
370
-1
100
AcDbLine
10
717251.040891
20
4251781.66561
11
717250.744701
21
4251782.53952
0
LINE
5
1CB
100
AcDbEntity
8
SIG0015PB_AMPLIACION
6
ByLayer
62
256
370
-1
100
AcDbLine
10
717251.040891
20
4251781.66561
11
717250.898829
21
4251781.61746
0
LINE
5
1CC
100
AcDbEntity
8
SIG0015PB_AMPLIACION
6
ByLayer
62
256
370
-1
100
AcDbLine
10
717252.178166
20
4251778.3101
11
717251.337808
21
4251780.78956
0
LINE
5
1CD
100
AcDbEntity
8
SIG0015PB_AMPLIACION
6
ByLayer
62
256
370
-1
100
AcDbLine
10
717251.337808
20
4251780.78956
11
717251.195746
21
4251780.74141
0
LINE
5
1CE
100
AcDbEntity
8
SIG0015PB_AMPLIACION
6
ByLayer
62
256
370
-1
100
AcDbLine
10
717250.96986
20
4251781.64154
11
717251.266777
21
4251780.76549
0
LINE
5
1CF
100
AcDbEntity
8
SIG0015PB_AMPLIACION
6
ByLayer
62
256
370
-1
100
AcDbLine
10
717248.327312
20
4251790.1394
11
717249.984677
21
4251790.70112
0
LINE
5
1D0
100
AcDbEntity
8
SIG0015PB_AMPLIACION
6
ByLayer
62
256
370
-1
100
AcDbLine
10
717249.001907
20
4251787.21431
11
717248.737089
21
4251787.99565
0
LINE
5
1D1
100
AcDbEntity
8
SIG0015PB_AMPLIACION
6
ByLayer
62
256
370
-1
100
AcDbLine
10
717246.762487
20
4251787.46299
11
717247.027305
21
4251786.68165
0
LINE
5
1D2
100
AcDbEntity
8
SIG0015PB_AMPLIACION
6
ByLayer
62
256
370
-1
100
AcDbLine
10
717248.159842
20
4251781.50506
11
717248.941184
21
4251781.76988
0
LINE
5
1D3
100
AcDbEntity
8
SIG0015PB_AMPLIACION
6
ByLayer
62
256
370
-1
100
AcDbLine
10
717242.474513
20
4251782.00666
11
717243.824105
21
4251782.46407
0
LINE
5
1D4
100
AcDbEntity
8
SIG0015PB_AMPLIACION
6
ByLayer
62
256
370
-1
100
AcDbLine
10
717239.783314
20
4251780.80414
11
717240.345039
21
4251779.14678
0
LINE
5
1D5
100
AcDbEntity
8
SIG0015PB_AMPLIACION
6
ByLayer
62
256
370
-1
100
AcDbLine
10
717236.995426
20
4251780.86096
11
717237.871477
21
4251781.15788
0
LINE
5
1D6
100
AcDbEntity
8
SIG0015PB_AMPLIACION
6
ByLayer
62
256
370
-1
100
AcDbLine
10
717241.664519
20
4251779.30362
11
717243.01411
21
4251779.76103
0
LINE
5
1D7
100
AcDbEntity
8
SIG0015PB_AMPLIACION
6
ByLayer
62
256
370
-1
100
AcDbLine
10
717238.791961
20
4251778.33003
11
717240.141553
21
4251778.78744
0
LINE
5
1D8
100
AcDbEntity
8
SIG0015PB_AMPLIACION
6
ByLayer
62
256
370
-1
100
AcDbLine
10
717237.11089
20
4251777.76027
11
717238.460482
21
4251778.21768
0
LINE
5
1D9
100
AcDbEntity
8
SIG0015PB_AMPLIACION
6
ByLayer
62
256
370
-1
100
AcDbLine
10
717231.167576
20
4251784.00674
11
717232.872295
21
4251784.58451
0
LINE
5
1DA
100
AcDbEntity
8
SIG0015PB_AMPLIACION
6
ByLayer
62
256
370
-1
100
AcDbLine
10
717213.681523
20
4251772.07993
11
717215.023895
21
4251770.59736
0
LINE
5
1DB
100
AcDbEntity
8
SIG0015PB_AMPLIACION
6
ByLayer
62
256
370
-1
100
AcDbLine
10
717248.056431
20
4251786.68269
11
717247.275088
21
4251786.41787
0
LINE
5
1DC
100
AcDbEntity
8
SIG0015PB_AMPLIACION
6
ByLayer
62
256
370
-1
100
AcDbLine
10
717213.90391
20
4251772.28129
11
717209.834051
21
4251776.77623
0
LINE
5
1DD
100
AcDbEntity
8
SIG0015PB_AMPLIACION
6
ByLayer
62
256
370
-1
100
AcDbLine
10
717209.834051
20
4251776.77623
11
717210.417128
21
4251776.97385
0
LINE
5
1DE
100
AcDbEntity
8
SIG0015PB_AMPLIACION
6
ByLayer
62
256
370
-1
100
AcDbLine
10
717219.563444
20
4251766.03063
11
717215.246282
21
4251770.79871
0
LINE
5
1DF
100
AcDbEntity
8
SIG0015PB_AMPLIACION
6
ByLayer
62
256
370
-1
100
AcDbLine
10
717219.601465
20
4251766.04352
11
717219.563444
21
4251766.03063
0
LINE
5
1E0
100
AcDbEntity
8
SIG0015PB_AMPLIACION
6
ByLayer
62
256
370
-1
100
AcDbLine
10
717251.705029
20
4251776.92428
11
717250.994718
21
4251776.68354
0
LINE
5
1E1
100
AcDbEntity
8
SIG0015PB_AMPLIACION
6
ByLayer
62
256
370
-1
100
AcDbLine
10
717251.86473
20
4251776.60885
11
717251.059711
21
4251776.33601
0
LINE
5
1E2
100
AcDbEntity
8
SIG0015PB_AMPLIACION
6
ByLayer
62
256
370
-1
100
AcDbLine
10
717250.444107
20
4251776.12737
11
717249.639088
21
4251775.85452
0
LINE
5
1E3
100
AcDbEntity
8
SIG0015PB_AMPLIACION
6
ByLayer
62
256
370
-1
100
AcDbLine
10
717243.467162
20
4251774.13225
11
717245.17191
21
4251774.71003
0
LINE
5
1E4
100
AcDbEntity
8
SIG0015PB_AMPLIACION
6
ByLayer
62
256
370
-1
100
AcDbLine
10
717243.532155
20
4251773.78472
11
717245.331611
21
4251774.3946
0
LINE
5
1E5
100
AcDbEntity
8
SIG0015PB_AMPLIACION
6
ByLayer
62
256
370
-1
100
AcDbLine
10
717241.849799
20
4251787.62723
11
717243.554546
21
4251788.20501
0
LINE
5
1E6
100
AcDbEntity
8
SIG0015PB_AMPLIACION
6
ByLayer
62
256
370
-1
100
AcDbLine
10
717241.690098
20
4251787.94266
11
717243.489554
21
4251788.55254
0
LINE
5
1E7
100
AcDbEntity
8
SIG0015PB_AMPLIACION
6
ByLayer
62
256
370
-1
100
AcDbLine
10
717237.511334
20
4251774.00225
11
717236.869351
21
4251775.89641
0
LINE
5
1E8
100
AcDbEntity
8
SIG0015PB_AMPLIACION
6
ByLayer
62
256
370
-1
100
AcDbLine
10
717237.369271
20
4251773.9541
11
717236.727288
21
4251775.84826
0
LINE
5
1E9
100
AcDbEntity
8
SIG0015PB_AMPLIACION
6
ByLayer
62
256
370
-1
100
AcDbLine
10
717240.902717
20
4251787.30624
11
717239.197969
21
4251786.72845
0
LINE
5
1EA
100
AcDbEntity
8
SIG0015PB_AMPLIACION
6
ByLayer
62
256
370
-1
100
AcDbLine
10
717240.837724
20
4251787.65377
11
717239.038268
21
4251787.04388
0
LINE
5
1EB
100
AcDbEntity
8
SIG0015PB_AMPLIACION
6
ByLayer
62
256
370
-1
100
AcDbLine
10
717238.250887
20
4251786.40746
11
717236.546139
21
4251785.82968
0
LINE
5
1EC
100
AcDbEntity
8
SIG0015PB_AMPLIACION
6
ByLayer
62
256
370
-1
100
AcDbLine
10
717238.185894
20
4251786.75499
11
717236.386438
21
4251786.14511
0
LINE
5
1ED
100
AcDbEntity
8
SIG0015PB_AMPLIACION
6
ByLayer
62
256
370
-1
100
AcDbLine
10
717251.315138
20
4251790.83529
11
717253.019886
21
4251791.41307
0
LINE
5
1EE
100
AcDbEntity
8
SIG0015PB_AMPLIACION
6
ByLayer
62
256
370
-1
100
AcDbLine
10
717251.155437
20
4251791.15072
11
717252.954893
21
4251791.7606
0
LINE
5
1EF
100
AcDbEntity
8
SIG0015PB_AMPLIACION
6
ByLayer
62
256
370
-1
100
AcDbLine
10
717253.966968
20
4251791.73406
11
717255.671715
21
4251792.31185
0
LINE
5
1F0
100
AcDbEntity
8
SIG0015PB_AMPLIACION
6
ByLayer
62
256
370
-1
100
AcDbLine
10
717253.807266
20
4251792.04949
11
717255.606723
21
4251792.65938
0
LINE
5
1F1
100
AcDbEntity
8
SIG0015PB_AMPLIACION
6
ByLayer
62
256
370
-1
100
AcDbLine
10
717259.319978
20
4251779.13563
11
717261.119434
21
4251779.74552
0
LINE
5
1F2
100
AcDbEntity
8
SIG0015PB_AMPLIACION
6
ByLayer
62
256
370
-1
100
AcDbLine
10
717258.359951
20
4251791.86177
11
717258.93773
21
4251790.15702
0
LINE
5
1F3
100
AcDbEntity
8
SIG0015PB_AMPLIACION
6
ByLayer
62
256
370
-1
100
AcDbLine
10
717258.67538
20
4251792.02148
11
717259.285258
21
4251790.22202
0
LINE
5
1F4
100
AcDbEntity
8
SIG0015PB_AMPLIACION
6
ByLayer
62
256
370
-1
100
AcDbLine
10
717262.149077
20
4251781.77235
11
717261.539195
21
4251783.5718
0
LINE
5
1F5
100
AcDbEntity
8
SIG0015PB_AMPLIACION
6
ByLayer
62
256
370
-1
100
AcDbLine
10
717240.815333
20
4251773.23347
11
717242.52008
21
4251773.81125
0
LINE
5
1F6
100
AcDbEntity
8
SIG0015PB_AMPLIACION
6
ByLayer
62
256
370
-1
100
AcDbLine
10
717240.880325
20
4251772.88594
11
717242.679781
21
4251773.49583
0
LINE
5
1F7
100
AcDbEntity
8
SIG0015PB_AMPLIACION
6
ByLayer
62
256
370
-1
100
AcDbLine
10
717238.400275
20
4251772.41494
11
717240.105023
21
4251772.99272
0
LINE
5
1F8
100
AcDbEntity
8
SIG0015PB_AMPLIACION
6
ByLayer
62
256
370
-1
100
AcDbLine
10
717238.465268
20
4251772.06741
11
717240.264724
21
4251772.67729
0
LINE
5
1F9
100
AcDbEntity
8
SIG0015PB_AMPLIACION
6
ByLayer
62
256
370
-1
100
AcDbLine
10
717220.048066
20
4251766.19489
11
717220.758377
21
4251766.43563
0
LINE
5
1FA
100
AcDbEntity
8
SIG0015PB_AMPLIACION
6
ByLayer
62
256
370
-1
100
AcDbLine
10
717220.113058
20
4251765.84736
11
717220.918078
21
4251766.1202
0
LINE
5
1FB
100
AcDbEntity
8
SIG0015PB_AMPLIACION
6
ByLayer
62
256
370
-1
100
AcDbLine
10
717244.501628
20
4251788.52601
11
717246.206376
21
4251789.10379
0
LINE
5
1FC
100
AcDbEntity
8
SIG0015PB_AMPLIACION
6
ByLayer
62
256
370
-1
100
AcDbLine
10
717244.341927
20
4251788.84144
11
717246.141383
21
4251789.45132
0
LINE
5
1FD
100
AcDbEntity
8
SIG0015PB_AMPLIACION
6
ByLayer
62
256
370
-1
100
AcDbLine
10
717246.141383
20
4251789.45132
11
717246.157433
21
4251789.40397
0
LINE
5
1FE
100
AcDbEntity
8
SIG0015PB_AMPLIACION
6
ByLayer
62
256
370
-1
100
AcDbLine
10
717245.882221
20
4251774.95077
11
717247.586969
21
4251775.52856
0
LINE
5
1FF
100
AcDbEntity
8
SIG0015PB_AMPLIACION
6
ByLayer
62
256
370
-1
100
AcDbLine
10
717245.947214
20
4251774.60325
11
717247.74667
21
4251775.21313
0
LINE
5
200
100
AcDbEntity
8
SIG0015PB_AMPLIACION
6
ByLayer
62
256
370
-1
100
AcDbLine
10
717221.468689
20
4251766.67637
11
717222.179
21
4251766.91712
0
LINE
5
201
100
AcDbEntity
8
SIG0015PB_AMPLIACION
6
ByLayer
62
256
370
-1
100
AcDbLine
10
717221.533681
20
4251766.32885
11
717222.338701
21
4251766.60169
0
LINE
5
202
100
AcDbEntity
8
SIG0015PB_AMPLIACION
6
ByLayer
62
256
370
-1
100
AcDbLine
10
717222.889312
20
4251767.15786
11
717223.599623
21
4251767.3986
0
LINE
5
203
100
AcDbEntity
8
SIG0015PB_AMPLIACION
6
ByLayer
62
256
370
-1
100
AcDbLine
10
717222.954304
20
4251766.81033
11
717223.759324
21
4251767.08318
0
LINE
5
204
100
AcDbEntity
8
SIG0015PB_AMPLIACION
6
ByLayer
62
256
370
-1
100
AcDbLine
10
717224.309935
20
4251767.63935
11
717225.020247
21
4251767.88009
0
LINE
5
205
100
AcDbEntity
8
SIG0015PB_AMPLIACION
6
ByLayer
62
256
370
-1
100
AcDbLine
10
717224.374928
20
4251767.29182
11
717225.179947
21
4251767.56466
0
LINE
5
206
100
AcDbEntity
8
SIG0015PB_AMPLIACION
6
ByLayer
62
256
370
-1
100
AcDbLine
10
717225.730558
20
4251768.12084
11
717226.44087
21
4251768.36158
0
LINE
5
207
100
AcDbEntity
8
SIG0015PB_AMPLIACION
6
ByLayer
62
256
370
-1
100
AcDbLine
10
717225.795551
20
4251767.77331
11
717226.60057
21
4251768.04615
0
LINE
5
208
100
AcDbEntity
8
SIG0015PB_AMPLIACION
6
ByLayer
62
256
370
-1
100
AcDbLine
10
717227.151181
20
4251768.60232
11
717227.861493
21
4251768.84307
0
LINE
5
209
100
AcDbEntity
8
SIG0015PB_AMPLIACION
6
ByLayer
62
256
370
-1
100
AcDbLine
10
717227.216174
20
4251768.2548
11
717228.021194
21
4251768.52764
0
LINE
5
20A
100
AcDbEntity
8
SIG0015PB_AMPLIACION
6
ByLayer
62
256
370
-1
100
AcDbLine
10
717229.518886
20
4251769.4048
11
717230.229198
21
4251769.64555
0
LINE
5
20B
100
AcDbEntity
8
SIG0015PB_AMPLIACION
6
ByLayer
62
256
370
-1
100
AcDbLine
10
717229.583879
20
4251769.05727
11
717230.388899
21
4251769.33012
0
LINE
5
20C
100
AcDbEntity
8
SIG0015PB_AMPLIACION
6
ByLayer
62
256
370
-1
100
AcDbLine
10
717230.93951
20
4251769.88629
11
717231.649821
21
4251770.12703
0
LINE
5
20D
100
AcDbEntity
8
SIG0015PB_AMPLIACION
6
ByLayer
62
256
370
-1
100
AcDbLine
10
717231.004502
20
4251769.53876
11
717231.809522
21
4251769.8116
0
LINE
5
20E
100
AcDbEntity
8
SIG0015PB_AMPLIACION
6
ByLayer
62
256
370
-1
100
AcDbLine
10
717232.360133
20
4251770.36778
11
717233.070444
21
4251770.60852
0
LINE
5
20F
100
AcDbEntity
8
SIG0015PB_AMPLIACION
6
ByLayer
62
256
370
-1
100
AcDbLine
10
717232.425125
20
4251770.02025
11
717233.230145
21
4251770.29309
0
LINE
5
210
100
AcDbEntity
8
SIG0015PB_AMPLIACION
6
ByLayer
62
256
370
-1
100
AcDbLine
10
717233.780756
20
4251770.84926
11
717234.491067
21
4251771.09001
0
LINE
5
211
100
AcDbEntity
8
SIG0015PB_AMPLIACION
6
ByLayer
62
256
370
-1
100
AcDbLine
10
717233.845748
20
4251770.50174
11
717234.650768
21
4251770.77458
0
LINE
5
212
100
AcDbEntity
8
SIG0015PB_AMPLIACION
6
ByLayer
62
256
370
-1
100
AcDbLine
10
717235.201379
20
4251771.33075
11
717235.91169
21
4251771.57149
0
LINE
5
213
100
AcDbEntity
8
SIG0015PB_AMPLIACION
6
ByLayer
62
256
370
-1
100
AcDbLine
10
717235.266371
20
4251770.98322
11
717236.071391
21
4251771.25607
0
LINE
5
214
100
AcDbEntity
8
SIG0015PB_AMPLIACION
6
ByLayer
62
256
370
-1
100
AcDbLine
10
717236.622002
20
4251771.81224
11
717237.332314
21
4251772.05298
0
LINE
5
215
100
AcDbEntity
8
SIG0015PB_AMPLIACION
6
ByLayer
62
256
370
-1
100
AcDbLine
10
717236.686995
20
4251771.46471
11
717237.492014
21
4251771.73755
0
LINE
5
216
100
AcDbEntity
8
SIG0015PB_AMPLIACION
6
ByLayer
62
256
370
-1
100
AcDbLine
10
717220.443252
20
4251780.37198
11
717221.153564
21
4251780.61272
0
LINE
5
217
100
AcDbEntity
8
SIG0015PB_AMPLIACION
6
ByLayer
62
256
370
-1
100
AcDbLine
10
717220.283551
20
4251780.6874
11
717221.088571
21
4251780.96025
0
LINE
5
218
100
AcDbEntity
8
SIG0015PB_AMPLIACION
6
ByLayer
62
256
370
-1
100
AcDbLine
10
717221.863875
20
4251780.85346
11
717222.574187
21
4251781.09421
0
LINE
5
219
100
AcDbEntity
8
SIG0015PB_AMPLIACION
6
ByLayer
62
256
370
-1
100
AcDbLine
10
717221.704174
20
4251781.16889
11
717222.509194
21
4251781.44173
0
LINE
5
21A
100
AcDbEntity
8
SIG0015PB_AMPLIACION
6
ByLayer
62
256
370
-1
100
AcDbLine
10
717223.284498
20
4251781.33495
11
717223.99481
21
4251781.57569
0
LINE
5
21B
100
AcDbEntity
8
SIG0015PB_AMPLIACION
6
ByLayer
62
256
370
-1
100
AcDbLine
10
717223.124797
20
4251781.65038
11
717223.929817
21
4251781.92322
0
LINE
5
21C
100
AcDbEntity
8
SIG0015PB_AMPLIACION
6
ByLayer
62
256
370
-1
100
AcDbLine
10
717224.545421
20
4251782.13187
11
717225.35044
21
4251782.40471
0
LINE
5
21D
100
AcDbEntity
8
SIG0015PB_AMPLIACION
6
ByLayer
62
256
370
-1
100
AcDbLine
10
717226.125744
20
4251782.29793
11
717226.836056
21
4251782.53867
0
LINE
5
21E
100
AcDbEntity
8
SIG0015PB_AMPLIACION
6
ByLayer
62
256
370
-1
100
AcDbLine
10
717225.966044
20
4251782.61335
11
717226.771063
21
4251782.8862
0
LINE
5
21F
100
AcDbEntity
8
SIG0015PB_AMPLIACION
6
ByLayer
62
256
370
-1
100
AcDbLine
10
717227.546367
20
4251782.77941
11
717228.256679
21
4251783.02016
0
LINE
5
220
100
AcDbEntity
8
SIG0015PB_AMPLIACION
6
ByLayer
62
256
370
-1
100
AcDbLine
10
717227.386667
20
4251783.09484
11
717228.191686
21
4251783.36768
0
LINE
5
221
100
AcDbEntity
8
SIG0015PB_AMPLIACION
6
ByLayer
62
256
370
-1
100
AcDbLine
10
717258.614833
20
4251776.15138
11
717258.293843
21
4251777.09846
0
LINE
5
222
100
AcDbEntity
8
SIG0015PB_AMPLIACION
6
ByLayer
62
256
370
-1
100
AcDbLine
10
717258.962361
20
4251776.21637
11
717258.609272
21
4251777.25816
0
LINE
5
223
100
AcDbEntity
8
SIG0015PB_AMPLIACION
6
ByLayer
62
256
370
-1
100
AcDbLine
10
717235.568364
20
4251785.49828
11
717234.621281
21
4251785.17729
0
LINE
5
224
100
AcDbEntity
8
SIG0015PB_AMPLIACION
6
ByLayer
62
256
370
-1
100
AcDbLine
10
717235.503371
20
4251785.84581
11
717234.46158
21
4251785.49272
0
LINE
5
225
100
AcDbEntity
8
SIG0015PB_AMPLIACION
6
ByLayer
62
256
370
-1
100
AcDbLine
10
717260.993219
20
4251785.18269
11
717260.736426
21
4251785.94036
0
LINE
5
226
100
AcDbEntity
8
SIG0015PB_AMPLIACION
6
ByLayer
62
256
370
-1
100
AcDbLine
10
717260.540621
20
4251786.51808
11
717260.283828
21
4251787.27574
0
LINE
5
227
100
AcDbEntity
8
SIG0015PB_AMPLIACION
6
ByLayer
62
256
370
-1
100
AcDbLine
10
717260.088023
20
4251787.85346
11
717259.83123
21
4251788.61113
0
LINE
5
228
100
AcDbEntity
8
SIG0015PB_AMPLIACION
6
ByLayer
62
256
370
-1
100
AcDbLine
10
717220.097009
20
4251765.89471
11
717220.113058
21
4251765.84736
0
LINE
5
229
100
AcDbEntity
8
SIG0015PB_AMPLIACION
6
ByLayer
62
256
370
-1
100
AcDbLine
10
717219.163568
20
4251765.57835
11
717220.097009
21
4251765.89471
0
LINE
5
22A
100
AcDbEntity
8
SIG0015PB_AMPLIACION
6
ByLayer
62
256
370
-1
100
AcDbLine
10
717220.918078
20
4251766.1202
11
717220.902028
21
4251766.16756
0
LINE
5
22B
100
AcDbEntity
8
SIG0015PB_AMPLIACION
6
ByLayer
62
256
370
-1
100
AcDbLine
10
717221.517632
20
4251766.3762
11
717221.533681
21
4251766.32885
0
LINE
5
22C
100
AcDbEntity
8
SIG0015PB_AMPLIACION
6
ByLayer
62
256
370
-1
100
AcDbLine
10
717220.902028
20
4251766.16756
11
717221.517632
21
4251766.3762
0
LINE
5
22D
100
AcDbEntity
8
SIG0015PB_AMPLIACION
6
ByLayer
62
256
370
-1
100
AcDbLine
10
717222.338701
20
4251766.60169
11
717222.322652
21
4251766.64904
0
LINE
5
22E
100
AcDbEntity
8
SIG0015PB_AMPLIACION
6
ByLayer
62
256
370
-1
100
AcDbLine
10
717222.938255
20
4251766.85769
11
717222.954304
21
4251766.81033
0
LINE
5
22F
100
AcDbEntity
8
SIG0015PB_AMPLIACION
6
ByLayer
62
256
370
-1
100
AcDbLine
10
717222.322652
20
4251766.64904
11
717222.938255
21
4251766.85769
0
LINE
5
230
100
AcDbEntity
8
SIG0015PB_AMPLIACION
6
ByLayer
62
256
370
-1
100
AcDbLine
10
717223.759324
20
4251767.08318
11
717223.743275
21
4251767.13053
0
LINE
5
231
100
AcDbEntity
8
SIG0015PB_AMPLIACION
6
ByLayer
62
256
370
-1
100
AcDbLine
10
717224.358881
20
4251767.33917
11
717224.374928
21
4251767.29182
0
LINE
5
232
100
AcDbEntity
8
SIG0015PB_AMPLIACION
6
ByLayer
62
256
370
-1
100
AcDbLine
10
717223.743275
20
4251767.13053
11
717224.358881
21
4251767.33917
0
LINE
5
233
100
AcDbEntity
8
SIG0015PB_AMPLIACION
6
ByLayer
62
256
370
-1
100
AcDbLine
10
717225.179947
20
4251767.56466
11
717225.163898
21
4251767.61202
0
LINE
5
234
100
AcDbEntity
8
SIG0015PB_AMPLIACION
6
ByLayer
62
256
370
-1
100
AcDbLine
10
717225.163898
20
4251767.61202
11
717225.779501
21
4251767.82066
0
LINE
5
235
100
AcDbEntity
8
SIG0015PB_AMPLIACION
6
ByLayer
62
256
370
-1
100
AcDbLine
10
717225.779501
20
4251767.82066
11
717225.795551
21
4251767.77331
0
LINE
5
236
100
AcDbEntity
8
SIG0015PB_AMPLIACION
6
ByLayer
62
256
370
-1
100
AcDbLine
10
717226.60057
20
4251768.04615
11
717226.584521
21
4251768.09351
0
LINE
5
237
100
AcDbEntity
8
SIG0015PB_AMPLIACION
6
ByLayer
62
256
370
-1
100
AcDbLine
10
717227.200124
20
4251768.30215
11
717227.216174
21
4251768.2548
0
LINE
5
238
100
AcDbEntity
8
SIG0015PB_AMPLIACION
6
ByLayer
62
256
370
-1
100
AcDbLine
10
717226.584521
20
4251768.09351
11
717227.200124
21
4251768.30215
0
LINE
5
239
100
AcDbEntity
8
SIG0015PB_AMPLIACION
6
ByLayer
62
256
370
-1
100
AcDbLine
10
717228.021194
20
4251768.52764
11
717228.005144
21
4251768.57499
0
LINE
5
23A
100
AcDbEntity
8
SIG0015PB_AMPLIACION
6
ByLayer
62
256
370
-1
100
AcDbLine
10
717229.567829
20
4251769.10463
11
717229.583879
21
4251769.05727
0
LINE
5
23B
100
AcDbEntity
8
SIG0015PB_AMPLIACION
6
ByLayer
62
256
370
-1
100
AcDbLine
10
717228.005144
20
4251768.57499
11
717229.567829
21
4251769.10463
0
LINE
5
23C
100
AcDbEntity
8
SIG0015PB_AMPLIACION
6
ByLayer
62
256
370
-1
100
AcDbLine
10
717230.388899
20
4251769.33012
11
717230.372849
21
4251769.37747
0
LINE
5
23D
100
AcDbEntity
8
SIG0015PB_AMPLIACION
6
ByLayer
62
256
370
-1
100
AcDbLine
10
717230.988456
20
4251769.58611
11
717231.004502
21
4251769.53876
0
LINE
5
23E
100
AcDbEntity
8
SIG0015PB_AMPLIACION
6
ByLayer
62
256
370
-1
100
AcDbLine
10
717230.372849
20
4251769.37747
11
717230.988456
21
4251769.58611
0
LINE
5
23F
100
AcDbEntity
8
SIG0015PB_AMPLIACION
6
ByLayer
62
256
370
-1
100
AcDbLine
10
717231.809522
20
4251769.8116
11
717231.793472
21
4251769.85896
0
LINE
5
240
100
AcDbEntity
8
SIG0015PB_AMPLIACION
6
ByLayer
62
256
370
-1
100
AcDbLine
10
717232.409076
20
4251770.0676
11
717232.425125
21
4251770.02025
0
LINE
5
241
100
AcDbEntity
8
SIG0015PB_AMPLIACION
6
ByLayer
62
256
370
-1
100
AcDbLine
10
717231.793472
20
4251769.85896
11
717232.409076
21
4251770.0676
0
LINE
5
242
100
AcDbEntity
8
SIG0015PB_AMPLIACION
6
ByLayer
62
256
370
-1
100
AcDbLine
10
717233.230145
20
4251770.29309
11
717233.214095
21
4251770.34045
0
LINE
5
243
100
AcDbEntity
8
SIG0015PB_AMPLIACION
6
ByLayer
62
256
370
-1
100
AcDbLine
10
717233.829699
20
4251770.54909
11
717233.845748
21
4251770.50174
0
LINE
5
244
100
AcDbEntity
8
SIG0015PB_AMPLIACION
6
ByLayer
62
256
370
-1
100
AcDbLine
10
717233.214095
20
4251770.34045
11
717233.829699
21
4251770.54909
0
LINE
5
245
100
AcDbEntity
8
SIG0015PB_AMPLIACION
6
ByLayer
62
256
370
-1
100
AcDbLine
10
717234.650768
20
4251770.77458
11
717234.634719
21
4251770.82193
0
LINE
5
246
100
AcDbEntity
8
SIG0015PB_AMPLIACION
6
ByLayer
62
256
370
-1
100
AcDbLine
10
717235.250322
20
4251771.03058
11
717235.266371
21
4251770.98322
0
LINE
5
247
100
AcDbEntity
8
SIG0015PB_AMPLIACION
6
ByLayer
62
256
370
-1
100
AcDbLine
10
717234.634719
20
4251770.82193
11
717235.250322
21
4251771.03058
0
LINE
5
248
100
AcDbEntity
8
SIG0015PB_AMPLIACION
6
ByLayer
62
256
370
-1
100
AcDbLine
10
717236.071391
20
4251771.25607
11
717236.055342
21
4251771.30342
0
LINE
5
249
100
AcDbEntity
8
SIG0015PB_AMPLIACION
6
ByLayer
62
256
370
-1
100
AcDbLine
10
717236.670945
20
4251771.51206
11
717236.686995
21
4251771.46471
0
LINE
5
24A
100
AcDbEntity
8
SIG0015PB_AMPLIACION
6
ByLayer
62
256
370
-1
100
AcDbLine
10
717236.055342
20
4251771.30342
11
717236.670945
21
4251771.51206
0
LINE
5
24B
100
AcDbEntity
8
SIG0015PB_AMPLIACION
6
ByLayer
62
256
370
-1
100
AcDbLine
10
717237.492014
20
4251771.73755
11
717237.475965
21
4251771.78491
0
LINE
5
24C
100
AcDbEntity
8
SIG0015PB_AMPLIACION
6
ByLayer
62
256
370
-1
100
AcDbLine
10
717237.475965
20
4251771.78491
11
717238.039711
21
4251771.97597
0
LINE
5
24D
100
AcDbEntity
8
SIG0015PB_AMPLIACION
6
ByLayer
62
256
370
-1
100
AcDbLine
10
717238.449215
20
4251772.11477
11
717238.465268
21
4251772.06741
0
LINE
5
24E
100
AcDbEntity
8
SIG0015PB_AMPLIACION
6
ByLayer
62
256
370
-1
100
AcDbLine
10
717238.449215
20
4251772.11477
11
717238.039711
21
4251771.97597
0
LINE
5
24F
100
AcDbEntity
8
SIG0015PB_AMPLIACION
6
ByLayer
62
256
370
-1
100
AcDbLine
10
717240.264724
20
4251772.67729
11
717240.248671
21
4251772.72465
0
LINE
5
250
100
AcDbEntity
8
SIG0015PB_AMPLIACION
6
ByLayer
62
256
370
-1
100
AcDbLine
10
717240.864275
20
4251772.9333
11
717240.880325
21
4251772.88594
0
LINE
5
251
100
AcDbEntity
8
SIG0015PB_AMPLIACION
6
ByLayer
62
256
370
-1
100
AcDbLine
10
717240.248671
20
4251772.72465
11
717240.864275
21
4251772.9333
0
LINE
5
252
100
AcDbEntity
8
SIG0015PB_AMPLIACION
6
ByLayer
62
256
370
-1
100
AcDbLine
10
717242.679781
20
4251773.49583
11
717242.663731
21
4251773.54318
0
LINE
5
253
100
AcDbEntity
8
SIG0015PB_AMPLIACION
6
ByLayer
62
256
370
-1
100
AcDbLine
10
717243.516105
20
4251773.83207
11
717243.532155
21
4251773.78472
0
LINE
5
254
100
AcDbEntity
8
SIG0015PB_AMPLIACION
6
ByLayer
62
256
370
-1
100
AcDbLine
10
717243.516105
20
4251773.83207
11
717242.663731
21
4251773.54318
0
LINE
5
255
100
AcDbEntity
8
SIG0015PB_AMPLIACION
6
ByLayer
62
256
370
-1
100
AcDbLine
10
717245.331611
20
4251774.3946
11
717245.315561
21
4251774.44196
0
LINE
5
256
100
AcDbEntity
8
SIG0015PB_AMPLIACION
6
ByLayer
62
256
370
-1
100
AcDbLine
10
717245.931164
20
4251774.6506
11
717245.947214
21
4251774.60325
0
LINE
5
257
100
AcDbEntity
8
SIG0015PB_AMPLIACION
6
ByLayer
62
256
370
-1
100
AcDbLine
10
717245.931164
20
4251774.6506
11
717245.315561
21
4251774.44196
0
LINE
5
258
100
AcDbEntity
8
SIG0015PB_AMPLIACION
6
ByLayer
62
256
370
-1
100
AcDbLine
10
717247.74667
20
4251775.21313
11
717247.730617
21
4251775.26049
0
LINE
5
259
100
AcDbEntity
8
SIG0015PB_AMPLIACION
6
ByLayer
62
256
370
-1
100
AcDbLine
10
717249.639088
20
4251775.85452
11
717249.623038
21
4251775.90188
0
LINE
5
25A
100
AcDbEntity
8
SIG0015PB_AMPLIACION
6
ByLayer
62
256
370
-1
100
AcDbLine
10
717249.623038
20
4251775.90188
11
717247.730617
21
4251775.26049
0
LINE
5
25B
100
AcDbEntity
8
SIG0015PB_AMPLIACION
6
ByLayer
62
256
370
-1
100
AcDbLine
10
717250.428058
20
4251776.17472
11
717250.444107
21
4251776.12737
0
LINE
5
25C
100
AcDbEntity
8
SIG0015PB_AMPLIACION
6
ByLayer
62
256
370
-1
100
AcDbLine
10
717251.043661
20
4251776.38336
11
717250.428058
21
4251776.17472
0
LINE
5
25D
100
AcDbEntity
8
SIG0015PB_AMPLIACION
6
ByLayer
62
256
370
-1
100
AcDbLine
10
717251.059711
20
4251776.33601
11
717251.043661
21
4251776.38336
0
LINE
5
25E
100
AcDbEntity
8
SIG0015PB_AMPLIACION
6
ByLayer
62
256
370
-1
100
AcDbLine
10
717252.505982
20
4251776.87899
11
717251.848681
21
4251776.65621
0
LINE
5
25F
100
AcDbEntity
8
SIG0015PB_AMPLIACION
6
ByLayer
62
256
370
-1
100
AcDbLine
10
717251.848681
20
4251776.65621
11
717251.86473
21
4251776.60885
0
LINE
5
260
100
AcDbEntity
8
SIG0015PB_AMPLIACION
6
ByLayer
62
256
370
-1
100
AcDbLine
10
717215.056241
20
4251778.86294
11
717220.299601
21
4251780.64005
0
LINE
5
261
100
AcDbEntity
8
SIG0015PB_AMPLIACION
6
ByLayer
62
256
370
-1
100
AcDbLine
10
717220.299601
20
4251780.64005
11
717220.283551
21
4251780.6874
0
LINE
5
262
100
AcDbEntity
8
SIG0015PB_AMPLIACION
6
ByLayer
62
256
370
-1
100
AcDbLine
10
717221.088571
20
4251780.96025
11
717221.104621
21
4251780.91289
0
LINE
5
263
100
AcDbEntity
8
SIG0015PB_AMPLIACION
6
ByLayer
62
256
370
-1
100
AcDbLine
10
717221.104621
20
4251780.91289
11
717221.720224
21
4251781.12154
0
LINE
5
264
100
AcDbEntity
8
SIG0015PB_AMPLIACION
6
ByLayer
62
256
370
-1
100
AcDbLine
10
717221.720224
20
4251781.12154
11
717221.704174
21
4251781.16889
0
LINE
5
265
100
AcDbEntity
8
SIG0015PB_AMPLIACION
6
ByLayer
62
256
370
-1
100
AcDbLine
10
717222.509194
20
4251781.44173
11
717222.525244
21
4251781.39438
0
LINE
5
266
100
AcDbEntity
8
SIG0015PB_AMPLIACION
6
ByLayer
62
256
370
-1
100
AcDbLine
10
717222.525244
20
4251781.39438
11
717223.140847
21
4251781.60303
0
LINE
5
267
100
AcDbEntity
8
SIG0015PB_AMPLIACION
6
ByLayer
62
256
370
-1
100
AcDbLine
10
717223.140847
20
4251781.60303
11
717223.124797
21
4251781.65038
0
LINE
5
268
100
AcDbEntity
8
SIG0015PB_AMPLIACION
6
ByLayer
62
256
370
-1
100
AcDbLine
10
717223.929817
20
4251781.92322
11
717223.945867
21
4251781.87587
0
LINE
5
269
100
AcDbEntity
8
SIG0015PB_AMPLIACION
6
ByLayer
62
256
370
-1
100
AcDbLine
10
717223.945867
20
4251781.87587
11
717224.56147
21
4251782.08451
0
LINE
5
26A
100
AcDbEntity
8
SIG0015PB_AMPLIACION
6
ByLayer
62
256
370
-1
100
AcDbLine
10
717224.56147
20
4251782.08451
11
717224.545421
21
4251782.13187
0
LINE
5
26B
100
AcDbEntity
8
SIG0015PB_AMPLIACION
6
ByLayer
62
256
370
-1
100
AcDbLine
10
717225.35044
20
4251782.40471
11
717225.36649
21
4251782.35736
0
LINE
5
26C
100
AcDbEntity
8
SIG0015PB_AMPLIACION
6
ByLayer
62
256
370
-1
100
AcDbLine
10
717225.36649
20
4251782.35736
11
717225.982093
21
4251782.566
0
LINE
5
26D
100
AcDbEntity
8
SIG0015PB_AMPLIACION
6
ByLayer
62
256
370
-1
100
AcDbLine
10
717225.982093
20
4251782.566
11
717225.966044
21
4251782.61335
0
LINE
5
26E
100
AcDbEntity
8
SIG0015PB_AMPLIACION
6
ByLayer
62
256
370
-1
100
AcDbLine
10
717226.771063
20
4251782.8862
11
717226.787113
21
4251782.83884
0
LINE
5
26F
100
AcDbEntity
8
SIG0015PB_AMPLIACION
6
ByLayer
62
256
370
-1
100
AcDbLine
10
717226.787113
20
4251782.83884
11
717227.402716
21
4251783.04749
0
LINE
5
270
100
AcDbEntity
8
SIG0015PB_AMPLIACION
6
ByLayer
62
256
370
-1
100
AcDbLine
10
717227.402716
20
4251783.04749
11
717227.386667
21
4251783.09484
0
LINE
5
271
100
AcDbEntity
8
SIG0015PB_AMPLIACION
6
ByLayer
62
256
370
-1
100
AcDbLine
10
717228.207736
20
4251783.32033
11
717231.071278
21
4251784.29086
0
LINE
5
272
100
AcDbEntity
8
SIG0015PB_AMPLIACION
6
ByLayer
62
256
370
-1
100
AcDbLine
10
717228.191686
20
4251783.36768
11
717228.207736
21
4251783.32033
0
LINE
5
273
100
AcDbEntity
8
SIG0015PB_AMPLIACION
6
ByLayer
62
256
370
-1
100
AcDbLine
10
717234.477629
20
4251785.44536
11
717233.577923
21
4251785.14043
0
LINE
5
274
100
AcDbEntity
8
SIG0015PB_AMPLIACION
6
ByLayer
62
256
370
-1
100
AcDbLine
10
717234.46158
20
4251785.49272
11
717234.477629
21
4251785.44536
0
LINE
5
275
100
AcDbEntity
8
SIG0015PB_AMPLIACION
6
ByLayer
62
256
370
-1
100
AcDbLine
10
717235.51942
20
4251785.79845
11
717235.503371
21
4251785.84581
0
LINE
5
276
100
AcDbEntity
8
SIG0015PB_AMPLIACION
6
ByLayer
62
256
370
-1
100
AcDbLine
10
717236.386438
20
4251786.14511
11
717236.402487
21
4251786.09775
0
LINE
5
277
100
AcDbEntity
8
SIG0015PB_AMPLIACION
6
ByLayer
62
256
370
-1
100
AcDbLine
10
717236.402487
20
4251786.09775
11
717235.51942
21
4251785.79845
0
LINE
5
278
100
AcDbEntity
8
SIG0015PB_AMPLIACION
6
ByLayer
62
256
370
-1
100
AcDbLine
10
717238.201943
20
4251786.70764
11
717238.185894
21
4251786.75499
0
LINE
5
279
100
AcDbEntity
8
SIG0015PB_AMPLIACION
6
ByLayer
62
256
370
-1
100
AcDbLine
10
717238.201943
20
4251786.70764
11
717239.054317
21
4251786.99653
0
LINE
5
27A
100
AcDbEntity
8
SIG0015PB_AMPLIACION
6
ByLayer
62
256
370
-1
100
AcDbLine
10
717239.038268
20
4251787.04388
11
717239.054317
21
4251786.99653
0
LINE
5
27B
100
AcDbEntity
8
SIG0015PB_AMPLIACION
6
ByLayer
62
256
370
-1
100
AcDbLine
10
717240.853773
20
4251787.60641
11
717240.837724
21
4251787.65377
0
LINE
5
27C
100
AcDbEntity
8
SIG0015PB_AMPLIACION
6
ByLayer
62
256
370
-1
100
AcDbLine
10
717240.853773
20
4251787.60641
11
717241.706147
21
4251787.8953
0
LINE
5
27D
100
AcDbEntity
8
SIG0015PB_AMPLIACION
6
ByLayer
62
256
370
-1
100
AcDbLine
10
717241.706147
20
4251787.8953
11
717241.690098
21
4251787.94266
0
LINE
5
27E
100
AcDbEntity
8
SIG0015PB_AMPLIACION
6
ByLayer
62
256
370
-1
100
AcDbLine
10
717243.489554
20
4251788.55254
11
717243.505603
21
4251788.50519
0
LINE
5
27F
100
AcDbEntity
8
SIG0015PB_AMPLIACION
6
ByLayer
62
256
370
-1
100
AcDbLine
10
717244.357975
20
4251788.79408
11
717244.341927
21
4251788.84144
0
LINE
5
280
100
AcDbEntity
8
SIG0015PB_AMPLIACION
6
ByLayer
62
256
370
-1
100
AcDbLine
10
717243.505603
20
4251788.50519
11
717244.357975
21
4251788.79408
0
LINE
5
281
100
AcDbEntity
8
SIG0015PB_AMPLIACION
6
ByLayer
62
256
370
-1
100
AcDbLine
10
717251.171487
20
4251791.10336
11
717251.155437
21
4251791.15072
0
LINE
5
282
100
AcDbEntity
8
SIG0015PB_AMPLIACION
6
ByLayer
62
256
370
-1
100
AcDbLine
10
717249.984677
20
4251790.70112
11
717251.171487
21
4251791.10336
0
LINE
5
283
100
AcDbEntity
8
SIG0015PB_AMPLIACION
6
ByLayer
62
256
370
-1
100
AcDbLine
10
717252.954893
20
4251791.7606
11
717252.970942
21
4251791.71325
0
LINE
5
284
100
AcDbEntity
8
SIG0015PB_AMPLIACION
6
ByLayer
62
256
370
-1
100
AcDbLine
10
717252.970942
20
4251791.71325
11
717253.823316
21
4251792.00214
0
LINE
5
285
100
AcDbEntity
8
SIG0015PB_AMPLIACION
6
ByLayer
62
256
370
-1
100
AcDbLine
10
717253.823316
20
4251792.00214
11
717253.807266
21
4251792.04949
0
LINE
5
286
100
AcDbEntity
8
SIG0015PB_AMPLIACION
6
ByLayer
62
256
370
-1
100
AcDbLine
10
717255.606723
20
4251792.65938
11
717255.622772
21
4251792.61202
0
LINE
5
287
100
AcDbEntity
8
SIG0015PB_AMPLIACION
6
ByLayer
62
256
370
-1
100
AcDbLine
10
717255.622772
20
4251792.61202
11
717258.133968
21
4251793.46313
0
LINE
5
288
100
AcDbEntity
8
SIG0015PB_AMPLIACION
6
ByLayer
62
256
370
-1
100
AcDbLine
10
717258.628024
20
4251792.00543
11
717258.67538
21
4251792.02148
0
LINE
5
289
100
AcDbEntity
8
SIG0015PB_AMPLIACION
6
ByLayer
62
256
370
-1
100
AcDbLine
10
717258.628024
20
4251792.00543
11
717258.133964
21
4251793.46313
0
LINE
5
28A
100
AcDbEntity
8
SIG0015PB_AMPLIACION
6
ByLayer
62
256
370
-1
100
AcDbLine
10
717259.285258
20
4251790.22202
11
717259.237907
21
4251790.20597
0
LINE
5
28B
100
AcDbEntity
8
SIG0015PB_AMPLIACION
6
ByLayer
62
256
370
-1
100
AcDbLine
10
717259.83123
20
4251788.61113
11
717259.78388
21
4251788.59508
0
LINE
5
28C
100
AcDbEntity
8
SIG0015PB_AMPLIACION
6
ByLayer
62
256
370
-1
100
AcDbLine
10
717259.78388
20
4251788.59508
11
717259.237907
21
4251790.20597
0
LINE
5
28D
100
AcDbEntity
8
SIG0015PB_AMPLIACION
6
ByLayer
62
256
370
-1
100
AcDbLine
10
717260.040671
20
4251787.83741
11
717260.088023
21
4251787.85346
0
LINE
5
28E
100
AcDbEntity
8
SIG0015PB_AMPLIACION
6
ByLayer
62
256
370
-1
100
AcDbLine
10
717260.040671
20
4251787.83741
11
717260.236476
21
4251787.25969
0
LINE
5
28F
100
AcDbEntity
8
SIG0015PB_AMPLIACION
6
ByLayer
62
256
370
-1
100
AcDbLine
10
717260.283828
20
4251787.27574
11
717260.236476
21
4251787.25969
0
LINE
5
290
100
AcDbEntity
8
SIG0015PB_AMPLIACION
6
ByLayer
62
256
370
-1
100
AcDbLine
10
717260.493266
20
4251786.50203
11
717260.540621
21
4251786.51808
0
LINE
5
291
100
AcDbEntity
8
SIG0015PB_AMPLIACION
6
ByLayer
62
256
370
-1
100
AcDbLine
10
717260.736426
20
4251785.94036
11
717260.689071
21
4251785.92431
0
LINE
5
292
100
AcDbEntity
8
SIG0015PB_AMPLIACION
6
ByLayer
62
256
370
-1
100
AcDbLine
10
717260.493266
20
4251786.50203
11
717260.689071
21
4251785.92431
0
LINE
5
293
100
AcDbEntity
8
SIG0015PB_AMPLIACION
6
ByLayer
62
256
370
-1
100
AcDbLine
10
717260.945867
20
4251785.16664
11
717260.993219
21
4251785.18269
0
LINE
5
294
100
AcDbEntity
8
SIG0015PB_AMPLIACION
6
ByLayer
62
256
370
-1
100
AcDbLine
10
717261.539195
20
4251783.5718
11
717261.49184
21
4251783.55575
0
LINE
5
295
100
AcDbEntity
8
SIG0015PB_AMPLIACION
6
ByLayer
62
256
370
-1
100
AcDbLine
10
717261.49184
20
4251783.55575
11
717260.945867
21
4251785.16664
0
LINE
5
296
100
AcDbEntity
8
SIG0015PB_AMPLIACION
6
ByLayer
62
256
370
-1
100
AcDbLine
10
717262.595749
20
4251780.29868
11
717262.10172
21
4251781.7563
0
LINE
5
297
100
AcDbEntity
8
SIG0015PB_AMPLIACION
6
ByLayer
62
256
370
-1
100
AcDbLine
10
717262.10172
20
4251781.7563
11
717262.149077
21
4251781.77235
0
LINE
5
298
100
AcDbEntity
8
SIG0015PB_AMPLIACION
6
ByLayer
62
256
370
-1
100
AcDbLine
10
717259.303928
20
4251779.18299
11
717259.319978
21
4251779.13563
0
LINE
5
299
100
AcDbEntity
8
SIG0015PB_AMPLIACION
6
ByLayer
62
256
370
-1
100
AcDbLine
10
717259.303928
20
4251779.18299
11
717258.048333
21
4251778.75743
0
LINE
5
29A
100
AcDbEntity
8
SIG0015PB_AMPLIACION
6
ByLayer
62
256
370
-1
100
AcDbLine
10
717261.119434
20
4251779.74552
11
717261.103384
21
4251779.79287
0
LINE
5
29B
100
AcDbEntity
8
SIG0015PB_AMPLIACION
6
ByLayer
62
256
370
-1
100
AcDbLine
10
717261.103384
20
4251779.79287
11
717262.595749
21
4251780.29868
0
LINE
5
29C
100
AcDbEntity
8
SIG0015PB_AMPLIACION
6
ByLayer
62
256
370
-1
100
AcDbLine
10
717258.915008
20
4251776.20032
11
717258.962361
21
4251776.21637
0
LINE
5
29D
100
AcDbEntity
8
SIG0015PB_AMPLIACION
6
ByLayer
62
256
370
-1
100
AcDbLine
10
717259.57304
20
4251774.25881
11
717258.915008
21
4251776.20032
0
LINE
5
29E
100
AcDbEntity
8
SIG0015PB_AMPLIACION
6
ByLayer
62
256
370
-1
100
AcDbLine
10
717258.609272
20
4251777.25816
11
717258.561918
21
4251777.24211
0
LINE
5
29F
100
AcDbEntity
8
SIG0015PB_AMPLIACION
6
ByLayer
62
256
370
-1
100
AcDbLine
10
717258.561918
20
4251777.24211
11
717258.048333
21
4251778.75743
0
LINE
5
2A0
100
AcDbEntity
8
SIG0015PB_AMPLIACION
6
ByLayer
62
256
370
-1
100
AcDbLine
10
717224.53938
20
4251781.76027
11
717225.415433
21
4251782.05718
0
LINE
5
2A1
100
AcDbEntity
8
SIG0015PB_AMPLIACION
6
ByLayer
62
256
370
-1
100
AcDbLine
10
717224.53938
20
4251781.76027
11
717224.587531
21
4251781.6182
0
LINE
5
2A2
100
AcDbEntity
8
SIG0015PB_AMPLIACION
6
ByLayer
62
256
370
-1
100
AcDbLine
10
717249.379825
20
4251776.1362
11
717250.847799
21
4251776.63374
0
LINE
5
2A3
100
AcDbEntity
8
SIG0015PB_AMPLIACION
6
ByLayer
62
256
370
-1
100
AcDbLine
10
717249.042781
20
4251777.13064
11
717249.379825
21
4251776.1362
0
LINE
5
2A4
100
AcDbEntity
8
SIG0015PB_AMPLIACION
6
ByLayer
62
256
370
-1
100
AcDbLine
10
717255.088662
20
4251776.33229
11
717255.260561
21
4251776.39055
0
LINE
5
2A5
100
AcDbEntity
8
SIG0015PB_AMPLIACION
6
ByLayer
62
256
370
-1
100
AcDbLine
10
717261.961711
20
4251780.61173
11
717262.025916
21
4251780.42229
0
LINE
5
2A6
100
AcDbEntity
8
SIG0015PB_AMPLIACION
6
ByLayer
62
256
370
-1
100
AcDbLine
10
717262.025916
20
4251780.42229
11
717257.952036
21
4251779.04156
0
LINE
5
2A7
100
AcDbEntity
8
SIG0015PB_AMPLIACION
6
ByLayer
62
256
370
-1
100
AcDbLine
10
717260.892603
20
4251783.76612
11
717261.082172
21
4251783.82985
0
LINE
5
2A8
100
AcDbEntity
8
SIG0015PB_AMPLIACION
6
ByLayer
62
256
370
-1
100
AcDbLine
10
717262.151128
20
4251780.67592
11
717261.082172
21
4251783.82985
0
LINE
5
2A9
100
AcDbEntity
8
SIG0015PB_AMPLIACION
6
ByLayer
62
256
370
-1
100
AcDbLine
10
717260.921668
20
4251784.30339
11
717260.732107
21
4251784.23966
0
LINE
5
2AA
100
AcDbEntity
8
SIG0015PB_AMPLIACION
6
ByLayer
62
256
370
-1
100
AcDbLine
10
717259.4155
20
4251788.74743
11
717260.921668
21
4251784.30339
0
ENDSEC
0
SECTION
2
OBJECTS
0
DICTIONARY
5
C
330
0
100
AcDbDictionary
281
1
3
ACAD_GROUP
350
D
0
DICTIONARY
5
D
330
C
100
AcDbDictionary
281
1
0
ENDSEC
0
EOF
